<svg xmlns="http://www.w3.org/2000/svg" xmlns:xlink="http://www.w3.org/1999/xlink" xmlns:lucid="lucid" width="733" height="447"><g transform="translate(597 -1427)" lucid:page-tab-id="0_0"><path d="M-392.6 1799.67a6 6 0 0 1 6-6h308a6 6 0 0 1 6 6v788a6 6 0 0 1-6 6h-308a6 6 0 0 1-6-6z" stroke="#282c33" stroke-width="2" fill="#f2f3f5"/><path d="M-312.6 1898.67a6 6 0 0 1 6-6h148a6 6 0 0 1 6 6v68a6 6 0 0 1-6 6h-148a6 6 0 0 1-6-6z" stroke="#282c33" stroke-width="2" fill="#cfe4ff"/><use xlink:href="#a" transform="matrix(1,0,0,1,-300.60942156212917,1904.6739236604114) translate(42.135802469135804 21.27777777777778)"/><use xlink:href="#b" transform="matrix(1,0,0,1,-300.60942156212917,1904.6739236604114) translate(24.26543209876543 47.94444444444444)"/><path d="M-312.6 1839.67a6 6 0 0 1 6-6h148a6 6 0 0 1 6 6v28a6 6 0 0 1-6 6h-148a6 6 0 0 1-6-6z" stroke="#282c33" stroke-width="2" fill="#fcfcca"/><use xlink:href="#c" transform="matrix(1,0,0,1,-300.60942156212917,1845.6738736604118) translate(46.48765432098766 17.77777777777778)"/><path d="M-234.6 2069.1h-113a6 6 0 0 1-6-6v-203.43a6 6 0 0 1 6-6h20.76M-234.66 2069.1h2.05" stroke="#3a414a" stroke-width="4" fill="none"/><path d="M-317.54 1853.67l-12.9 7.64v-15.26z" stroke="#3a414a" stroke-width="4" fill="#3a414a"/><path d="M-232.6 1889.67v-13" stroke="#3a414a" stroke-width="4" fill="none"/><path d="M-230.63 1891.67h-3.95v-2.05h3.95zM-230.63 1876.72h-3.95v-2.05h3.95z" stroke="#3a414a" stroke-width=".05" fill="#3a414a"/><path d="M-312.6 1546a6 6 0 0 1 6-6h148a6 6 0 0 1 6 6v28a6 6 0 0 1-6 6h-148a6 6 0 0 1-6-6z" stroke="#282c33" stroke-width="2" fill="#dedeff"/><use xlink:href="#d" transform="matrix(1,0,0,1,-300.60942156212917,1552) translate(34.7283950617284 17.77777777777778)"/><path d="M-232.6 1617.5v-23.27" stroke="#3a414a" stroke-width="4" fill="none"/><path d="M-230.63 1619.66l-1.97-.16-1.72.06-.26.04v-2.15h3.95z" stroke="#3a414a" stroke-width=".05" fill="#3a414a"/><path d="M-232.6 1584.93l7.63 12.9h-15.28z" stroke="#3a414a" stroke-width="4" fill="#3a414a"/><path d="M-232.6 1717v-23.27" stroke="#3a414a" stroke-width="4" fill="none"/><path d="M-230.63 1719h-3.95v-2.05h3.95z" stroke="#3a414a" stroke-width=".05" fill="#3a414a"/><path d="M-232.6 1684.43l7.63 12.9h-15.28z" stroke="#3a414a" stroke-width="4" fill="#3a414a"/><path d="M-232.6 1830.67v-56.44" stroke="#3a414a" stroke-width="4" fill="none"/><path d="M-230.63 1832.67h-3.95v-2.05h3.95z" stroke="#3a414a" stroke-width=".05" fill="#3a414a"/><path d="M-232.6 1764.93l7.63 12.9h-15.28z" stroke="#3a414a" stroke-width="4" fill="#3a414a"/><path d="M-312.6 1466a6 6 0 0 1 6-6h148a6 6 0 0 1 6 6v28a6 6 0 0 1-6 6h-148a6 6 0 0 1-6-6z" stroke="#282c33" stroke-width="2" fill="#e3fae3"/><use xlink:href="#e" transform="matrix(1,0,0,1,-300.60942156212917,1472) translate(24.26543209876543 17.77777777777778)"/><path d="M-232.6 1537v-22.77" stroke="#3a414a" stroke-width="4" fill="none"/><path d="M-230.63 1539h-3.95v-2.05h3.95z" stroke="#3a414a" stroke-width=".05" fill="#3a414a"/><path d="M-232.6 1504.93l7.63 12.9h-15.28z" stroke="#3a414a" stroke-width="4" fill="#3a414a"/><path d="M-312.6 1346a6 6 0 0 1 6-6h148a6 6 0 0 1 6 6v68a6 6 0 0 1-6 6h-148a6 6 0 0 1-6-6z" stroke="#282c33" stroke-width="2" fill="#fff"/><use xlink:href="#f" transform="matrix(1,0,0,1,-300.60942156212917,1352) translate(31.73456790123457 21.27777777777778)"/><use xlink:href="#g" transform="matrix(1,0,0,1,-300.60942156212917,1352) translate(2.1049382716049507 47.94444444444444)"/><path d="M-232.6 1457v-22.77" stroke="#3a414a" stroke-width="4" fill="none"/><path d="M-230.63 1459h-3.95v-2.05h3.95z" stroke="#3a414a" stroke-width=".05" fill="#3a414a"/><path d="M-232.6 1424.93l7.63 12.9h-15.28z" stroke="#3a414a" stroke-width="4" fill="#3a414a"/><path d="M-36 1674c-13.26 0-24-10.74-24-24 0-10.6 6.5-19.55 16.58-22.83C-44 1596-4 1590 12 1602c8-18 48-12 48 6 24-6 48 18 32 48 16 24 0 54-32 42-8 15.6-40 15.6-48 0-16 12-48 6-48-24z" stroke="#282c33" stroke-width="2" fill="#fff"/><use xlink:href="#h" transform="matrix(1,0,0,1,-55,1595) translate(42.492654320987654 31.52777777777778)"/><use xlink:href="#i" transform="matrix(1,0,0,1,-55,1595) translate(21.185185185185183 58.19444444444445)"/><use xlink:href="#j" transform="matrix(1,0,0,1,-55,1595) translate(26.90006172839507 84.86111111111111)"/><path d="M-206.22 1650c0 16.57-11.8 30-26.4 30-14.56 0-26.38-13.43-26.38-30s11.8-30 26.4-30c14.57 0 26.38 13.43 26.38 30z" stroke="#282c33" fill="#fff"/><use xlink:href="#k" transform="matrix(1,0,0,1,-254.00004999999362,1625) translate(9.77660493827163 33.77777777777771)"/><path d="M-63 1650.2h-129.5" stroke="#3a414a" stroke-width="4" fill="none"/><path d="M-61 1649.97l.12 2.2h-2.16v-3.96h2.23z" stroke="#3a414a" stroke-width=".05" fill="#3a414a"/><path d="M-201.8 1650.2l12.9-7.65v15.27z" stroke="#3a414a" stroke-width="4" fill="#3a414a"/><path d="M0 1836a6 6 0 0 1 6-6h68a6 6 0 0 1 6 6v715.34a6 6 0 0 1-6 6H6a6 6 0 0 1-6-6z" fill="none"/><path d="M0 2557.34c5.52 0 10-4.48 10-10v-343.67c0-5.52 4.48-10 10-10-5.52 0-10-4.47-10-10V1840c0-5.5-4.48-10-10-10" stroke="#282c33" stroke-width="4" fill="none"/><g><use xlink:href="#l" transform="matrix(1,0,0,1,35,1835.0108354906179) translate(0 365.66666666666663)"/></g><path d="M-312.6 1726a6 6 0 0 1 6-6h148a6 6 0 0 1 6 6v28a6 6 0 0 1-6 6h-148a6 6 0 0 1-6-6z" stroke="#282c33" stroke-width="2" fill="#fcfcca"/><g><use xlink:href="#m" transform="matrix(1,0,0,1,-300.60942156212917,1732) translate(39.04938271604939 17.77777777777778)"/></g><defs><path d="M76-208v77h127v40H76V0H24v-248h183v40H76" id="n"/><path d="M185-48c-13 30-37 53-82 52C43 2 14-33 14-96s30-98 90-98c62 0 83 45 84 108H66c0 31 8 55 39 56 18 0 30-7 34-22zm-45-69c5-46-57-63-70-21-2 6-4 13-4 21h74" id="o"/><path d="M88-194c31-1 46 15 58 34l-1-101h50l1 261h-48c-2-10 0-23-3-31C134-8 116 4 84 4 32 4 16-41 15-95c0-56 19-97 73-99zm17 164c33 0 40-30 41-66 1-37-9-64-41-64s-38 30-39 65c0 43 13 65 39 65" id="p"/><g id="a"><use transform="matrix(0.06172839506172839,0,0,0.06172839506172839,0,0)" xlink:href="#n"/><use transform="matrix(0.06172839506172839,0,0,0.06172839506172839,13.518518518518517,0)" xlink:href="#o"/><use transform="matrix(0.06172839506172839,0,0,0.06172839506172839,25.864197530864196,0)" xlink:href="#o"/><use transform="matrix(0.06172839506172839,0,0,0.06172839506172839,38.20987654320987,0)" xlink:href="#p"/></g><path d="M110-194c64 0 96 36 96 99 0 64-35 99-97 99-61 0-95-36-95-99 0-62 34-99 96-99zm-1 164c35 0 45-28 45-65 0-40-10-65-43-65-34 0-45 26-45 65 0 36 10 65 43 65" id="q"/><path d="M135-150c-39-12-60 13-60 57V0H25l-1-190h47c2 13-1 29 3 40 6-28 27-53 61-41v41" id="r"/><path d="M231 0h-52l-39-155L100 0H48L-1-190h46L77-45c9-52 24-97 36-145h53l37 145 32-145h46" id="s"/><path d="M133-34C117-15 103 5 69 4 32 3 11-16 11-54c-1-60 55-63 116-61 1-26-3-47-28-47-18 1-26 9-28 27l-52-2c7-38 36-58 82-57s74 22 75 68l1 82c-1 14 12 18 25 15v27c-30 8-71 5-69-32zm-48 3c29 0 43-24 42-57-32 0-66-3-65 30 0 17 8 27 23 27" id="t"/><g id="b"><use transform="matrix(0.06172839506172839,0,0,0.06172839506172839,0,0)" xlink:href="#n"/><use transform="matrix(0.06172839506172839,0,0,0.06172839506172839,13.518518518518517,0)" xlink:href="#q"/><use transform="matrix(0.06172839506172839,0,0,0.06172839506172839,27.037037037037035,0)" xlink:href="#r"/><use transform="matrix(0.06172839506172839,0,0,0.06172839506172839,35.67901234567901,0)" xlink:href="#s"/><use transform="matrix(0.06172839506172839,0,0,0.06172839506172839,52.96296296296296,0)" xlink:href="#t"/><use transform="matrix(0.06172839506172839,0,0,0.06172839506172839,65.30864197530865,0)" xlink:href="#r"/><use transform="matrix(0.06172839506172839,0,0,0.06172839506172839,73.95061728395062,0)" xlink:href="#p"/></g><path d="M199 0l-22-63H83L61 0H9l90-248h61L250 0h-51zm-33-102l-36-108c-10 38-24 72-36 108h72" id="u"/><g id="c"><use transform="matrix(0.06172839506172839,0,0,0.06172839506172839,0,0)" xlink:href="#u"/><use transform="matrix(0.06172839506172839,0,0,0.06172839506172839,15.987654320987653,0)" xlink:href="#p"/><use transform="matrix(0.06172839506172839,0,0,0.06172839506172839,29.50617283950617,0)" xlink:href="#p"/></g><path d="M24 0v-248h52v208h133V0H24" id="v"/><path d="M25-224v-37h50v37H25zM25 0v-190h50V0H25" id="w"/><path d="M135-194c87-1 58 113 63 194h-50c-7-57 23-157-34-157-59 0-34 97-39 157H25l-1-190h47c2 12-1 28 3 38 12-26 28-41 61-42" id="x"/><g id="d"><use transform="matrix(0.06172839506172839,0,0,0.06172839506172839,0,0)" xlink:href="#v"/><use transform="matrix(0.06172839506172839,0,0,0.06172839506172839,13.518518518518517,0)" xlink:href="#w"/><use transform="matrix(0.06172839506172839,0,0,0.06172839506172839,19.691358024691358,0)" xlink:href="#x"/><use transform="matrix(0.06172839506172839,0,0,0.06172839506172839,33.20987654320987,0)" xlink:href="#o"/><use transform="matrix(0.06172839506172839,0,0,0.06172839506172839,45.55555555555555,0)" xlink:href="#t"/><use transform="matrix(0.06172839506172839,0,0,0.06172839506172839,57.90123456790123,0)" xlink:href="#r"/></g><path d="M169-182c-1-43-94-46-97-3 18 66 151 10 154 114 3 95-165 93-204 36-6-8-10-19-12-30l50-8c3 46 112 56 116 5-17-69-150-10-154-114-4-87 153-88 188-35 5 8 8 18 10 28" id="y"/><path d="M121-226c-27-7-43 5-38 36h38v33H83V0H34v-157H6v-33h28c-9-59 32-81 87-68v32" id="z"/><path d="M115-3C79 11 28 4 28-45v-112H4v-33h27l15-45h31v45h36v33H77v99c-1 23 16 31 38 25v30" id="A"/><path d="M220-157c-53 9-28 100-34 157h-49v-107c1-27-5-49-29-50C55-147 81-57 75 0H25l-1-190h47c2 12-1 28 3 38 10-53 101-56 108 0 13-22 24-43 59-42 82 1 51 116 57 194h-49v-107c-1-25-5-48-29-50" id="B"/><path d="M144 0l-44-69L55 0H2l70-98-66-92h53l41 62 40-62h54l-67 91 71 99h-54" id="C"/><g id="e"><use transform="matrix(0.06172839506172839,0,0,0.06172839506172839,0,0)" xlink:href="#y"/><use transform="matrix(0.06172839506172839,0,0,0.06172839506172839,14.814814814814813,0)" xlink:href="#q"/><use transform="matrix(0.06172839506172839,0,0,0.06172839506172839,28.33333333333333,0)" xlink:href="#z"/><use transform="matrix(0.06172839506172839,0,0,0.06172839506172839,35.679012345679006,0)" xlink:href="#A"/><use transform="matrix(0.06172839506172839,0,0,0.06172839506172839,43.02469135802468,0)" xlink:href="#B"/><use transform="matrix(0.06172839506172839,0,0,0.06172839506172839,62.77777777777777,0)" xlink:href="#t"/><use transform="matrix(0.06172839506172839,0,0,0.06172839506172839,75.12345679012346,0)" xlink:href="#C"/></g><path d="M140-251c80 0 125 45 125 126S219 4 139 4C58 4 15-44 15-125s44-126 125-126zm-1 214c52 0 73-35 73-88 0-50-21-86-72-86-52 0-73 35-73 86s22 88 72 88" id="D"/><path d="M85 4C-2 5 27-109 22-190h50c7 57-23 150 33 157 60-5 35-97 40-157h50l1 190h-47c-2-12 1-28-3-38-12 25-28 42-61 42" id="E"/><path d="M135-194c53 0 70 44 70 98 0 56-19 98-73 100-31 1-45-17-59-34 3 33 2 69 2 105H25l-1-265h48c2 10 0 23 3 31 11-24 29-35 60-35zM114-30c33 0 39-31 40-66 0-38-9-64-40-64-56 0-55 130 0 130" id="F"/><g id="f"><use transform="matrix(0.06172839506172839,0,0,0.06172839506172839,0,0)" xlink:href="#D"/><use transform="matrix(0.06172839506172839,0,0,0.06172839506172839,17.28395061728395,0)" xlink:href="#E"/><use transform="matrix(0.06172839506172839,0,0,0.06172839506172839,30.80246913580247,0)" xlink:href="#A"/><use transform="matrix(0.06172839506172839,0,0,0.06172839506172839,38.148148148148145,0)" xlink:href="#F"/><use transform="matrix(0.06172839506172839,0,0,0.06172839506172839,51.666666666666664,0)" xlink:href="#E"/><use transform="matrix(0.06172839506172839,0,0,0.06172839506172839,65.18518518518518,0)" xlink:href="#A"/></g><path d="M135-194c52 0 70 43 70 98 0 56-19 99-73 100-30 1-46-15-58-35L72 0H24l1-261h50v104c11-23 29-37 60-37zM114-30c31 0 40-27 40-66 0-37-7-63-39-63s-41 28-41 65c0 36 8 64 40 64" id="G"/><path d="M25 0v-261h50V0H25" id="H"/><path d="M137-138c1-29-70-34-71-4 15 46 118 7 119 86 1 83-164 76-172 9l43-7c4 19 20 25 44 25 33 8 57-30 24-41C81-84 22-81 20-136c-2-80 154-74 161-7" id="I"/><g id="g"><use transform="matrix(0.06172839506172839,0,0,0.06172839506172839,0,0)" xlink:href="#F"/><use transform="matrix(0.06172839506172839,0,0,0.06172839506172839,13.518518518518517,0)" xlink:href="#r"/><use transform="matrix(0.06172839506172839,0,0,0.06172839506172839,22.160493827160494,0)" xlink:href="#q"/><use transform="matrix(0.06172839506172839,0,0,0.06172839506172839,35.67901234567901,0)" xlink:href="#G"/><use transform="matrix(0.06172839506172839,0,0,0.06172839506172839,49.19753086419753,0)" xlink:href="#t"/><use transform="matrix(0.06172839506172839,0,0,0.06172839506172839,61.54320987654321,0)" xlink:href="#G"/><use transform="matrix(0.06172839506172839,0,0,0.06172839506172839,75.06172839506172,0)" xlink:href="#w"/><use transform="matrix(0.06172839506172839,0,0,0.06172839506172839,81.23456790123456,0)" xlink:href="#H"/><use transform="matrix(0.06172839506172839,0,0,0.06172839506172839,87.40740740740739,0)" xlink:href="#w"/><use transform="matrix(0.06172839506172839,0,0,0.06172839506172839,93.58024691358023,0)" xlink:href="#A"/><use transform="matrix(0.06172839506172839,0,0,0.06172839506172839,100.92592592592591,0)" xlink:href="#w"/><use transform="matrix(0.06172839506172839,0,0,0.06172839506172839,107.09876543209874,0)" xlink:href="#o"/><use transform="matrix(0.06172839506172839,0,0,0.06172839506172839,119.44444444444443,0)" xlink:href="#I"/></g><path d="M175 0L67-191c6 58 2 128 3 191H24v-248h59L193-55c-6-58-2-129-3-193h46V0h-61" id="J"/><g id="h"><use transform="matrix(0.06172839506172839,0,0,0.06172839506172839,0,0)" xlink:href="#J"/><use transform="matrix(0.06172839506172839,0,0,0.06172839506172839,15.987654320987653,0)" xlink:href="#o"/><use transform="matrix(0.06172839506172839,0,0,0.06172839506172839,28.333333333333332,0)" xlink:href="#C"/><use transform="matrix(0.06172839506172839,0,0,0.06172839506172839,40.67901234567901,0)" xlink:href="#A"/></g><g id="i"><use transform="matrix(0.06172839506172839,0,0,0.06172839506172839,0,0)" xlink:href="#F"/><use transform="matrix(0.06172839506172839,0,0,0.06172839506172839,13.518518518518517,0)" xlink:href="#q"/><use transform="matrix(0.06172839506172839,0,0,0.06172839506172839,27.037037037037035,0)" xlink:href="#I"/><use transform="matrix(0.06172839506172839,0,0,0.06172839506172839,39.382716049382715,0)" xlink:href="#w"/><use transform="matrix(0.06172839506172839,0,0,0.06172839506172839,45.55555555555556,0)" xlink:href="#A"/><use transform="matrix(0.06172839506172839,0,0,0.06172839506172839,52.901234567901234,0)" xlink:href="#w"/><use transform="matrix(0.06172839506172839,0,0,0.06172839506172839,59.074074074074076,0)" xlink:href="#q"/><use transform="matrix(0.06172839506172839,0,0,0.06172839506172839,72.5925925925926,0)" xlink:href="#x"/><use transform="matrix(0.06172839506172839,0,0,0.06172839506172839,86.11111111111111,0)" xlink:href="#t"/><use transform="matrix(0.06172839506172839,0,0,0.06172839506172839,98.4567901234568,0)" xlink:href="#H"/></g><path d="M195-6C206 82 75 100 31 46c-4-6-6-13-8-21l49-6c3 16 16 24 34 25 40 0 42-37 40-79-11 22-30 35-61 35-53 0-70-43-70-97 0-56 18-96 73-97 30 0 46 14 59 34l2-30h47zm-90-29c32 0 41-27 41-63 0-35-9-62-40-62-32 0-39 29-40 63 0 36 9 62 39 62" id="K"/><g id="j"><use transform="matrix(0.06172839506172839,0,0,0.06172839506172839,0,0)" xlink:href="#o"/><use transform="matrix(0.06172839506172839,0,0,0.06172839506172839,12.345679012345679,0)" xlink:href="#B"/><use transform="matrix(0.06172839506172839,0,0,0.06172839506172839,32.098765432098766,0)" xlink:href="#G"/><use transform="matrix(0.06172839506172839,0,0,0.06172839506172839,45.617283950617285,0)" xlink:href="#o"/><use transform="matrix(0.06172839506172839,0,0,0.06172839506172839,57.96296296296296,0)" xlink:href="#p"/><use transform="matrix(0.06172839506172839,0,0,0.06172839506172839,71.48148148148148,0)" xlink:href="#p"/><use transform="matrix(0.06172839506172839,0,0,0.06172839506172839,85,0)" xlink:href="#w"/><use transform="matrix(0.06172839506172839,0,0,0.06172839506172839,91.17283950617283,0)" xlink:href="#x"/><use transform="matrix(0.06172839506172839,0,0,0.06172839506172839,104.69135802469135,0)" xlink:href="#K"/></g><path d="M11-79v-35h178v35H11" id="L"/><use transform="matrix(0.11728395061728371,0,0,0.11728395061728371,0,0)" xlink:href="#L" id="k"/><path d="M24-248c120-7 223 5 221 122C244-46 201 0 124 0H24v-248zM76-40c74 7 117-18 117-86 0-67-45-88-117-82v168" id="M"/><path d="M190-63c-7 42-38 67-86 67-59 0-84-38-90-98-12-110 154-137 174-36l-49 2c-2-19-15-32-35-32-30 0-35 28-38 64-6 74 65 87 74 30" id="N"/><g id="l"><use transform="matrix(0.09259259259259256,0,0,0.09259259259259256,0,0)" xlink:href="#M"/><use transform="matrix(0.09259259259259256,0,0,0.09259259259259256,23.981481481481474,0)" xlink:href="#o"/><use transform="matrix(0.09259259259259256,0,0,0.09259259259259256,42.499999999999986,0)" xlink:href="#N"/><use transform="matrix(0.09259259259259256,0,0,0.09259259259259256,61.0185185185185,0)" xlink:href="#q"/><use transform="matrix(0.09259259259259256,0,0,0.09259259259259256,81.29629629629628,0)" xlink:href="#p"/><use transform="matrix(0.09259259259259256,0,0,0.09259259259259256,101.57407407407403,0)" xlink:href="#o"/><use transform="matrix(0.09259259259259256,0,0,0.09259259259259256,120.09259259259255,0)" xlink:href="#r"/></g><g id="m"><use transform="matrix(0.06172839506172839,0,0,0.06172839506172839,0,0)" xlink:href="#J"/><use transform="matrix(0.06172839506172839,0,0,0.06172839506172839,15.987654320987653,0)" xlink:href="#q"/><use transform="matrix(0.06172839506172839,0,0,0.06172839506172839,29.50617283950617,0)" xlink:href="#r"/><use transform="matrix(0.06172839506172839,0,0,0.06172839506172839,38.148148148148145,0)" xlink:href="#B"/></g></defs></g></svg>