<svg xmlns="http://www.w3.org/2000/svg" xmlns:xlink="http://www.w3.org/1999/xlink" xmlns:lucid="lucid" width="15272" height="2840"><g transform="translate(3000 -8796)" lucid:page-tab-id="0_0"><path d="M-1580 11120h257.86v320H-1580z" fill="#fff" fill-opacity="0"/><path d="M-1333.82 11393.78h-102.42v-5.75h5.75c20.13 0 25.88-7.55 25.88-21.92 0-2.15-.36-5.02-.72-7.54l-4.67-40.6h-71.17l-30.2 50.3c-2.5 2.88-3.58 6.83-3.58 9.35.36 6.48 6.1 10.43 15.45 10.43h10.42v5.75h-78.34v-5.75c12.58-1.44 25.88-5.75 38.8-26.6l127.95-207.36h6.47l28.04 208.8c2.5 17.6 11.5 25.16 26.6 25.16h5.74v5.75m-78.7-89.13l-9-81.58h-2.15l-49.95 81.58h61.1"/><path d="M2580 9407.25h360v333.9h-360zM2940 9407.25h360v333.9h-360zM3300 9407.25h360v333.9h-360zM3660 9407.25h360v333.9h-360zM4020 9407.25h360v333.9h-360z" fill="#fff"/><path d="M2580 9741.14h360v333.9h-360zM2940 9741.14h360v333.9h-360zM3300 9741.14h360v333.9h-360zM3660 9741.14h360v333.9h-360zM4020 9741.14h360v333.9h-360z" fill="#fff"/><path d="M2580 10075.03h360v333.9h-360zM2940 10075.03h360v333.9h-360zM3300 10075.03h360v333.9h-360zM3660 10075.03h360v333.9h-360zM4020 10075.03h360v333.9h-360z" fill="#fff"/><path d="M2580 10408.92h360v333.9h-360zM2940 10408.92h360v333.9h-360zM3300 10408.92h360v333.9h-360zM3660 10408.92h360v333.9h-360zM4020 10408.92h360v333.9h-360z" fill="#fff"/><path d="M2580 10742.8h360v333.9h-360zM2940 10742.8h360v333.9h-360zM3300 10742.8h360v333.9h-360zM3660 10742.8h360v333.9h-360zM4020 10742.8h360v333.9h-360z" fill="#fff"/><path d="M2580 9407.25v333.9M2580 9407.25h360M2940 9407.25v333.9" stroke="#282c33" stroke-width="10" fill="none"/><path d="M2940 9407.25h360M3300 9407.25v333.9M3300 9407.25h360M3660 9407.25v333.9M3660 9407.25h360M4020 9407.25v333.9M4380 9407.25v333.9M4020 9407.25h360" fill="none"/><path d="M2580 9741.14v333.9" stroke="#282c33" stroke-width="9" fill="none"/><path d="M2580 9741.14h360M2940 9741.14v333.9M2940 9741.14h360M3300 9741.14v333.9" stroke="#282c33" stroke-width="10" fill="none"/><path d="M3300 9741.14h360M3660 9741.14v333.9M3660 9741.14h360M4020 9741.14v333.9M4380 9741.14v333.9M4020 9741.14h360" fill="none"/><path d="M2580 10075.03v333.9M2580 10075.03h360M2940 10075.03v333.9" stroke="#282c33" stroke-width="9" fill="none"/><path d="M2940 10075.03h360M3300 10075.03v333.9M3300 10075.03h360M3660 10075.03v333.9" stroke="#282c33" stroke-width="10" fill="none"/><path d="M3660 10075.03h360M4020 10075.03v333.9M4380 10075.03v333.9M4020 10075.03h360" fill="none"/><path d="M2580 10408.92v333.9M2580 10408.92h360M2940 10408.92v333.9M2940 10408.92h360M3300 10408.92v333.9" stroke="#282c33" stroke-width="9" fill="none"/><path d="M3300 10408.92h360M3660 10408.92v333.9M3660 10408.92h360M4020 10408.92v333.9" stroke="#282c33" stroke-width="10" fill="none"/><path d="M4380 10408.92v333.9M4020 10408.92h360" fill="none"/><path d="M2580 10742.8v333.9M2580 10742.8h360M2580 11076.7h360M2940 10742.8v333.9M2940 10742.8h360M2940 11076.7h360M3300 10742.8v333.9M3300 10742.8h360M3300 11076.7h360M3660 10742.8v333.9" stroke="#282c33" stroke-width="9" fill="none"/><path d="M3660 10742.8h360" stroke="#282c33" stroke-width="10" fill="none"/><path d="M3660 11076.7h360" stroke="#282c33" stroke-width="9" fill="none"/><path d="M4020 10742.8v333.9M4380 10742.8v333.9M4020 10742.8h360M4020 11076.7h360" stroke="#282c33" stroke-width="10" fill="none"/><use xlink:href="#a" transform="matrix(1,0,0,1,2585,9412.249491510162) translate(105.86419753086432 176.2222222222222)"/><use xlink:href="#b" transform="matrix(1,0,0,1,2585,9746.139728859967) translate(105.86419753086432 176.2222222222222)"/><use xlink:href="#c" transform="matrix(1,0,0,1,2945,9746.139728859967) translate(113.86419753086429 176.2222222222222)"/><use xlink:href="#d" transform="matrix(1,0,0,1,2585,10080.029966209773) translate(94.11111111111124 176.2222222222222)"/><use xlink:href="#e" transform="matrix(1,0,0,1,2945,10080.029966209773) translate(105.86419753086432 176.2222222222222)"/><use xlink:href="#f" transform="matrix(1,0,0,1,3305,10080.029966209773) translate(105.86419753086432 176.2222222222222)"/><use xlink:href="#g" transform="matrix(1,0,0,1,2585,10413.920203559579) translate(105.86419753086432 176.2222222222222)"/><use xlink:href="#h" transform="matrix(1,0,0,1,2945,10413.920203559579) translate(105.86419753086432 176.2222222222222)"/><use xlink:href="#i" transform="matrix(1,0,0,1,3305,10413.920203559579) translate(94.11111111111124 176.2222222222222)"/><use xlink:href="#j" transform="matrix(1,0,0,1,3665,10413.920203559579) translate(105.86419753086432 176.2222222222222)"/><use xlink:href="#k" transform="matrix(1,0,0,1,2585,10747.810440909387) translate(105.86419753086432 176.2222222222222)"/><use xlink:href="#l" transform="matrix(1,0,0,1,2945,10747.810440909387) translate(105.86419753086432 176.2222222222222)"/><use xlink:href="#m" transform="matrix(1,0,0,1,3305,10747.810440909387) translate(105.86419753086432 176.2222222222222)"/><use xlink:href="#n" transform="matrix(1,0,0,1,3665,10747.810440909387) translate(94.11111111111124 176.2222222222222)"/><use xlink:href="#o" transform="matrix(1,0,0,1,4025,10747.810440909387) translate(105.86419753086432 176.2222222222222)"/><path d="M2580 8837.6h1800v340H2580z" fill="#fff"/><path d="M2580 8837.6v340M4380 8837.6v340M2580 8837.6h1800M2580 9177.6h1800" fill="none"/><use xlink:href="#p" transform="matrix(1,0,0,1,2585,8842.602446432078) translate(783.6481481481484 183.66666666666663)"/><path d="M1980 9407.25h363v1671.85h-363z" fill="#fff"/><path d="M1980 9407.25v1671.85M2343 9407.25v1671.85M1980 9407.25h363M1980 11079.1h363" fill="none"/><use xlink:href="#q" transform="matrix(-1.8369701987210297e-16,-1,1,-1.8369701987210297e-16,1985,11074.098231827113) translate(657.4259259259263 195.16666666666663)"/><path d="M2580 9057.6h380.96v340H2580zM2960.96 9057.6h354.76v340h-354.76z" fill="#fff"/><path d="M3315.72 9057.6h354.76v340h-354.76zM3670.48 9057.6h354.76v340h-354.76zM4025.24 9057.6H4380v340h-354.76z" fill="#fff"/><path d="M2580 9057.6v340M2580 9057.6h380.96M2580 9397.6h380.96M2960.96 9057.6h354.76M2960.96 9397.6h354.76M3315.72 9057.6h354.76M3315.72 9397.6h354.76M3670.48 9057.6h354.76M3670.48 9397.6h354.76M4380 9057.6v340M4025.24 9057.6H4380M4025.24 9397.6H4380" fill="none"/><use xlink:href="#r" transform="matrix(1,0,0,1,2585,9062.602446432078) translate(144.11728395061735 179.2222222222222)"/><use xlink:href="#s" transform="matrix(1,0,0,1,2965.963045912654,9062.602446432078) translate(131.11728395061735 179.2222222222222)"/><use xlink:href="#t" transform="matrix(1,0,0,1,3320.7222844344906,9062.602446432078) translate(131.11728395061735 179.2222222222222)"/><use xlink:href="#u" transform="matrix(1,0,0,1,3675.481522956327,9062.602446432078) translate(131.11728395061735 179.2222222222222)"/><use xlink:href="#v" transform="matrix(1,0,0,1,4030.240761478163,9062.602446432078) translate(131.11728395061735 179.2222222222222)"/><path d="M2200 9407.25h363v341.5h-363zM2200 9748.75h363v344h-363zM2200 10092.75h363v331.46h-363z" fill="#fff"/><path d="M2200 10424.2h363v341.52h-363z" fill="#fff"/><path d="M2200 10765.72h363v313.38h-363z" fill="#fff"/><path d="M2200 9407.25v341.5M2563 9407.25v341.5M2200 9407.25h363M2200 9748.75v344M2563 9748.75v344M2200 10092.75v331.46M2563 10092.75v331.46M2200 10424.2v341.52M2563 10424.2v341.52M2200 10765.72v313.38M2563 10765.72v313.38M2200 11079.1h363" fill="none"/><use xlink:href="#r" transform="matrix(1,0,0,1,2205,9412.24949151016) translate(135.11728395061735 180.2222222222222)"/><use xlink:href="#s" transform="matrix(1,0,0,1,2205,9753.753706115125) translate(135.11728395061735 181.2222222222222)"/><use xlink:href="#t" transform="matrix(1,0,0,1,2205,10097.753706115125) translate(135.11728395061735 175.2222222222222)"/><use xlink:href="#u" transform="matrix(1,0,0,1,2205,10429.213679114062) translate(135.11728395061735 180.2222222222222)"/><use xlink:href="#v" transform="matrix(1,0,0,1,2205,10770.717893719027) translate(135.11728395061735 166.2222222222222)"/><path d="M117.08 9409.65h360v333.9h-360z" fill="#fff"/><path d="M477.08 9409.65h360v333.9h-360zM837.1 9409.65h360v333.9h-360zM1197.1 9409.65h360v333.9h-360zM1557.1 9409.65h360v333.9h-360z" fill="#fe7070"/><path d="M117.08 9743.54h360v333.9h-360z" fill="#fff"/><path d="M477.08 9743.54h360v333.9h-360z" fill="#fff"/><path d="M837.1 9743.54h360v333.9h-360zM1197.1 9743.54h360v333.9h-360zM1557.1 9743.54h360v333.9h-360z" fill="#fe7070"/><path d="M117.08 10077.43h360v333.9h-360z" fill="#fff"/><path d="M477.08 10077.43h360v333.9h-360zM837.1 10077.43h360v333.9h-360z" fill="#fff"/><path d="M1197.1 10077.43h360v333.9h-360zM1557.1 10077.43h360v333.9h-360z" fill="#fe7070"/><path d="M117.08 10411.32h360v333.9h-360z" fill="#fff"/><path d="M477.08 10411.32h360v333.9h-360zM837.1 10411.32h360v333.9h-360zM1197.1 10411.32h360v333.9h-360z" fill="#fff"/><path d="M1557.1 10411.32h360v333.9h-360z" fill="#fe7070"/><path d="M117.08 10745.2h360v333.9h-360z" fill="#fff"/><path d="M477.08 10745.2h360v333.9h-360zM837.1 10745.2h360v333.9h-360zM1197.1 10745.2h360v333.9h-360zM1557.1 10745.2h360v333.9h-360z" fill="#fff"/><path d="M117.08 9409.65v333.9M117.08 9409.65h360M477.08 9409.65v333.9M477.08 9409.65h360M837.1 9409.65v333.9M837.1 9409.65h360M1197.1 9409.65v333.9M1197.1 9409.65h360M1557.1 9409.65v333.9M1917.1 9409.65v333.9M1557.1 9409.65h360M117.08 9743.54v333.9M117.08 9743.54h360M477.08 9743.54v333.9M477.08 9743.54h360M837.1 9743.54v333.9M837.1 9743.54h360M1197.1 9743.54v333.9M1197.1 9743.54h360M1557.1 9743.54v333.9M1917.1 9743.54v333.9M1557.1 9743.54h360M117.08 10077.43v333.9M117.08 10077.43h360M477.08 10077.43v333.9M477.08 10077.43h360M837.1 10077.43v333.9M837.1 10077.43h360M1197.1 10077.43v333.9M1197.1 10077.43h360M1557.1 10077.43v333.9M1917.1 10077.43v333.9M1557.1 10077.43h360M117.08 10411.32v333.9M117.08 10411.32h360M477.08 10411.32v333.9M477.08 10411.32h360M837.1 10411.32v333.9M837.1 10411.32h360M1197.1 10411.32v333.9M1197.1 10411.32h360M1557.1 10411.32v333.9M1917.1 10411.32v333.9M1557.1 10411.32h360M117.08 10745.2v333.9M117.08 10745.2h360M117.08 11079.1h360M477.08 10745.2v333.9M477.08 10745.2h360M477.08 11079.1h360M837.1 10745.2v333.9M837.1 10745.2h360M837.1 11079.1h360M1197.1 10745.2v333.9M1197.1 10745.2h360M1197.1 11079.1h360M1557.1 10745.2v333.9M1917.1 10745.2v333.9M1557.1 10745.2h360M1557.1 11079.1h360" stroke="#282c33" stroke-width="9" fill="none"/><use xlink:href="#a" transform="matrix(1,0,0,1,122.08508783073376,9414.647045078082) translate(105.86419753086432 176.2222222222222)"/><use xlink:href="#w" transform="matrix(1,0,0,1,482.08508783073376,9414.647045078082) translate(119.98765432098774 176.2222222222222)"/><use xlink:href="#w" transform="matrix(1,0,0,1,842.0850878307338,9414.647045078082) translate(119.98765432098774 176.2222222222222)"/><use xlink:href="#w" transform="matrix(1,0,0,1,1202.0850878307338,9414.647045078082) translate(119.98765432098774 176.2222222222222)"/><use xlink:href="#w" transform="matrix(1,0,0,1,1562.0850878307338,9414.647045078082) translate(119.98765432098774 176.2222222222222)"/><use xlink:href="#b" transform="matrix(1,0,0,1,122.08508783073376,9748.537282427887) translate(105.86419753086432 176.2222222222222)"/><use xlink:href="#c" transform="matrix(1,0,0,1,482.08508783073376,9748.537282427887) translate(113.86419753086429 176.2222222222222)"/><use xlink:href="#w" transform="matrix(1,0,0,1,842.0850878307338,9748.537282427887) translate(119.98765432098774 176.2222222222222)"/><use xlink:href="#w" transform="matrix(1,0,0,1,1202.0850878307338,9748.537282427887) translate(119.98765432098774 176.2222222222222)"/><use xlink:href="#w" transform="matrix(1,0,0,1,1562.0850878307338,9748.537282427887) translate(119.98765432098774 176.2222222222222)"/><use xlink:href="#d" transform="matrix(1,0,0,1,122.08508783073376,10082.427519777693) translate(94.11111111111124 176.2222222222222)"/><use xlink:href="#e" transform="matrix(1,0,0,1,482.08508783073376,10082.427519777693) translate(105.86419753086432 176.2222222222222)"/><use xlink:href="#f" transform="matrix(1,0,0,1,842.0850878307338,10082.427519777693) translate(105.86419753086432 176.2222222222222)"/><use xlink:href="#w" transform="matrix(1,0,0,1,1202.0850878307338,10082.427519777693) translate(119.98765432098774 176.2222222222222)"/><use xlink:href="#w" transform="matrix(1,0,0,1,1562.0850878307338,10082.427519777693) translate(119.98765432098774 176.2222222222222)"/><use xlink:href="#g" transform="matrix(1,0,0,1,122.08508783073376,10416.3177571275) translate(105.86419753086432 176.2222222222222)"/><use xlink:href="#h" transform="matrix(1,0,0,1,482.08508783073376,10416.3177571275) translate(105.86419753086432 176.2222222222222)"/><use xlink:href="#i" transform="matrix(1,0,0,1,842.0850878307338,10416.3177571275) translate(94.11111111111124 176.2222222222222)"/><use xlink:href="#j" transform="matrix(1,0,0,1,1202.0850878307338,10416.3177571275) translate(105.86419753086432 176.2222222222222)"/><use xlink:href="#w" transform="matrix(1,0,0,1,1562.0850878307338,10416.3177571275) translate(119.98765432098774 176.2222222222222)"/><use xlink:href="#k" transform="matrix(1,0,0,1,122.08508783073376,10750.207994477307) translate(105.86419753086432 176.2222222222222)"/><use xlink:href="#l" transform="matrix(1,0,0,1,482.08508783073376,10750.207994477307) translate(105.86419753086432 176.2222222222222)"/><use xlink:href="#m" transform="matrix(1,0,0,1,842.0850878307338,10750.207994477307) translate(105.86419753086432 176.2222222222222)"/><use xlink:href="#n" transform="matrix(1,0,0,1,1202.0850878307338,10750.207994477307) translate(94.11111111111124 176.2222222222222)"/><use xlink:href="#o" transform="matrix(1,0,0,1,1562.0850878307338,10750.207994477307) translate(105.86419753086432 176.2222222222222)"/><path d="M117.08 8840h1800v340h-1800z" fill="#fff"/><path d="M117.08 8840v340M1917.1 8840v340M117.08 8840h1800M117.08 9180h1800" fill="none"/><use xlink:href="#p" transform="matrix(1,0,0,1,122.08508783073376,8845) translate(783.6481481481484 183.66666666666663)"/><path d="M-482.92 9409.65h363v1671.85h-363z" fill="#fff"/><path d="M-482.92 9409.65v1671.85M-119.92 9409.65v1671.85M-482.92 9409.65h363M-482.92 11081.5h363" fill="none"/><use xlink:href="#q" transform="matrix(-1.8369701987210297e-16,-1,1,-1.8369701987210297e-16,-477.91491216926624,11076.495785395035) translate(657.4259259259263 195.16666666666663)"/><path d="M117.08 9060h380.97v340H117.08zM498.05 9060H852.8v340H498.06zM852.8 9060h354.77v340H852.8zM1207.57 9060h354.76v340h-354.76z" fill="#fff"/><path d="M1562.33 9060h354.76v340h-354.77z" fill="#fff"/><path d="M117.08 9060v340M117.08 9060h380.97M117.08 9400h380.97M498.05 9060H852.8M498.05 9400H852.8M852.8 9060h354.77M852.8 9400h354.77M1207.57 9060h354.76M1207.57 9400h354.76M1917.1 9060v340M1562.33 9060h354.76M1562.33 9400h354.76" fill="none"/><use xlink:href="#r" transform="matrix(1,0,0,1,122.08508783073376,9065) translate(144.11728395061735 179.2222222222222)"/><use xlink:href="#s" transform="matrix(1,0,0,1,503.0481337433877,9065) translate(131.11728395061735 179.2222222222222)"/><use xlink:href="#t" transform="matrix(1,0,0,1,857.8073722652242,9065) translate(131.11728395061735 179.2222222222222)"/><use xlink:href="#u" transform="matrix(1,0,0,1,1212.5666107870607,9065) translate(131.11728395061735 179.2222222222222)"/><use xlink:href="#v" transform="matrix(1,0,0,1,1567.3258493088972,9065) translate(131.11728395061735 179.2222222222222)"/><path d="M-262.92 9409.65h363v341.5h-363zM-262.92 9751.15h363v344h-363zM-262.92 10095.15h363v331.46h-363z" fill="#fff"/><path d="M-262.92 10426.6h363v341.5h-363zM-262.92 10768.1h363v313.4h-363z" fill="#fff"/><path d="M-262.92 9409.65v341.5M100.08 9409.65v341.5M-262.92 9409.65h363M-262.92 9751.15v344M100.08 9751.15v344M-262.92 10095.15v331.46M100.08 10095.15v331.46M-262.92 10426.6v341.5M100.08 10426.6v341.5M-262.92 10768.1v313.4M100.08 10768.1v313.4M-262.92 11081.5h363" fill="none"/><use xlink:href="#r" transform="matrix(1,0,0,1,-257.91491216926624,9414.647045078082) translate(135.11728395061735 180.2222222222222)"/><use xlink:href="#s" transform="matrix(1,0,0,1,-257.91491216926624,9756.151259683047) translate(135.11728395061735 181.2222222222222)"/><use xlink:href="#t" transform="matrix(1,0,0,1,-257.91491216926624,10100.151259683047) translate(135.11728395061735 175.2222222222222)"/><use xlink:href="#u" transform="matrix(1,0,0,1,-257.91491216926624,10431.611232681984) translate(135.11728395061735 180.2222222222222)"/><use xlink:href="#v" transform="matrix(1,0,0,1,-257.91491216926624,10773.11544728695) translate(135.11728395061735 166.2222222222222)"/><path d="M-2340 9409.65h360v333.9h-360zM-1980 9409.65h360v333.9h-360zM-1620 9409.65h360v333.9h-360zM-1260 9409.65h360v333.9h-360zM-900 9409.65h360v333.9h-360z" fill="#fff"/><path d="M-2340 9743.54h360v333.9h-360zM-1980 9743.54h360v333.9h-360zM-1620 9743.54h360v333.9h-360zM-1260 9743.54h360v333.9h-360zM-900 9743.54h360v333.9h-360z" fill="#fff"/><path d="M-2340 10077.43h360v333.9h-360zM-1980 10077.43h360v333.9h-360zM-1620 10077.43h360v333.9h-360zM-1260 10077.43h360v333.9h-360zM-900 10077.43h360v333.9h-360z" fill="#fff"/><path d="M-2340 10411.32h360v333.9h-360zM-1980 10411.32h360v333.9h-360zM-1620 10411.32h360v333.9h-360zM-1260 10411.32h360v333.9h-360zM-900 10411.32h360v333.9h-360z" fill="#fff"/><path d="M-2340 10745.2h360v333.9h-360zM-1980 10745.2h360v333.9h-360zM-1620 10745.2h360v333.9h-360zM-1260 10745.2h360v333.9h-360zM-900 10745.2h360v333.9h-360z" fill="#fff"/><path d="M-2340 9409.65v333.9M-2340 9409.65h360M-1980 9409.65v333.9M-1980 9409.65h360M-1620 9409.65v333.9M-1620 9409.65h360M-1260 9409.65v333.9M-1260 9409.65h360M-900 9409.65v333.9M-540 9409.65v333.9M-900 9409.65h360M-2340 9743.54v333.9M-2340 9743.54h360M-1980 9743.54v333.9M-1980 9743.54h360M-1620 9743.54v333.9M-1620 9743.54h360M-1260 9743.54v333.9M-1260 9743.54h360M-900 9743.54v333.9M-540 9743.54v333.9M-900 9743.54h360M-2340 10077.43v333.9M-2340 10077.43h360M-1980 10077.43v333.9M-1980 10077.43h360M-1620 10077.43v333.9M-1620 10077.43h360M-1260 10077.43v333.9M-1260 10077.43h360M-900 10077.43v333.9M-540 10077.43v333.9M-900 10077.43h360M-2340 10411.32v333.9M-2340 10411.32h360M-1980 10411.32v333.9M-1980 10411.32h360M-1620 10411.32v333.9M-1620 10411.32h360M-1260 10411.32v333.9M-1260 10411.32h360M-900 10411.32v333.9M-540 10411.32v333.9M-900 10411.32h360M-2340 10745.2v333.9M-2340 10745.2h360M-2340 11079.1h360M-1980 10745.2v333.9M-1980 10745.2h360M-1980 11079.1h360M-1620 10745.2v333.9M-1620 10745.2h360M-1620 11079.1h360M-1260 10745.2v333.9M-1260 10745.2h360M-1260 11079.1h360M-900 10745.2v333.9M-540 10745.2v333.9M-900 10745.2h360M-900 11079.1h360" stroke="#282c33" stroke-width="9" fill="none"/><use xlink:href="#a" transform="matrix(1,0,0,1,-2335,9414.647045078083) translate(105.86419753086432 176.2222222222222)"/><use xlink:href="#x" transform="matrix(1,0,0,1,-1975,9414.647045078083) translate(94.11111111111124 176.2222222222222)"/><use xlink:href="#y" transform="matrix(1,0,0,1,-1615,9414.647045078083) translate(105.86419753086432 176.2222222222222)"/><use xlink:href="#z" transform="matrix(1,0,0,1,-1255,9414.647045078083) translate(94.11111111111124 176.2222222222222)"/><use xlink:href="#A" transform="matrix(1,0,0,1,-895,9414.647045078083) translate(105.86419753086432 176.2222222222222)"/><use xlink:href="#b" transform="matrix(1,0,0,1,-2335,9748.53728242789) translate(105.86419753086432 176.2222222222222)"/><use xlink:href="#c" transform="matrix(1,0,0,1,-1975,9748.53728242789) translate(113.86419753086429 176.2222222222222)"/><use xlink:href="#B" transform="matrix(1,0,0,1,-1615,9748.53728242789) translate(94.11111111111124 176.2222222222222)"/><use xlink:href="#a" transform="matrix(1,0,0,1,-1255,9748.53728242789) translate(105.86419753086432 176.2222222222222)"/><use xlink:href="#C" transform="matrix(1,0,0,1,-895,9748.53728242789) translate(105.86419753086432 176.2222222222222)"/><use xlink:href="#d" transform="matrix(1,0,0,1,-2335,10082.427519777695) translate(94.11111111111124 176.2222222222222)"/><use xlink:href="#e" transform="matrix(1,0,0,1,-1975,10082.427519777695) translate(105.86419753086432 176.2222222222222)"/><use xlink:href="#f" transform="matrix(1,0,0,1,-1615,10082.427519777695) translate(105.86419753086432 176.2222222222222)"/><use xlink:href="#D" transform="matrix(1,0,0,1,-1255,10082.427519777695) translate(105.86419753086432 176.2222222222222)"/><use xlink:href="#E" transform="matrix(1,0,0,1,-895,10082.427519777695) translate(94.11111111111124 176.2222222222222)"/><use xlink:href="#g" transform="matrix(1,0,0,1,-2335,10416.317757127501) translate(105.86419753086432 176.2222222222222)"/><use xlink:href="#h" transform="matrix(1,0,0,1,-1975,10416.317757127501) translate(105.86419753086432 176.2222222222222)"/><use xlink:href="#i" transform="matrix(1,0,0,1,-1615,10416.317757127501) translate(94.11111111111124 176.2222222222222)"/><use xlink:href="#j" transform="matrix(1,0,0,1,-1255,10416.317757127501) translate(105.86419753086432 176.2222222222222)"/><use xlink:href="#F" transform="matrix(1,0,0,1,-895,10416.317757127501) translate(105.86419753086432 176.2222222222222)"/><use xlink:href="#k" transform="matrix(1,0,0,1,-2335,10750.207994477307) translate(105.86419753086432 176.2222222222222)"/><use xlink:href="#l" transform="matrix(1,0,0,1,-1975,10750.207994477307) translate(105.86419753086432 176.2222222222222)"/><use xlink:href="#m" transform="matrix(1,0,0,1,-1615,10750.207994477307) translate(105.86419753086432 176.2222222222222)"/><use xlink:href="#n" transform="matrix(1,0,0,1,-1255,10750.207994477307) translate(94.11111111111124 176.2222222222222)"/><use xlink:href="#o" transform="matrix(1,0,0,1,-895,10750.207994477307) translate(105.86419753086432 176.2222222222222)"/><path d="M-2340 8840h1800v340h-1800z" fill="#fff"/><path d="M-2340 8840v340M-540 8840v340M-2340 8840h1800M-2340 9180h1800" fill="none"/><use xlink:href="#p" transform="matrix(1,0,0,1,-2335,8845) translate(783.6481481481484 183.66666666666663)"/><path d="M-2940 9409.65h363v1671.85h-363z" fill="#fff"/><path d="M-2940 9409.65v1671.85M-2577 9409.65v1671.85M-2940 9409.65h363M-2940 11081.5h363" fill="none"/><use xlink:href="#q" transform="matrix(-1.8369701987210297e-16,-1,1,-1.8369701987210297e-16,-2935,11076.495785395035) translate(657.4259259259263 195.16666666666663)"/><path d="M-2340 9060h380.96v340H-2340zM-1959.04 9060h354.76v340h-354.76zM-1604.28 9060h354.76v340h-354.76zM-1249.52 9060h354.76v340h-354.76zM-894.76 9060H-540v340h-354.76z" fill="#fff"/><path d="M-2340 9060v340M-2340 9060h380.96M-2340 9400h380.96M-1959.04 9060h354.76M-1959.04 9400h354.76M-1604.28 9060h354.76M-1604.28 9400h354.76M-1249.52 9060h354.76M-1249.52 9400h354.76M-540 9060v340M-894.76 9060H-540M-894.76 9400H-540" fill="none"/><use xlink:href="#r" transform="matrix(1,0,0,1,-2335,9065) translate(144.11728395061735 179.2222222222222)"/><use xlink:href="#s" transform="matrix(1,0,0,1,-1954.036954087346,9065) translate(131.11728395061735 179.2222222222222)"/><use xlink:href="#t" transform="matrix(1,0,0,1,-1599.2777155655094,9065) translate(131.11728395061735 179.2222222222222)"/><use xlink:href="#u" transform="matrix(1,0,0,1,-1244.518477043673,9065) translate(131.11728395061735 179.2222222222222)"/><use xlink:href="#v" transform="matrix(1,0,0,1,-889.7592385218366,9065) translate(131.11728395061735 179.2222222222222)"/><path d="M-2720 9409.65h363v341.5h-363zM-2720 9751.15h363v344h-363zM-2720 10095.15h363v331.46h-363z" fill="#fff"/><path d="M-2720 10426.6h363v341.5h-363zM-2720 10768.1h363v313.4h-363z" fill="#fff"/><path d="M-2720 9409.65v341.5M-2357 9409.65v341.5M-2720 9409.65h363M-2720 9751.15v344M-2357 9751.15v344M-2720 10095.15v331.46M-2357 10095.15v331.46M-2720 10426.6v341.5M-2357 10426.6v341.5M-2720 10768.1v313.4M-2357 10768.1v313.4M-2720 11081.5h363" fill="none"/><use xlink:href="#r" transform="matrix(1,0,0,1,-2715,9414.647045078082) translate(135.11728395061735 180.2222222222222)"/><use xlink:href="#s" transform="matrix(1,0,0,1,-2715,9756.151259683047) translate(135.11728395061735 181.2222222222222)"/><use xlink:href="#t" transform="matrix(1,0,0,1,-2715,10100.151259683047) translate(135.11728395061735 175.2222222222222)"/><use xlink:href="#u" transform="matrix(1,0,0,1,-2715,10431.611232681984) translate(135.11728395061735 180.2222222222222)"/><use xlink:href="#v" transform="matrix(1,0,0,1,-2715,10773.11544728695) translate(135.11728395061735 166.2222222222222)"/><path d="M5080 9409.65h360v333.9h-360zM5440 9409.65h360v333.9h-360zM5800 9409.65h360v333.9h-360zM6160 9409.65h360v333.9h-360zM6520 9409.65h360v333.9h-360z" fill="#fff"/><path d="M5080 9743.54h360v333.9h-360zM5440 9743.54h360v333.9h-360zM5800 9743.54h360v333.9h-360zM6160 9743.54h360v333.9h-360zM6520 9743.54h360v333.9h-360z" fill="#fff"/><path d="M5080 10077.43h360v333.9h-360zM5440 10077.43h360v333.9h-360zM5800 10077.43h360v333.9h-360zM6160 10077.43h360v333.9h-360zM6520 10077.43h360v333.9h-360z" fill="#fff"/><path d="M5080 10411.32h360v333.9h-360zM5440 10411.32h360v333.9h-360zM5800 10411.32h360v333.9h-360zM6160 10411.32h360v333.9h-360zM6520 10411.32h360v333.9h-360z" fill="#fff"/><path d="M5080 10745.2h360v333.9h-360zM5440 10745.2h360v333.9h-360zM5800 10745.2h360v333.9h-360zM6160 10745.2h360v333.9h-360zM6520 10745.2h360v333.9h-360z" fill="#fff"/><path d="M5080 9409.65v333.9M5080 9409.65h360" fill="none"/><path d="M5440 9409.65v333.9M5440 9409.65h360M5800 9409.65v333.9" stroke="#282c33" stroke-width="8" fill="none"/><path d="M5800 9409.65h360M6160 9409.65v333.9M6160 9409.65h360M6520 9409.65v333.9M6880 9409.65v333.9M6520 9409.65h360" stroke="#282c33" stroke-width="9" fill="none"/><path d="M5080 9743.54v333.9M5080 9743.54h360M5440 9743.54v333.9" fill="none"/><path d="M5440 9743.54h360M5800 9743.54v333.9M5800 9743.54h360M6160 9743.54v333.9" stroke="#282c33" stroke-width="8" fill="none"/><path d="M6160 9743.54h360M6520 9743.54v333.9M6880 9743.54v333.9M6520 9743.54h360" stroke="#282c33" stroke-width="9" fill="none"/><path d="M5080 10077.43v333.9M5080 10077.43h360M5440 10077.43v333.9M5440 10077.43h360M5800 10077.43v333.9" fill="none"/><path d="M5800 10077.43h360M6160 10077.43v333.9M6160 10077.43h360M6520 10077.43v333.9" stroke="#282c33" stroke-width="8" fill="none"/><path d="M6880 10077.43v333.9M6520 10077.43h360" stroke="#282c33" stroke-width="9" fill="none"/><path d="M5080 10411.32v333.9M5080 10411.32h360M5440 10411.32v333.9M5440 10411.32h360M5800 10411.32v333.9M5800 10411.32h360M6160 10411.32v333.9" fill="none"/><path d="M6160 10411.32h360M6520 10411.32v333.9M6880 10411.32v333.9M6520 10411.32h360" stroke="#282c33" stroke-width="8" fill="none"/><path d="M5080 10745.2v333.9M5080 10745.2h360M5080 11079.1h360M5440 10745.2v333.9M5440 10745.2h360M5440 11079.1h360M5800 10745.2v333.9M5800 10745.2h360M5800 11079.1h360M6160 10745.2v333.9M6160 10745.2h360M6160 11079.1h360M6520 10745.2v333.9M6880 10745.2v333.9" fill="none"/><path d="M6520 10745.2h360" stroke="#282c33" stroke-width="8" fill="none"/><path d="M6520 11079.1h360" fill="none"/><use xlink:href="#x" transform="matrix(1,0,0,1,5445,9414.647045078083) translate(94.11111111111124 176.2222222222222)"/><use xlink:href="#y" transform="matrix(1,0,0,1,5805,9414.647045078083) translate(105.86419753086432 176.2222222222222)"/><use xlink:href="#z" transform="matrix(1,0,0,1,6165,9414.647045078083) translate(94.11111111111124 176.2222222222222)"/><use xlink:href="#A" transform="matrix(1,0,0,1,6525,9414.647045078083) translate(105.86419753086432 176.2222222222222)"/><use xlink:href="#B" transform="matrix(1,0,0,1,5805,9748.53728242789) translate(94.11111111111124 176.2222222222222)"/><use xlink:href="#a" transform="matrix(1,0,0,1,6165,9748.53728242789) translate(105.86419753086432 176.2222222222222)"/><use xlink:href="#C" transform="matrix(1,0,0,1,6525,9748.53728242789) translate(105.86419753086432 176.2222222222222)"/><use xlink:href="#D" transform="matrix(1,0,0,1,6165,10082.427519777695) translate(105.86419753086432 176.2222222222222)"/><use xlink:href="#E" transform="matrix(1,0,0,1,6525,10082.427519777695) translate(94.11111111111124 176.2222222222222)"/><use xlink:href="#F" transform="matrix(1,0,0,1,6525,10416.317757127501) translate(105.86419753086432 176.2222222222222)"/><path d="M5080 8840h1800v340H5080z" fill="#fff"/><path d="M5080 8840v340M6880 8840v340M5080 8840h1800M5080 9180h1800" fill="none"/><use xlink:href="#p" transform="matrix(1,0,0,1,5085,8845) translate(783.6481481481484 183.66666666666663)"/><path d="M4480 9409.65h363v1671.85h-363z" fill="#fff"/><path d="M4480 9409.65v1671.85M4843 9409.65v1671.85M4480 9409.65h363M4480 11081.5h363" fill="none"/><use xlink:href="#q" transform="matrix(-1.8369701987210297e-16,-1,1,-1.8369701987210297e-16,4485.000000000001,11076.495785395035) translate(657.4259259259263 195.16666666666663)"/><path d="M5080 9060h380.96v340H5080zM5460.96 9060h354.76v340h-354.76zM5815.72 9060h354.76v340h-354.76z" fill="#fff"/><path d="M6170.48 9060h354.76v340h-354.76zM6525.24 9060H6880v340h-354.76z" fill="#fff"/><path d="M5080 9060v340M5080 9060h380.96M5080 9400h380.96M5460.96 9060h354.76M5460.96 9400h354.76M5815.72 9060h354.76M5815.72 9400h354.76M6170.48 9060h354.76M6170.48 9400h354.76M6880 9060v340M6525.24 9060H6880M6525.24 9400H6880" fill="none"/><use xlink:href="#r" transform="matrix(1,0,0,1,5085,9065) translate(144.11728395061735 179.2222222222222)"/><use xlink:href="#s" transform="matrix(1,0,0,1,5465.963045912654,9065) translate(131.11728395061735 179.2222222222222)"/><use xlink:href="#t" transform="matrix(1,0,0,1,5820.722284434491,9065) translate(131.11728395061735 179.2222222222222)"/><use xlink:href="#u" transform="matrix(1,0,0,1,6175.481522956326,9065) translate(131.11728395061735 179.2222222222222)"/><use xlink:href="#v" transform="matrix(1,0,0,1,6530.240761478163,9065) translate(131.11728395061735 179.2222222222222)"/><path d="M4700 9409.65h363v341.5h-363zM4700 9751.15h363v344h-363zM4700 10095.15h363v331.46h-363z" fill="#fff"/><path d="M4700 10426.6h363v341.5h-363zM4700 10768.1h363v313.4h-363z" fill="#fff"/><path d="M4700 9409.65v341.5M5063 9409.65v341.5M4700 9409.65h363M4700 9751.15v344M5063 9751.15v344M4700 10095.15v331.46M5063 10095.15v331.46M4700 10426.6v341.5M5063 10426.6v341.5M4700 10768.1v313.4M5063 10768.1v313.4M4700 11081.5h363" fill="none"/><use xlink:href="#r" transform="matrix(1,0,0,1,4705,9414.647045078082) translate(135.11728395061735 180.2222222222222)"/><use xlink:href="#s" transform="matrix(1,0,0,1,4705,9756.151259683047) translate(135.11728395061735 181.2222222222222)"/><use xlink:href="#t" transform="matrix(1,0,0,1,4705,10100.151259683047) translate(135.11728395061735 175.2222222222222)"/><use xlink:href="#u" transform="matrix(1,0,0,1,4705,10431.611232681984) translate(135.11728395061735 180.2222222222222)"/><use xlink:href="#v" transform="matrix(1,0,0,1,4705,10773.11544728695) translate(135.11728395061735 166.2222222222222)"/><path d="M7580 9448.15h360v333.9h-360z" fill="#fff"/><path d="M7940 9448.15h360v333.9h-360zM8300 9448.15h360v333.9h-360z" fill="#6db1ff"/><path d="M8660 9448.15h360v333.9h-360zM9020 9448.15h360v333.9h-360zM7580 9782.04h360v333.9h-360zM7940 9782.04h360v333.9h-360z" fill="#fff"/><path d="M8300 9782.04h360v333.9h-360zM8660 9782.04h360v333.9h-360z" fill="#6db1ff"/><path d="M9020 9782.04h360v333.9h-360zM7580 10115.93h360v333.9h-360zM7940 10115.93h360v333.9h-360zM8300 10115.93h360v333.9h-360z" fill="#fff"/><path d="M8660 10115.93h360v333.9h-360zM9020 10115.93h360v333.9h-360z" fill="#6db1ff"/><path d="M7580 10449.82h360v333.9h-360zM7940 10449.82h360v333.9h-360zM8300 10449.82h360v333.9h-360zM8660 10449.82h360v333.9h-360z" fill="#fff"/><path d="M9020 10449.82h360v333.9h-360z" fill="#6db1ff"/><path d="M7580 10783.7h360v333.9h-360zM7940 10783.7h360v333.9h-360zM8300 10783.7h360v333.9h-360zM8660 10783.7h360v333.9h-360zM9020 10783.7h360v333.9h-360z" fill="#fff"/><path d="M7580 9448.15v333.9M7580 9448.15h360" fill="none"/><path d="M7940 9448.15v333.9M7940 9448.15h360M8300 9448.15v333.9M8300 9448.15h360M8660 9448.15v333.9" stroke="#282c33" stroke-width="10" fill="none"/><path d="M8660 9448.15h360M9020 9448.15v333.9M9380 9448.15v333.9M9020 9448.15h360M7580 9782.04v333.9M7580 9782.04h360M7940 9782.04v333.9" fill="none"/><path d="M7940 9782.04h360M8300 9782.04v333.9M8300 9782.04h360M8660 9782.04v333.9M8660 9782.04h360M9020 9782.04v333.9" stroke="#282c33" stroke-width="10" fill="none"/><path d="M9380 9782.04v333.9M9020 9782.04h360M7580 10115.93v333.9M7580 10115.93h360M7940 10115.93v333.9M7940 10115.93h360M8300 10115.93v333.9" fill="none"/><path d="M8300 10115.93h360" stroke="#282c33" stroke-width="10" fill="none"/><path d="M8660 10115.93v333.9" stroke="#282c33" stroke-width="9" fill="none"/><path d="M8660 10115.93h360M9020 10115.93v333.9M9380 10115.93v333.9M9020 10115.93h360" stroke="#282c33" stroke-width="10" fill="none"/><path d="M7580 10449.82v333.9M7580 10449.82h360M7940 10449.82v333.9M7940 10449.82h360M8300 10449.82v333.9M8300 10449.82h360M8660 10449.82v333.9" fill="none"/><path d="M8660 10449.82h360" stroke="#282c33" stroke-width="9" fill="none"/><path d="M9020 10449.82v333.9M9380 10449.82v333.9M9020 10449.82h360" stroke="#282c33" stroke-width="10" fill="none"/><path d="M7580 10783.7v333.9M7580 10783.7h360M7580 11117.6h360M7940 10783.7v333.9M7940 10783.7h360M7940 11117.6h360M8300 10783.7v333.9M8300 10783.7h360M8300 11117.6h360M8660 10783.7v333.9M8660 10783.7h360M8660 11117.6h360M9020 10783.7v333.9M9380 10783.7v333.9" fill="none"/><path d="M9020 10783.7h360" stroke="#282c33" stroke-width="10" fill="none"/><path d="M9020 11117.6h360" fill="none"/><use xlink:href="#x" transform="matrix(1,0,0,1,7945,9453.151259683047) translate(94.11111111111124 176.2222222222222)"/><use xlink:href="#y" transform="matrix(1,0,0,1,8305,9453.151259683047) translate(105.86419753086432 176.2222222222222)"/><use xlink:href="#B" transform="matrix(1,0,0,1,8305,9787.041497032853) translate(94.11111111111124 176.2222222222222)"/><use xlink:href="#a" transform="matrix(1,0,0,1,8665,9787.041497032853) translate(105.86419753086432 176.2222222222222)"/><use xlink:href="#D" transform="matrix(1,0,0,1,8665,10120.931734382659) translate(105.86419753086432 176.2222222222222)"/><use xlink:href="#E" transform="matrix(1,0,0,1,9025,10120.931734382659) translate(94.11111111111124 176.2222222222222)"/><use xlink:href="#F" transform="matrix(1,0,0,1,9025,10454.821971732465) translate(105.86419753086432 176.2222222222222)"/><path d="M7580 8878.5h1800v340H7580z" fill="#fff"/><path d="M7580 8878.5v340M9380 8878.5v340M7580 8878.5h1800M7580 9218.5h1800" fill="none"/><use xlink:href="#p" transform="matrix(1,0,0,1,7585,8883.504214604965) translate(783.6481481481484 183.66666666666663)"/><path d="M6980 9448.15h363V11120h-363z" fill="#fff"/><path d="M6980 9448.15V11120M7343 9448.15V11120M6980 9448.15h363M6980 11120h363" fill="none"/><use xlink:href="#q" transform="matrix(-1.8369701987210297e-16,-1,1,-1.8369701987210297e-16,6984.999999999999,11115) translate(657.4259259259263 195.16666666666663)"/><path d="M7580 9098.5h380.96v340H7580z" fill="#fff"/><path d="M7960.96 9098.5h354.76v340h-354.76zM8315.72 9098.5h354.76v340h-354.76zM8670.48 9098.5h354.76v340h-354.76zM9025.24 9098.5H9380v340h-354.76z" fill="#fff"/><path d="M7580 9098.5v340M7580 9098.5h380.96M7580 9438.5h380.96M7960.96 9098.5h354.76M7960.96 9438.5h354.76M8315.72 9098.5h354.76M8315.72 9438.5h354.76M8670.48 9098.5h354.76M8670.48 9438.5h354.76M9380 9098.5v340M9025.24 9098.5H9380M9025.24 9438.5H9380" fill="none"/><use xlink:href="#r" transform="matrix(1,0,0,1,7585,9103.504214604965) translate(144.11728395061735 179.2222222222222)"/><use xlink:href="#s" transform="matrix(1,0,0,1,7965.963045912654,9103.504214604965) translate(131.11728395061735 179.2222222222222)"/><use xlink:href="#t" transform="matrix(1,0,0,1,8320.72228443449,9103.504214604965) translate(131.11728395061735 179.2222222222222)"/><use xlink:href="#u" transform="matrix(1,0,0,1,8675.481522956326,9103.504214604965) translate(131.11728395061735 179.2222222222222)"/><use xlink:href="#v" transform="matrix(1,0,0,1,9030.240761478164,9103.504214604965) translate(131.11728395061735 179.2222222222222)"/><path d="M7200 9448.15h363v341.5h-363zM7200 9789.66h363v344h-363zM7200 10133.66h363v331.45h-363z" fill="#fff"/><path d="M7200 10465.1h363v341.52h-363zM7200 10806.62h363V11120h-363z" fill="#fff"/><path d="M7200 9448.15v341.5M7563 9448.15v341.5M7200 9448.15h363M7200 9789.66v344M7563 9789.66v344M7200 10133.66v331.45M7563 10133.66v331.45M7200 10465.1v341.52M7563 10465.1v341.52M7200 10806.62V11120M7563 10806.62V11120M7200 11120h363" fill="none"/><use xlink:href="#r" transform="matrix(1,0,0,1,7205,9453.151259683047) translate(135.11728395061735 180.2222222222222)"/><use xlink:href="#s" transform="matrix(1,0,0,1,7205,9794.655474288013) translate(135.11728395061735 181.2222222222222)"/><use xlink:href="#t" transform="matrix(1,0,0,1,7205,10138.655474288013) translate(135.11728395061735 175.2222222222222)"/><use xlink:href="#u" transform="matrix(1,0,0,1,7205,10470.11544728695) translate(135.11728395061735 180.2222222222222)"/><use xlink:href="#v" transform="matrix(1,0,0,1,7205,10811.619661891915) translate(135.11728395061735 166.2222222222222)"/><path d="M10060 9468.15h360v333.9h-360z" fill="#fff"/><path d="M10420 9468.15h360v333.9h-360zM10780 9468.15h360v333.9h-360z" fill="#6db1ff"/><path d="M11140 9468.15h360v333.9h-360zM11500 9468.15h360v333.9h-360z" fill="#fe7070"/><path d="M10060 9802.04h360v333.9h-360zM10420 9802.04h360v333.9h-360z" fill="#fff"/><path d="M10780 9802.04h360v333.9h-360zM11140 9802.04h360v333.9h-360z" fill="#6db1ff"/><path d="M11500 9802.04h360v333.9h-360z" fill="#fe7070"/><path d="M10060 10135.93h360v333.9h-360zM10420 10135.93h360v333.9h-360zM10780 10135.93h360v333.9h-360z" fill="#fff"/><path d="M11140 10135.93h360v333.9h-360zM11500 10135.93h360v333.9h-360z" fill="#6db1ff"/><path d="M10060 10469.82h360v333.9h-360zM10420 10469.82h360v333.9h-360zM10780 10469.82h360v333.9h-360zM11140 10469.82h360v333.9h-360z" fill="#fff"/><path d="M11500 10469.82h360v333.9h-360z" fill="#6db1ff"/><path d="M10060 10803.7h360v333.9h-360zM10420 10803.7h360v333.9h-360zM10780 10803.7h360v333.9h-360zM11140 10803.7h360v333.9h-360zM11500 10803.7h360v333.9h-360z" fill="#fff"/><path d="M10060 9468.15v333.9M10060 9468.15h360M10420 9468.15v333.9M10420 9468.15h360M10780 9468.15v333.9M10780 9468.15h360M11140 9468.15v333.9M11140 9468.15h360M11500 9468.15v333.9M11860 9468.15v333.9M11500 9468.15h360M10060 9802.04v333.9M10060 9802.04h360M10420 9802.04v333.9M10420 9802.04h360M10780 9802.04v333.9M10780 9802.04h360M11140 9802.04v333.9M11140 9802.04h360M11500 9802.04v333.9M11860 9802.04v333.9M11500 9802.04h360M10060 10135.93v333.9M10060 10135.93h360M10420 10135.93v333.9M10420 10135.93h360M10780 10135.93v333.9M10780 10135.93h360M11140 10135.93v333.9M11140 10135.93h360M11500 10135.93v333.9M11860 10135.93v333.9M11500 10135.93h360M10060 10469.82v333.9M10060 10469.82h360M10420 10469.82v333.9M10420 10469.82h360M10780 10469.82v333.9M10780 10469.82h360M11140 10469.82v333.9M11140 10469.82h360M11500 10469.82v333.9M11860 10469.82v333.9M11500 10469.82h360M10060 10803.7v333.9M10060 10803.7h360M10060 11137.6h360M10420 10803.7v333.9M10420 10803.7h360M10420 11137.6h360M10780 10803.7v333.9M10780 10803.7h360M10780 11137.6h360M11140 10803.7v333.9M11140 10803.7h360M11140 11137.6h360M11500 10803.7v333.9M11860 10803.7v333.9M11500 10803.7h360M11500 11137.6h360" stroke="#282c33" stroke-width="9" fill="none"/><use xlink:href="#a" transform="matrix(1,0,0,1,10065,9473.151259683047) translate(105.86419753086432 176.2222222222222)"/><use xlink:href="#x" transform="matrix(1,0,0,1,10425,9473.151259683047) translate(94.11111111111124 176.2222222222222)"/><use xlink:href="#y" transform="matrix(1,0,0,1,10785,9473.151259683047) translate(105.86419753086432 176.2222222222222)"/><use xlink:href="#w" transform="matrix(1,0,0,1,11145,9473.151259683047) translate(119.98765432098774 176.2222222222222)"/><use xlink:href="#w" transform="matrix(1,0,0,1,11505,9473.151259683047) translate(119.98765432098774 176.2222222222222)"/><use xlink:href="#b" transform="matrix(1,0,0,1,10065,9807.041497032853) translate(105.86419753086432 176.2222222222222)"/><use xlink:href="#c" transform="matrix(1,0,0,1,10425,9807.041497032853) translate(113.86419753086429 176.2222222222222)"/><use xlink:href="#B" transform="matrix(1,0,0,1,10785,9807.041497032853) translate(94.11111111111124 176.2222222222222)"/><use xlink:href="#a" transform="matrix(1,0,0,1,11145,9807.041497032853) translate(105.86419753086432 176.2222222222222)"/><use xlink:href="#w" transform="matrix(1,0,0,1,11505,9807.041497032853) translate(119.98765432098774 176.2222222222222)"/><use xlink:href="#d" transform="matrix(1,0,0,1,10065,10140.931734382659) translate(94.11111111111124 176.2222222222222)"/><use xlink:href="#e" transform="matrix(1,0,0,1,10425,10140.931734382659) translate(105.86419753086432 176.2222222222222)"/><use xlink:href="#f" transform="matrix(1,0,0,1,10785,10140.931734382659) translate(105.86419753086432 176.2222222222222)"/><use xlink:href="#D" transform="matrix(1,0,0,1,11145,10140.931734382659) translate(105.86419753086432 176.2222222222222)"/><use xlink:href="#E" transform="matrix(1,0,0,1,11505,10140.931734382659) translate(94.11111111111124 176.2222222222222)"/><use xlink:href="#g" transform="matrix(1,0,0,1,10065,10474.821971732465) translate(105.86419753086432 176.2222222222222)"/><use xlink:href="#h" transform="matrix(1,0,0,1,10425,10474.821971732465) translate(105.86419753086432 176.2222222222222)"/><use xlink:href="#i" transform="matrix(1,0,0,1,10785,10474.821971732465) translate(94.11111111111124 176.2222222222222)"/><use xlink:href="#j" transform="matrix(1,0,0,1,11145,10474.821971732465) translate(105.86419753086432 176.2222222222222)"/><use xlink:href="#F" transform="matrix(1,0,0,1,11505,10474.821971732465) translate(105.86419753086432 176.2222222222222)"/><use xlink:href="#k" transform="matrix(1,0,0,1,10065,10808.71220908227) translate(105.86419753086432 176.2222222222222)"/><use xlink:href="#l" transform="matrix(1,0,0,1,10425,10808.71220908227) translate(105.86419753086432 176.2222222222222)"/><use xlink:href="#m" transform="matrix(1,0,0,1,10785,10808.71220908227) translate(105.86419753086432 176.2222222222222)"/><use xlink:href="#n" transform="matrix(1,0,0,1,11145,10808.71220908227) translate(94.11111111111124 176.2222222222222)"/><use xlink:href="#o" transform="matrix(1,0,0,1,11505,10808.71220908227) translate(105.86419753086432 176.2222222222222)"/><path d="M10060 8898.5h1800v340h-1800z" fill="#fff"/><path d="M10060 8898.5v340M11860 8898.5v340M10060 8898.5h1800M10060 9238.5h1800" fill="none"/><use xlink:href="#p" transform="matrix(1,0,0,1,10065,8903.504214604965) translate(783.6481481481484 183.66666666666663)"/><path d="M9460 9468.15h363V11140h-363z" fill="#fff"/><path d="M9460 9468.15V11140M9823 9468.15V11140M9460 9468.15h363M9460 11140h363" fill="none"/><use xlink:href="#q" transform="matrix(-1.8369701987210297e-16,-1,1,-1.8369701987210297e-16,9465,11135) translate(657.4259259259263 195.16666666666663)"/><path d="M10060 9118.5h380.96v340H10060zM10440.96 9118.5h354.76v340h-354.76zM10795.72 9118.5h354.76v340h-354.76zM11150.48 9118.5h354.76v340h-354.76zM11505.24 9118.5H11860v340h-354.76z" fill="#fff"/><path d="M10060 9118.5v340M10060 9118.5h380.96M10060 9458.5h380.96M10440.96 9118.5h354.76M10440.96 9458.5h354.76M10795.72 9118.5h354.76M10795.72 9458.5h354.76M11150.48 9118.5h354.76M11150.48 9458.5h354.76M11860 9118.5v340M11505.24 9118.5H11860M11505.24 9458.5H11860" fill="none"/><use xlink:href="#r" transform="matrix(1,0,0,1,10065,9123.504214604965) translate(144.11728395061735 179.2222222222222)"/><use xlink:href="#s" transform="matrix(1,0,0,1,10445.963045912655,9123.504214604965) translate(131.11728395061735 179.2222222222222)"/><use xlink:href="#t" transform="matrix(1,0,0,1,10800.72228443449,9123.504214604965) translate(131.11728395061735 179.2222222222222)"/><use xlink:href="#u" transform="matrix(1,0,0,1,11155.481522956326,9123.504214604965) translate(131.11728395061735 179.2222222222222)"/><use xlink:href="#v" transform="matrix(1,0,0,1,11510.240761478164,9123.504214604965) translate(131.11728395061735 179.2222222222222)"/><path d="M9680 9468.15h363v341.5h-363zM9680 9809.66h363v344h-363zM9680 10153.66h363v331.45h-363z" fill="#fff"/><path d="M9680 10485.1h363v341.52h-363zM9680 10826.62h363V11140h-363z" fill="#fff"/><path d="M9680 9468.15v341.5M10043 9468.15v341.5M9680 9468.15h363M9680 9809.66v344M10043 9809.66v344M9680 10153.66v331.45M10043 10153.66v331.45M9680 10485.1v341.52M10043 10485.1v341.52M9680 10826.62V11140M10043 10826.62V11140M9680 11140h363" fill="none"/><use xlink:href="#r" transform="matrix(1,0,0,1,9685,9473.151259683047) translate(135.11728395061735 180.2222222222222)"/><use xlink:href="#s" transform="matrix(1,0,0,1,9685,9814.655474288013) translate(135.11728395061735 181.2222222222222)"/><use xlink:href="#t" transform="matrix(1,0,0,1,9685,10158.655474288013) translate(135.11728395061735 175.2222222222222)"/><use xlink:href="#u" transform="matrix(1,0,0,1,9685,10490.11544728695) translate(135.11728395061735 180.2222222222222)"/><use xlink:href="#v" transform="matrix(1,0,0,1,9685,10831.619661891915) translate(135.11728395061735 166.2222222222222)"/><path d="M535.67 11120h980v369.96h-980z" fill="#fff" fill-opacity="0"/><path d="M784.84 11397.1H681.17v-5.82H687c20.36 0 26.18-7.64 26.18-22.2 0-2.17-.36-5.08-.73-7.63l-4.73-41.1H635.7l-30.55 50.92c-2.55 2.9-3.64 6.92-3.64 9.46.38 6.55 6.2 10.55 15.65 10.55h10.55v5.82h-79.3v-5.82c12.74-1.45 26.2-5.82 39.3-26.92l129.48-209.88h6.55l28.37 211.34c2.55 17.82 11.64 25.46 26.92 25.46h5.82v5.82m-79.66-90.2l-9.1-82.58h-2.18l-50.56 82.57h61.84M889.83 11423.12l3.1 3.34c-13.13 15.43-29.07 28.03-50.93 28.03-24.95 0-35.24-20.07-35.24-39.87 0-36 31.12-76.38 67.64-76.38 12.86 0 24.95 6.94 24.95 19.55 0 9.77-4.12 18-13.9 18-6.68 0-9.76-5.4-9.76-9.77 0-6.18 7.44-9.26 7.44-14.92 0-3.08-2.57-5.4-8.74-5.4-30.6 0-45.26 46.04-45.26 66.6 0 22.4 12.6 28.05 24.17 28.05 15.7 0 27.53-8.5 36.53-17.23M1024.6 11341.6l-23.42 88.72s-.25.5-.25 2.83c0 2.83 1.54 4.37 3.6 4.37 2.57 0 6.43-.52 16.46-13.9l3.07 3.1c-7.97 12.08-21.86 27.5-34.2 27.5-8.5 0-10.8-5.9-10.8-14.13 0-3.35 1.54-8.75 2.83-12.87h-1.03c-18.52 23.66-34.46 27-44.5 27-16.2 0-22.88-14.14-22.88-30.6 0-33.94 33.94-85.38 70.97-85.38 11.06 0 16.46 6.17 16.97 11.83h.26l2.3-8.5h20.6m-27.02 22.4c0-10.56-3.08-18.27-12.86-18.27-17.48 0-32.9 22.38-41.66 43.98-4.63 11.58-7.2 22.9-7.2 31.9 0 13.62 7.98 16.97 14.92 16.97 17.74 0 35.75-24.43 42.95-48.86 2.05-6.7 3.85-17 3.85-25.73M1146.74 11341.6l-22.9 89.5c-.24 1.02-.24 1.53-.24 2.3 0 2.06 1.02 3.6 3.6 3.6 5.4 0 10.28-6.68 14.65-11.83l1.3-1.54 3.33 2.83c-5.9 8.5-19.03 27.52-33.94 27.52-7.46 0-10.3-4.9-10.3-13.38 0-2.3.27-6.43 1.04-9.5l6.68-24.44h-.25c-1.8 1.28-24.94 32.4-35.22 40.12-5.92 4.37-12.6 7.2-18.52 7.2-12.1 0-15.7-9.26-15.7-19.03 0-5.4.8-10.3 2.07-15.18l15.17-59.4c1.03-3.86 1.55-5.4 1.55-6.43 0-3.1-2.83-5.92-8.5-5.92-1.8 0-4.88.26-6.68.77l-.77-3.86 40.38-6.7-21.6 83.85c-.52 2.3-.78 4.1-.78 6.16 0 5.4 2.06 8.74 6.7 8.74 6.42 0 16.7-7.97 25.7-19.8 11.07-14.66 22.9-37.55 28.04-56.32l5.4-19.28h19.8M1254.75 11338.25l-6.17 37.55h-3.86c0-16.46-9.26-30.86-23.66-30.86-6.43 0-13.1 4.37-13.1 14.9 0 14.16 34.45 37.82 34.45 62.25 0 15.93-12.34 32.13-34.7 32.13-8.76 0-25.2-5.14-28.3-5.14-2.3 0-4.63 1.02-7.7 5.4h-4.4l6.44-40.13h4.12c0 16.2 10.54 33.43 26.74 33.43 15.18 0 18.78-12.85 18.78-22.88 0-21.1-33.44-33.95-33.44-59.15 0-20.32 15.18-27.52 29.32-27.52 11.06 0 16.2 5.15 23.66 5.15 2.83 0 5.66-2.58 7.72-5.15h4.1M1389.25 11341.6l-23.4 88.72s-.26.5-.26 2.83c0 2.83 1.53 4.37 3.6 4.37 2.56 0 6.42-.52 16.45-13.9l3.08 3.1c-7.97 12.08-21.85 27.5-34.2 27.5-8.48 0-10.8-5.9-10.8-14.13 0-3.35 1.54-8.75 2.83-12.87h-1.03c-18.5 23.66-34.46 27-44.5 27-16.2 0-22.88-14.14-22.88-30.6 0-33.94 33.95-85.38 70.98-85.38 11.06 0 16.46 6.17 16.97 11.83h.26l2.32-8.5h20.57m-27 22.4c0-10.56-3.1-18.27-12.86-18.27-17.5 0-32.93 22.38-41.67 43.98-4.63 11.58-7.2 22.9-7.2 31.9 0 13.62 7.97 16.97 14.9 16.97 17.76 0 35.76-24.43 42.96-48.86 2.05-6.7 3.85-17 3.85-25.73M1468.46 11279.87l-38.06 152s-.26 1.02-.26 2.82c0 1.8 1.03 3.33 3.08 3.33 5.92 0 13.63-10.03 15.95-14.14l4.1 3.07c-8.73 10.3-19.8 27.26-34.7 27.26-7.72 0-10.03-6.68-10.03-13.1 0-3.1.77-6.7 1.54-9.27l32.92-131.16c.77-3.34.77-5.4.77-6.17 0-3.08-2.06-5.66-7.97-5.66-1.8 0-4.9.52-6.95.78l-.77-3.86"/><path d="M2779.3 11120h1363.75v369.96H2779.3z" fill="#fff" fill-opacity="0"/><path d="M3028.46 11397.1H2924.8v-5.82h5.8c20.4 0 26.2-7.64 26.2-22.2 0-2.17-.36-5.08-.72-7.63l-4.73-41.1h-72.02l-30.56 50.92c-2.54 2.9-3.63 6.92-3.63 9.46.36 6.55 6.18 10.55 15.64 10.55h10.54v5.82h-79.3v-5.82c12.74-1.45 26.2-5.82 39.3-26.92l129.5-209.88h6.53l28.38 211.34c2.54 17.82 11.63 25.46 26.9 25.46h5.83v5.82m-79.66-90.2l-9.1-82.58h-2.17l-50.56 82.57h61.83M3154.28 11341.6l-22.88 89.5c-.26 1.02-.26 1.53-.26 2.3 0 2.06 1.03 3.6 3.6 3.6 5.4 0 10.3-6.68 14.66-11.83l1.28-1.54 3.35 2.83c-5.92 8.5-19.03 27.52-33.95 27.52-7.46 0-10.3-4.9-10.3-13.38 0-2.3.27-6.43 1.04-9.5l6.7-24.44h-.27c-1.8 1.28-24.94 32.4-35.23 40.12-5.9 4.37-12.6 7.2-18.52 7.2-12.08 0-15.68-9.26-15.68-19.03 0-5.4.77-10.3 2.05-15.18l15.18-59.4c1.03-3.86 1.54-5.4 1.54-6.43 0-3.1-2.84-5.92-8.5-5.92-1.8 0-4.88.26-6.68.77l-.77-3.86 40.37-6.7-21.6 83.85c-.5 2.3-.77 4.1-.77 6.16 0 5.4 2.05 8.74 6.68 8.74 6.43 0 16.72-7.97 25.72-19.8 11.06-14.66 22.9-37.55 28.03-56.32l5.4-19.28h19.8M3282.1 11426.97l-1.3 1.55c-7.2 8.74-19.53 25.2-32.9 25.2-8.24 0-10.55-5.9-10.55-11.83 0-3.35 1.03-7.47 1.8-10.3l14.66-56.83c.52-2.06 1.8-7.2 1.8-10.8 0-4.9-1.53-9.77-6.16-9.77-9.78 0-25.98 22.1-33.95 34.2-9.27 13.9-15.95 25.97-17.5 31.37l-8.48 31.9h-19.8l24.43-96.2c0-4.62-.78-8.22-7.72-8.22-2.57 0-5.4.52-7.2.77l-.5-3.85 40.88-5.92-13.1 48.6h.76c1.3 0 13.9-18 14.4-18.77 10.3-12.86 25.72-29.83 41.15-29.83 11.32 0 14.4 7.46 14.4 15.95 0 6.42-1.53 12.85-2.82 18l-15.17 59.4c-.25.52-.25 1.3-.25 2.57.26 1.55 1.03 3.6 3.86 3.6 6.18 0 12.35-9.25 15.95-13.63M3461.6 11424.15l3.34 2.82c-8.23 13.9-21.6 26.75-33.7 26.75-5.64 0-10.02-2.57-10.02-12.6 0-1.8.26-4.37 1.55-9.52l14.4-56.83c1.03-3.6 1.54-5.92 1.54-10.3 0-5.13-1.53-9.76-6.16-9.76-13.9 0-42.18 46.56-46.03 62.24l-8.74 34.72h-20.3l19.8-76.9c.5-2.3 1.27-6.42 1.27-10.28 0-5.14-1.28-9.77-5.9-9.77-13.38 0-41.67 46.56-45.8 62.24l-9 34.72h-20.05l24.43-96.18c.02-4.63-1.53-7.97-8.47-7.97-2.06 0-4.9.27-6.95.52l-.5-3.6 40.36-6.17-11.3 43.46h1.53c24.18-36.76 39.6-43.45 49.38-43.45 9.5 0 14.14 9.52 14.14 20.83 0 4.37-.78 8.23-2.32 13.38l-2.57 9.25h1.3c7.45-13.36 20.82-29.3 33.42-37.8 5.66-3.85 10.55-5.65 15.7-5.65 9.25 0 13.88 6.7 13.88 18.26 0 4.64-.26 9.52-1.8 15.7l-15.7 59.4c-.25.77-.5 2.32-.5 3.1 0 2.05 1.54 3.07 3.86 3.07 4.37 0 11.05-4.1 15.94-13.63M3594.04 11341.6l-23.4 88.72s-.26.5-.26 2.83c0 2.83 1.54 4.37 3.6 4.37 2.57 0 6.43-.52 16.46-13.9l3.1 3.1c-8 12.08-21.87 27.5-34.22 27.5-8.48 0-10.8-5.9-10.8-14.13 0-3.35 1.55-8.75 2.83-12.87h-1.03c-18.5 23.66-34.46 27-44.5 27-16.2 0-22.88-14.14-22.88-30.6 0-33.94 33.95-85.38 70.98-85.38 11.06 0 16.46 6.17 16.97 11.83h.25l2.32-8.5h20.57m-27 22.4c0-10.56-3.1-18.27-12.86-18.27-17.5 0-32.92 22.38-41.66 43.98-4.63 11.58-7.2 22.9-7.2 31.9 0 13.62 7.97 16.97 14.9 16.97 17.76 0 35.76-24.43 42.96-48.86 2.06-6.7 3.86-17 3.86-25.73M3702.3 11338.25l-6.16 37.55h-3.86c0-16.46-9.26-30.86-23.66-30.86-6.43 0-13.12 4.37-13.12 14.9 0 14.16 34.46 37.82 34.46 62.25 0 15.93-12.34 32.13-34.7 32.13-8.76 0-25.22-5.14-28.3-5.14-2.32 0-4.63 1.02-7.72 5.4h-4.37l6.43-40.13h4.1c0 16.2 10.56 33.43 26.76 33.43 15.17 0 18.77-12.85 18.77-22.88 0-21.1-33.43-33.95-33.43-59.15 0-20.32 15.17-27.52 29.32-27.52 11.06 0 16.2 5.15 23.66 5.15 2.83 0 5.66-2.58 7.7-5.15h4.13M3850.7 11341.6l-1.03 3.08c-17.24 1.8-24.44 6.43-34.2 14.92l-27.27 23.66 16.46 39.08c3.86 9 6.94 15.18 13.63 15.18 7.7 0 13.36-11.06 19.02-18.77l3.86 2.82c-3.1 5.4-15.17 32.92-32.66 32.92-11.83 0-17.23-13.64-20.06-20.33l-16.2-37.8-14.4 12.6-11.58 42.7h-19.54l38.06-151.48c.5-1.55.77-3.35.77-5.15 0-2.83-2.57-5.66-8.23-5.66-2.3 0-4.9 0-6.94.5l-.77-3.6 40.63-6.43-29.06 117.27 42.95-38.3c2.82-2.6 5.4-5.93 5.4-9.27 0-3.1-4.12-4.9-6.7-4.9h-3.08l1.03-3.08h49.9M3948.16 11422.86l3.6 3.34c-18 22.12-35.5 28.3-51.43 28.3-25.2 0-35.24-21.6-35.24-40.13 0-5.9.25-9.5 1.54-15.43 6.43-28.54 34.72-60.7 67.38-60.7 10.8 0 26.23 3.6 26.23 19.56 0 32.66-42.95 45.26-73.55 46.8v7.2c0 16.46 13.37 27.52 29.06 27.52 10.8 0 23.14-4.63 32.4-16.46m-61.46-25.46h2.3c26.76 0 50.93-17.74 50.93-40.38 0-6.43-4.9-11.05-11.32-11.05-19 0-34.44 29.57-41.9 51.43M4104.77 11279.87l-38.3 153.8c-.27.76-.53 2.3-.53 3.08 0 1.54 1.3 2.3 3.86 2.3 5.14 0 12.34-9 15.94-14.4l2.83 3.1c-7.7 11.57-21.34 27-33.43 27-8.23 0-10.28-5.92-10.28-10.55 0-5.14.5-8.74 2.57-16.45h-1.3c-19.02 23.9-34.45 27-43.97 27-18.77 0-22.63-19.03-22.63-32.66 0-26.5 26.5-83.85 66.1-83.85 14.65 0 20.57 6.7 20.83 12.86h.5l13.64-53.74c.26-1.03.5-2.06.5-3.08 0-3.35-1.78-5.15-8.47-5.15-2.32 0-5.14.52-6.95.77l-1.02-3.85m-2.06 78.18c0-12.1-3.86-18.26-14.4-18.26-25.46 0-46.3 51.43-46.3 76.12 0 12.6 7.2 16.96 14.4 16.96 18 0 34.98-24.17 42.18-47.83 2.83-9 4.12-19.03 4.12-27"/><path d="M5406.67 11140h1113.75v369.96H5406.67z" fill="#fff" fill-opacity="0"/><path d="M5655.84 11417.1h-103.67v-5.82h5.82c20.36 0 26.18-7.64 26.18-22.2 0-2.17-.37-5.08-.73-7.63l-4.73-41.1h-72.02l-30.55 50.92c-2.55 2.9-3.64 6.92-3.64 9.46.37 6.55 6.2 10.55 15.65 10.55h10.55v5.82h-79.3v-5.82c12.73-1.45 26.2-5.82 39.3-26.92l129.48-209.88h6.55l28.37 211.34c2.55 17.82 11.64 25.46 26.92 25.46h5.82v5.82m-79.66-90.2l-9.1-82.58h-2.18l-50.56 82.57h61.84M5839 11444.15l3.35 2.82c-8.23 13.9-21.6 26.75-33.7 26.75-5.65 0-10.02-2.57-10.02-12.6 0-1.8.26-4.37 1.54-9.52l14.4-56.83c1.03-3.6 1.55-5.92 1.55-10.3 0-5.13-1.54-9.76-6.17-9.76-13.9 0-42.18 46.56-46.04 62.24l-8.73 34.72h-20.32l19.8-76.9c.52-2.3 1.3-6.42 1.3-10.28 0-5.14-1.3-9.77-5.92-9.77-13.38 0-41.66 46.56-45.78 62.24l-9 34.72h-20.06l24.42-96.18c0-4.63-1.54-7.97-8.48-7.97-2.06 0-4.9.27-6.95.52l-.52-3.6 40.37-6.17-11.3 43.46h1.53c24.17-36.76 39.6-43.45 49.38-43.45 9.5 0 14.14 9.52 14.14 20.83 0 4.37-.77 8.23-2.3 13.38l-2.6 9.25h1.3c7.46-13.36 20.83-29.3 33.43-37.8 5.66-3.85 10.55-5.65 15.7-5.65 9.25 0 13.88 6.7 13.88 18.26 0 4.64-.25 9.52-1.8 15.7l-15.68 59.4c-.26.77-.52 2.32-.52 3.1 0 2.05 1.55 3.07 3.86 3.07 4.37 0 11.06-4.1 15.95-13.63M5971.45 11361.6l-23.4 88.72s-.26.5-.26 2.83c0 2.83 1.53 4.37 3.6 4.37 2.56 0 6.42-.52 16.45-13.9l3.08 3.1c-7.97 12.08-21.86 27.5-34.2 27.5-8.5 0-10.8-5.9-10.8-14.13 0-3.35 1.54-8.75 2.83-12.87h-1.03c-18.52 23.66-34.46 27-44.5 27-16.2 0-22.88-14.14-22.88-30.6 0-33.94 33.95-85.38 70.98-85.38 11.06 0 16.46 6.17 16.97 11.83h.26l2.3-8.5h20.6m-27.02 22.4c0-10.56-3.08-18.27-12.85-18.27-17.5 0-32.93 22.38-41.67 43.98-4.63 11.58-7.2 22.9-7.2 31.9 0 13.62 7.97 16.97 14.9 16.97 17.76 0 35.76-24.43 42.96-48.86 2.05-6.7 3.84-17 3.84-25.73M6079.72 11358.25l-6.18 37.55h-3.85c0-16.46-9.27-30.86-23.67-30.86-6.43 0-13.12 4.37-13.12 14.9 0 14.16 34.47 37.82 34.47 62.25 0 15.93-12.34 32.13-34.72 32.13-8.74 0-25.2-5.14-28.28-5.14-2.32 0-4.63 1.02-7.72 5.4h-4.37l6.43-40.13h4.12c0 16.2 10.55 33.43 26.75 33.43 15.17 0 18.77-12.85 18.77-22.88 0-21.1-33.43-33.95-33.43-59.15 0-20.32 15.18-27.52 29.33-27.52 11.05 0 16.2 5.15 23.66 5.15 2.8 0 5.64-2.58 7.7-5.15h4.1M6228.1 11361.6l-1.03 3.08c-17.23 1.8-24.43 6.43-34.2 14.92l-27.26 23.66 16.47 39.08c3.86 9 6.94 15.18 13.63 15.18 7.7 0 13.37-11.06 19.03-18.77l3.86 2.82c-3.1 5.4-15.2 32.92-32.68 32.92-11.82 0-17.23-13.64-20.05-20.33l-16.2-37.8-14.4 12.6-11.58 42.7h-19.55l38.06-151.48c.52-1.55.78-3.35.78-5.15 0-2.83-2.57-5.66-8.23-5.66-2.32 0-4.9 0-6.94.5l-.77-3.6 40.64-6.43-29.06 117.27 42.95-38.3c2.83-2.6 5.4-5.93 5.4-9.27 0-3.1-4.1-4.9-6.68-4.9h-3.1l1.04-3.08h49.9M6325.57 11442.86l3.6 3.34c-18 22.12-35.5 28.3-51.44 28.3-25.2 0-35.23-21.6-35.23-40.13 0-5.9.26-9.5 1.55-15.43 6.42-28.54 34.7-60.7 67.37-60.7 10.8 0 26.23 3.6 26.23 19.56 0 32.66-42.94 45.26-73.55 46.8v7.2c0 16.46 13.38 27.52 29.06 27.52 10.8 0 23.15-4.63 32.4-16.46m-61.46-25.46h2.32c26.74 0 50.92-17.74 50.92-40.38 0-6.43-4.9-11.05-11.32-11.05-19.03 0-34.46 29.57-41.92 51.43M6482.18 11299.87l-38.32 153.8c-.25.76-.5 2.3-.5 3.08 0 1.54 1.28 2.3 3.85 2.3 5.15 0 12.35-9 15.95-14.4l2.83 3.1c-7.7 11.57-21.34 27-33.43 27-8.23 0-10.3-5.92-10.3-10.55 0-5.14.53-8.74 2.58-16.45h-1.28c-19.03 23.9-34.46 27-43.98 27-18.77 0-22.63-19.03-22.63-32.66 0-26.5 26.5-83.85 66.1-83.85 14.65 0 20.57 6.7 20.82 12.86h.52l13.63-53.74c.27-1.03.52-2.06.52-3.08 0-3.35-1.8-5.15-8.48-5.15-2.32 0-5.15.52-6.95.77l-1.04-3.85m-2.05 78.18c0-12.1-3.85-18.26-14.4-18.26-25.45 0-46.3 51.43-46.3 76.12 0 12.6 7.22 16.96 14.42 16.96 18 0 34.97-24.17 42.17-47.83 2.82-9 4.1-19.03 4.1-27"/><path d="M8000 11160h1000.04v416H8000z" fill="#fff" fill-opacity="0"/><path d="M8249.17 11437.1H8145.5v-5.82h5.82c20.37 0 26.2-7.64 26.2-22.2 0-2.17-.38-5.08-.74-7.63l-4.73-41.1h-72.02l-30.55 50.92c-2.55 2.9-3.64 6.92-3.64 9.46.36 6.55 6.18 10.55 15.64 10.55h10.55v5.82h-79.3v-5.82c12.73-1.45 26.2-5.82 39.3-26.92l129.48-209.88h6.56l28.37 211.34c2.54 17.82 11.64 25.46 26.9 25.46h5.84v5.82m-79.66-90.2l-9.1-82.58h-2.17l-50.56 82.57h61.84M8324.58 11379.28h9.52c16.2 0 14.9-19.8 25.97-36.26 7.97-12.1 19.03-23.15 38.58-23.15 12.85 0 20.3 6.18 20.3 15.18 0 7.2-5.4 10.28-10.53 10.28-7.2 0-9-2.83-9-6.42 0-3.6 2.3-7.45 2.3-9.5 0-1.3-.76-2.07-3.84-2.07-12.86 0-22.9 13.9-28.3 33.95l-4.88 18h20.57l-3.08 9.77h-19.56l-20.3 78.7c-1.8 6.94-3.87 16.7-7.73 26.23-8.48 21.34-22.36 45.77-45 45.77-12.34 0-18.5-6.17-18.5-13.9 0-6.16 3.6-12.6 11.05-12.6 6.94 0 9.52 4.64 9.52 8.5 0 4.9-4.12 5.14-4.12 8.23 0 1.54 1.54 2.32 3.86 2.32 16.72 0 24.44-40.64 28.3-55.3l22.37-87.95h-19.8M8533.15 11381.6l-22.9 89.5c-.25 1.02-.25 1.53-.25 2.3 0 2.06 1.03 3.6 3.6 3.6 5.4 0 10.3-6.68 14.66-11.83l1.28-1.54 3.35 2.83c-5.93 8.5-19.04 27.52-33.96 27.52-7.46 0-10.28-4.9-10.28-13.38 0-2.3.25-6.43 1.02-9.5l6.7-24.44h-.27c-1.8 1.28-24.93 32.4-35.22 40.12-5.9 4.37-12.6 7.2-18.5 7.2-12.1 0-15.7-9.26-15.7-19.03 0-5.4.77-10.3 2.06-15.18l15.17-59.4c1.04-3.86 1.55-5.4 1.55-6.43 0-3.1-2.83-5.92-8.5-5.92-1.8 0-4.87.26-6.67.77l-.77-3.86 40.38-6.7-21.6 83.85c-.52 2.3-.77 4.1-.77 6.16 0 5.4 2.07 8.74 6.7 8.74 6.42 0 16.7-7.97 25.7-19.8 11.07-14.66 22.9-37.55 28.04-56.32l5.4-19.28h19.8M8613.9 11379.02l-2.58 9.77h-18l-20.06 82.3c-.25.76-.5 2.05-.5 2.82 0 1.54.76 3.08 4.1 3.08 0 0 5.92-.5 15.43-13.37l3.34 2.83c-6.18 7.97-19.03 27.52-34.2 27.52-7.98 0-10.04-6.43-10.04-13.38 0-3.34.52-6.68 1.3-9.5l20.82-82.3h-19.8l1.28-7.46c19.3-3.6 34.98-13.12 45.52-35.5h3.35l-7.98 33.18h18M8735.8 11381.6l-22.9 89.5c-.25 1.02-.25 1.53-.25 2.3 0 2.06 1.03 3.6 3.6 3.6 5.4 0 10.28-6.68 14.66-11.83l1.3-1.54 3.33 2.83c-5.9 8.5-19.03 27.52-33.94 27.52-7.47 0-10.3-4.9-10.3-13.38 0-2.3.26-6.43 1.03-9.5l6.7-24.44h-.27c-1.8 1.28-24.94 32.4-35.23 40.12-5.92 4.37-12.6 7.2-18.52 7.2-12.07 0-15.67-9.26-15.67-19.03 0-5.4.77-10.3 2.05-15.18l15.18-59.4c1.02-3.86 1.54-5.4 1.54-6.43 0-3.1-2.83-5.92-8.5-5.92-1.8 0-4.87.26-6.67.77l-.78-3.86 40.38-6.7-21.6 83.85c-.52 2.3-.77 4.1-.77 6.16 0 5.4 2.05 8.74 6.68 8.74 6.43 0 16.72-7.97 25.72-19.8 11.06-14.66 22.9-37.55 28.03-56.32l5.4-19.28h19.8M8788.77 11423l1.28.26c2.32-4.63 5.4-9.78 8.23-14.4 8.75-13.9 21.1-30.6 35.24-30.6 7.45 0 11.3 5.4 11.3 12.33 0 9.77-6.16 21.08-16.7 21.08-10.03 0-7.46-9.77-12.1-9.77-15.68 0-38.05 65.85-39.34 70.22l-5.4 19.54h-19.8l23.66-93.6c.77-2.84 1.03-4.64 1.03-5.92 0-3.34-2.83-4.9-8.5-4.9-1.8 0-5.4.53-6.93.78l-.52-3.85 40.38-5.92M8942.04 11462.86l3.6 3.34c-18 22.12-35.5 28.3-51.43 28.3-25.2 0-35.22-21.6-35.22-40.13 0-5.9.25-9.5 1.54-15.43 6.43-28.54 34.72-60.7 67.38-60.7 10.8 0 26.23 3.6 26.23 19.56 0 32.66-42.95 45.26-73.55 46.8v7.2c0 16.46 13.37 27.52 29.06 27.52 10.8 0 23.14-4.63 32.4-16.46m-61.46-25.46h2.3c26.76 0 50.93-17.74 50.93-40.38 0-6.43-4.88-11.05-11.3-11.05-19.03 0-34.46 29.57-41.92 51.43"/><path d="M10580 11180h806.13v369.96H10580z" fill="#fff" fill-opacity="0"/><path d="M10829.17 11457.1h-103.67v-5.82h5.82c20.37 0 26.2-7.64 26.2-22.2 0-2.17-.38-5.08-.74-7.63l-4.73-41.1h-72.02l-30.56 50.92c-2.54 2.9-3.63 6.92-3.63 9.46.36 6.55 6.18 10.55 15.64 10.55h10.55v5.82h-79.3v-5.82c12.73-1.45 26.2-5.82 39.28-26.92l129.5-209.88h6.56l28.37 211.34c2.54 17.82 11.64 25.46 26.9 25.46h5.84v5.82m-79.67-90.2l-9.1-82.58h-2.17l-50.56 82.57h61.83M10953.44 11437.85c0 35.75-28.28 76.64-67.63 76.64-25.97 0-34.7-23.15-34.7-41.93 0-32.9 26.48-74.32 64.54-74.32 20.57 0 37.8 11.83 37.8 39.6m-20.83-7.97c0-9.77-3.6-23.9-17.22-23.9-21.08 0-43.46 38.3-43.46 73.28 0 8.5.77 27.52 15.17 27.52 27.25 0 45.5-57.35 45.5-76.9M11130.12 11484.15l3.34 2.82c-8.23 13.9-21.6 26.75-33.7 26.75-5.65 0-10.02-2.57-10.02-12.6 0-1.8.26-4.37 1.55-9.52l14.4-56.83c1.02-3.6 1.53-5.92 1.53-10.3 0-5.13-1.54-9.76-6.17-9.76-13.9 0-42.18 46.56-46.03 62.24l-8.75 34.72h-20.32l19.8-76.9c.52-2.3 1.3-6.42 1.3-10.28 0-5.14-1.3-9.77-5.92-9.77-13.38 0-41.66 46.56-45.78 62.24l-9 34.72h-20.06l24.43-96.18c0-4.63-1.54-7.97-8.48-7.97-2.06 0-4.9.27-6.95.52l-.5-3.6 40.36-6.17-11.3 43.46h1.53c24.17-36.76 39.6-43.45 49.37-43.45 9.5 0 14.14 9.52 14.14 20.83 0 4.37-.76 8.23-2.3 13.38l-2.57 9.25h1.28c7.47-13.36 20.84-29.3 33.44-37.8 5.66-3.85 10.55-5.65 15.7-5.65 9.25 0 13.88 6.7 13.88 18.26 0 4.64-.26 9.52-1.8 15.7l-15.7 59.4c-.25.77-.5 2.32-.5 3.1 0 2.05 1.54 3.07 3.85 3.07 4.38 0 11.06-4.1 15.95-13.63M11261.27 11486.97l-1.28 1.55c-7.2 8.74-19.56 25.2-32.93 25.2-8.23 0-10.54-5.9-10.54-11.83 0-3.35 1.02-7.47 1.8-10.3l14.66-56.83c.5-2.06 1.78-7.2 1.78-10.8 0-4.9-1.54-9.77-6.17-9.77-9.76 0-25.96 22.1-33.93 34.2-9.26 13.9-15.95 25.97-17.5 31.37l-8.48 31.9h-19.8l24.42-96.2c0-4.62-.77-8.22-7.7-8.22-2.6 0-5.4.52-7.2.77l-.53-3.85 40.88-5.92-13.1 48.6h.76c1.28 0 13.9-18 14.4-18.77 10.3-12.86 25.72-29.83 41.15-29.83 11.3 0 14.4 7.46 14.4 15.95 0 6.42-1.56 12.85-2.84 18l-15.17 59.4c-.27.52-.27 1.3-.27 2.57.26 1.55 1.03 3.6 3.86 3.6 6.16 0 12.33-9.25 15.93-13.63M11335.34 11366.1c0 6.7-5.66 11.83-12.35 11.83-7.47 0-12.35-5.14-12.35-11.83 0-6.42 4.9-12.85 12.34-12.85 6.68 0 12.34 6.43 12.34 12.85m-7.72 32.15l-23.66 93.6c-.25 1.55-.25 2.58-.25 3.6 0 1.8 1.55 2.58 3.35 2.58 5.66 0 7.2-3.08 16.46-13.1l3.35 2.56c-9 11.56-21.86 27-34.46 27-7.2 0-10.3-4.9-10.3-11.84 0-3.08 0-7.97 20.32-86.92.26-.52.5-2.32.5-3.1 0-4.36-2.04-5.64-7.96-5.64-2.3 0-5.4.5-7.2 1.02l-.77-4.1"/><defs><path d="M101-251c68 0 84 54 84 127C185-50 166 4 99 4S15-52 14-124c-1-75 17-127 87-127zm-1 216c37-5 36-46 36-89s4-89-36-89c-39 0-36 45-36 89 0 43-3 85 36 89" id="G"/><path d="M24 0v-54h51V0H24" id="H"/><path d="M182-182c0 78-84 86-111 141h115V0H12c-6-101 99-100 120-180 1-22-12-31-33-32-23 0-32 14-35 34l-49-3c5-45 32-70 84-70 51 0 83 22 83 69" id="I"/><path d="M139-81c0-46-55-55-73-27H18l9-140h149v37H72l-4 63c44-38 133-4 122 66C201 21 21 35 11-62l49-4c5 18 15 30 39 30 26 0 40-18 40-45" id="J"/><g id="a"><use transform="matrix(0.19753086419753055,0,0,0.19753086419753055,0,0)" xlink:href="#G"/><use transform="matrix(0.19753086419753055,0,0,0.19753086419753055,39.50617283950611,0)" xlink:href="#H"/><use transform="matrix(0.19753086419753055,0,0,0.19753086419753055,59.25925925925917,0)" xlink:href="#I"/><use transform="matrix(0.19753086419753055,0,0,0.19753086419753055,98.76543209876527,0)" xlink:href="#J"/></g><path d="M52 0c1-96 47-148 87-207H15v-41h169v40c-36 62-79 113-81 208H52" id="K"/><g id="b"><use transform="matrix(0.19753086419753055,0,0,0.19753086419753055,0,0)" xlink:href="#G"/><use transform="matrix(0.19753086419753055,0,0,0.19753086419753055,39.50617283950611,0)" xlink:href="#H"/><use transform="matrix(0.19753086419753055,0,0,0.19753086419753055,59.25925925925917,0)" xlink:href="#I"/><use transform="matrix(0.19753086419753055,0,0,0.19753086419753055,98.76543209876527,0)" xlink:href="#K"/></g><path d="M14-72v-43h91v43H14" id="L"/><path d="M138-131c27 9 52 24 51 61 0 53-36 74-89 74S11-19 11-69c0-35 22-54 51-61-78-25-46-121 38-121 51 0 83 19 83 66 0 30-18 49-45 54zm-38-16c24 0 32-13 32-36 1-23-11-34-32-34-22 0-33 12-32 34 0 22 9 36 32 36zm1 116c27 0 37-17 37-43 0-25-13-39-39-39-24 0-37 15-37 40 0 27 11 42 39 42" id="M"/><g id="c"><use transform="matrix(0.19753086419753055,0,0,0.19753086419753055,0,0)" xlink:href="#L"/><use transform="matrix(0.19753086419753055,0,0,0.19753086419753055,23.506172839506135,0)" xlink:href="#G"/><use transform="matrix(0.19753086419753055,0,0,0.19753086419753055,63.01234567901224,0)" xlink:href="#H"/><use transform="matrix(0.19753086419753055,0,0,0.19753086419753055,82.7654320987653,0)" xlink:href="#M"/></g><path d="M23 0v-37h61v-169l-59 37v-38l62-41h46v211h57V0H23" id="N"/><g id="d"><use transform="matrix(0.19753086419753055,0,0,0.19753086419753055,0,0)" xlink:href="#L"/><use transform="matrix(0.19753086419753055,0,0,0.19753086419753055,23.506172839506135,0)" xlink:href="#N"/><use transform="matrix(0.19753086419753055,0,0,0.19753086419753055,63.01234567901224,0)" xlink:href="#H"/><use transform="matrix(0.19753086419753055,0,0,0.19753086419753055,82.7654320987653,0)" xlink:href="#G"/><use transform="matrix(0.19753086419753055,0,0,0.19753086419753055,122.27160493827141,0)" xlink:href="#M"/></g><path d="M165-50V0h-47v-50H5v-38l105-160h55v161h33v37h-33zm-47-37l2-116L46-87h72" id="O"/><path d="M115-159c48 0 72 30 72 78 0 54-30 85-83 85-64 0-91-50-91-122 0-98 58-163 141-120 15 8 21 24 27 44l-47 6c-5-31-48-31-61-4-7 14-11 33-11 60 9-17 28-27 53-27zM102-35c24 0 36-20 36-45s-11-43-37-43c-23 0-36 14-36 38 0 27 11 50 37 50" id="P"/><g id="e"><use transform="matrix(0.19753086419753055,0,0,0.19753086419753055,0,0)" xlink:href="#G"/><use transform="matrix(0.19753086419753055,0,0,0.19753086419753055,39.50617283950611,0)" xlink:href="#H"/><use transform="matrix(0.19753086419753055,0,0,0.19753086419753055,59.25925925925917,0)" xlink:href="#O"/><use transform="matrix(0.19753086419753055,0,0,0.19753086419753055,98.76543209876527,0)" xlink:href="#P"/></g><g id="f"><use transform="matrix(0.19753086419753055,0,0,0.19753086419753055,0,0)" xlink:href="#N"/><use transform="matrix(0.19753086419753055,0,0,0.19753086419753055,39.50617283950611,0)" xlink:href="#H"/><use transform="matrix(0.19753086419753055,0,0,0.19753086419753055,59.25925925925917,0)" xlink:href="#I"/><use transform="matrix(0.19753086419753055,0,0,0.19753086419753055,98.76543209876527,0)" xlink:href="#I"/></g><path d="M128-127c34 4 56 21 59 58 7 91-148 94-172 28-4-9-6-17-7-26l51-5c1 24 16 35 40 36 23 0 39-12 38-36-1-31-31-36-65-34v-40c32 2 59-3 59-33 0-20-13-33-34-33s-33 13-35 32l-50-3c6-44 37-68 86-68 50 0 83 20 83 66 0 35-22 52-53 58" id="Q"/><g id="g"><use transform="matrix(0.19753086419753055,0,0,0.19753086419753055,0,0)" xlink:href="#N"/><use transform="matrix(0.19753086419753055,0,0,0.19753086419753055,39.50617283950611,0)" xlink:href="#H"/><use transform="matrix(0.19753086419753055,0,0,0.19753086419753055,59.25925925925917,0)" xlink:href="#Q"/><use transform="matrix(0.19753086419753055,0,0,0.19753086419753055,98.76543209876527,0)" xlink:href="#N"/></g><g id="h"><use transform="matrix(0.19753086419753055,0,0,0.19753086419753055,0,0)" xlink:href="#N"/><use transform="matrix(0.19753086419753055,0,0,0.19753086419753055,39.50617283950611,0)" xlink:href="#H"/><use transform="matrix(0.19753086419753055,0,0,0.19753086419753055,59.25925925925917,0)" xlink:href="#G"/><use transform="matrix(0.19753086419753055,0,0,0.19753086419753055,98.76543209876527,0)" xlink:href="#O"/></g><g id="i"><use transform="matrix(0.19753086419753055,0,0,0.19753086419753055,0,0)" xlink:href="#L"/><use transform="matrix(0.19753086419753055,0,0,0.19753086419753055,23.506172839506135,0)" xlink:href="#G"/><use transform="matrix(0.19753086419753055,0,0,0.19753086419753055,63.01234567901224,0)" xlink:href="#H"/><use transform="matrix(0.19753086419753055,0,0,0.19753086419753055,82.7654320987653,0)" xlink:href="#J"/><use transform="matrix(0.19753086419753055,0,0,0.19753086419753055,122.27160493827141,0)" xlink:href="#N"/></g><g id="j"><use transform="matrix(0.19753086419753055,0,0,0.19753086419753055,0,0)" xlink:href="#G"/><use transform="matrix(0.19753086419753055,0,0,0.19753086419753055,39.50617283950611,0)" xlink:href="#H"/><use transform="matrix(0.19753086419753055,0,0,0.19753086419753055,59.25925925925917,0)" xlink:href="#G"/><use transform="matrix(0.19753086419753055,0,0,0.19753086419753055,98.76543209876527,0)" xlink:href="#K"/></g><g id="k"><use transform="matrix(0.19753086419753055,0,0,0.19753086419753055,0,0)" xlink:href="#N"/><use transform="matrix(0.19753086419753055,0,0,0.19753086419753055,39.50617283950611,0)" xlink:href="#H"/><use transform="matrix(0.19753086419753055,0,0,0.19753086419753055,59.25925925925917,0)" xlink:href="#N"/><use transform="matrix(0.19753086419753055,0,0,0.19753086419753055,98.76543209876527,0)" xlink:href="#Q"/></g><g id="l"><use transform="matrix(0.19753086419753055,0,0,0.19753086419753055,0,0)" xlink:href="#G"/><use transform="matrix(0.19753086419753055,0,0,0.19753086419753055,39.50617283950611,0)" xlink:href="#H"/><use transform="matrix(0.19753086419753055,0,0,0.19753086419753055,59.25925925925917,0)" xlink:href="#P"/><use transform="matrix(0.19753086419753055,0,0,0.19753086419753055,98.76543209876527,0)" xlink:href="#N"/></g><g id="m"><use transform="matrix(0.19753086419753055,0,0,0.19753086419753055,0,0)" xlink:href="#N"/><use transform="matrix(0.19753086419753055,0,0,0.19753086419753055,39.50617283950611,0)" xlink:href="#H"/><use transform="matrix(0.19753086419753055,0,0,0.19753086419753055,59.25925925925917,0)" xlink:href="#K"/><use transform="matrix(0.19753086419753055,0,0,0.19753086419753055,98.76543209876527,0)" xlink:href="#Q"/></g><path d="M99-251c69 0 84 53 88 123 5 99-61 162-144 118-15-8-21-25-26-45l46-6c4 31 50 33 63 7 7-15 12-36 12-60-9 18-29 28-54 28-48 0-72-32-72-82 0-55 31-83 87-83zm-1 128c24 0 37-16 37-39 0-27-10-51-37-51-25 0-35 19-35 45 0 25 10 45 35 45" id="R"/><g id="n"><use transform="matrix(0.19753086419753055,0,0,0.19753086419753055,0,0)" xlink:href="#L"/><use transform="matrix(0.19753086419753055,0,0,0.19753086419753055,23.506172839506135,0)" xlink:href="#N"/><use transform="matrix(0.19753086419753055,0,0,0.19753086419753055,63.01234567901224,0)" xlink:href="#H"/><use transform="matrix(0.19753086419753055,0,0,0.19753086419753055,82.7654320987653,0)" xlink:href="#R"/><use transform="matrix(0.19753086419753055,0,0,0.19753086419753055,122.27160493827141,0)" xlink:href="#Q"/></g><g id="o"><use transform="matrix(0.19753086419753055,0,0,0.19753086419753055,0,0)" xlink:href="#N"/><use transform="matrix(0.19753086419753055,0,0,0.19753086419753055,39.50617283950611,0)" xlink:href="#H"/><use transform="matrix(0.19753086419753055,0,0,0.19753086419753055,59.25925925925917,0)" xlink:href="#I"/><use transform="matrix(0.19753086419753055,0,0,0.19753086419753055,98.76543209876527,0)" xlink:href="#R"/></g><path d="M195 0l-88-114-31 24V0H24v-248h52v113l112-113h60L142-143 257 0h-62" id="S"/><path d="M185-48c-13 30-37 53-82 52C43 2 14-33 14-96s30-98 90-98c62 0 83 45 84 108H66c0 31 8 55 39 56 18 0 30-7 34-22zm-45-69c5-46-57-63-70-21-2 6-4 13-4 21h74" id="T"/><path d="M123 10C108 53 80 86 19 72V37c35 8 53-11 59-39L3-190h52l48 148c12-52 28-100 44-148h51" id="U"/><path d="M137-138c1-29-70-34-71-4 15 46 118 7 119 86 1 83-164 76-172 9l43-7c4 19 20 25 44 25 33 8 57-30 24-41C81-84 22-81 20-136c-2-80 154-74 161-7" id="V"/><g id="p"><use transform="matrix(0.25925925925925875,0,0,0.25925925925925875,0,0)" xlink:href="#S"/><use transform="matrix(0.25925925925925875,0,0,0.25925925925925875,67.14814814814801,0)" xlink:href="#T"/><use transform="matrix(0.25925925925925875,0,0,0.25925925925925875,118.99999999999976,0)" xlink:href="#U"/><use transform="matrix(0.25925925925925875,0,0,0.25925925925925875,170.8518518518515,0)" xlink:href="#V"/></g><path d="M140-251c80 0 125 45 125 126 0 70-33 111-92 124 6 28 34 38 68 31l-1 36C177 83 129 55 120 2 51-6 15-50 15-125c0-81 44-126 125-126zm-1 214c52 0 73-35 73-88 0-50-21-86-72-86-52 0-73 35-73 86s22 88 72 88" id="W"/><path d="M85 4C-2 5 27-109 22-190h50c7 57-23 150 33 157 60-5 35-97 40-157h50l1 190h-47c-2-12 1-28-3-38-12 25-28 42-61 42" id="X"/><path d="M135-150c-39-12-60 13-60 57V0H25l-1-190h47c2 13-1 29 3 40 6-28 27-53 61-41v41" id="Y"/><path d="M25-224v-37h50v37H25zM25 0v-190h50V0H25" id="Z"/><g id="q"><use transform="matrix(0.25925925925925875,0,0,0.25925925925925875,0,0)" xlink:href="#W"/><use transform="matrix(0.25925925925925875,0,0,0.25925925925925875,72.59259259259245,0)" xlink:href="#X"/><use transform="matrix(0.25925925925925875,0,0,0.25925925925925875,129.37037037037013,0)" xlink:href="#T"/><use transform="matrix(0.25925925925925875,0,0,0.25925925925925875,181.2222222222219,0)" xlink:href="#Y"/><use transform="matrix(0.25925925925925875,0,0,0.25925925925925875,217.5185185185181,0)" xlink:href="#Z"/><use transform="matrix(0.25925925925925875,0,0,0.25925925925925875,243.44444444444397,0)" xlink:href="#T"/><use transform="matrix(0.25925925925925875,0,0,0.25925925925925875,295.29629629629574,0)" xlink:href="#V"/></g><path d="M136-208V0H84v-208H4v-40h212v40h-80" id="aa"/><g id="r"><use transform="matrix(0.19753086419753055,0,0,0.19753086419753055,0,0)" xlink:href="#aa"/><use transform="matrix(0.19753086419753055,0,0,0.19753086419753055,43.25925925925919,0)" xlink:href="#N"/></g><g id="s"><use transform="matrix(0.19753086419753055,0,0,0.19753086419753055,0,0)" xlink:href="#aa"/><use transform="matrix(0.19753086419753055,0,0,0.19753086419753055,43.25925925925919,0)" xlink:href="#I"/></g><g id="t"><use transform="matrix(0.19753086419753055,0,0,0.19753086419753055,0,0)" xlink:href="#aa"/><use transform="matrix(0.19753086419753055,0,0,0.19753086419753055,43.25925925925919,0)" xlink:href="#Q"/></g><g id="u"><use transform="matrix(0.19753086419753055,0,0,0.19753086419753055,0,0)" xlink:href="#aa"/><use transform="matrix(0.19753086419753055,0,0,0.19753086419753055,43.25925925925919,0)" xlink:href="#O"/></g><g id="v"><use transform="matrix(0.19753086419753055,0,0,0.19753086419753055,0,0)" xlink:href="#aa"/><use transform="matrix(0.19753086419753055,0,0,0.19753086419753055,43.25925925925919,0)" xlink:href="#J"/></g><path d="M135-194c87-1 58 113 63 194h-50c-7-57 23-157-34-157-59 0-34 97-39 157H25l-1-190h47c2 12-1 28 3 38 12-26 28-41 61-42" id="ab"/><path d="M121-226c-27-7-43 5-38 36h38v33H83V0H34v-157H6v-33h28c-9-59 32-81 87-68v32" id="ac"/><g id="w"><use transform="matrix(0.19753086419753055,0,0,0.19753086419753055,0,0)" xlink:href="#L"/><use transform="matrix(0.19753086419753055,0,0,0.19753086419753055,23.506172839506135,0)" xlink:href="#Z"/><use transform="matrix(0.19753086419753055,0,0,0.19753086419753055,43.25925925925919,0)" xlink:href="#ab"/><use transform="matrix(0.19753086419753055,0,0,0.19753086419753055,86.51851851851838,0)" xlink:href="#ac"/></g><g id="x"><use transform="matrix(0.19753086419753055,0,0,0.19753086419753055,0,0)" xlink:href="#L"/><use transform="matrix(0.19753086419753055,0,0,0.19753086419753055,23.506172839506135,0)" xlink:href="#G"/><use transform="matrix(0.19753086419753055,0,0,0.19753086419753055,63.01234567901224,0)" xlink:href="#H"/><use transform="matrix(0.19753086419753055,0,0,0.19753086419753055,82.7654320987653,0)" xlink:href="#G"/><use transform="matrix(0.19753086419753055,0,0,0.19753086419753055,122.27160493827141,0)" xlink:href="#Q"/></g><g id="y"><use transform="matrix(0.19753086419753055,0,0,0.19753086419753055,0,0)" xlink:href="#N"/><use transform="matrix(0.19753086419753055,0,0,0.19753086419753055,39.50617283950611,0)" xlink:href="#H"/><use transform="matrix(0.19753086419753055,0,0,0.19753086419753055,59.25925925925917,0)" xlink:href="#G"/><use transform="matrix(0.19753086419753055,0,0,0.19753086419753055,98.76543209876527,0)" xlink:href="#N"/></g><g id="z"><use transform="matrix(0.19753086419753055,0,0,0.19753086419753055,0,0)" xlink:href="#L"/><use transform="matrix(0.19753086419753055,0,0,0.19753086419753055,23.506172839506135,0)" xlink:href="#N"/><use transform="matrix(0.19753086419753055,0,0,0.19753086419753055,63.01234567901224,0)" xlink:href="#H"/><use transform="matrix(0.19753086419753055,0,0,0.19753086419753055,82.7654320987653,0)" xlink:href="#I"/><use transform="matrix(0.19753086419753055,0,0,0.19753086419753055,122.27160493827141,0)" xlink:href="#I"/></g><g id="A"><use transform="matrix(0.19753086419753055,0,0,0.19753086419753055,0,0)" xlink:href="#G"/><use transform="matrix(0.19753086419753055,0,0,0.19753086419753055,39.50617283950611,0)" xlink:href="#H"/><use transform="matrix(0.19753086419753055,0,0,0.19753086419753055,59.25925925925917,0)" xlink:href="#K"/><use transform="matrix(0.19753086419753055,0,0,0.19753086419753055,98.76543209876527,0)" xlink:href="#I"/></g><g id="B"><use transform="matrix(0.19753086419753055,0,0,0.19753086419753055,0,0)" xlink:href="#L"/><use transform="matrix(0.19753086419753055,0,0,0.19753086419753055,23.506172839506135,0)" xlink:href="#G"/><use transform="matrix(0.19753086419753055,0,0,0.19753086419753055,63.01234567901224,0)" xlink:href="#H"/><use transform="matrix(0.19753086419753055,0,0,0.19753086419753055,82.7654320987653,0)" xlink:href="#N"/><use transform="matrix(0.19753086419753055,0,0,0.19753086419753055,122.27160493827141,0)" xlink:href="#P"/></g><g id="C"><use transform="matrix(0.19753086419753055,0,0,0.19753086419753055,0,0)" xlink:href="#I"/><use transform="matrix(0.19753086419753055,0,0,0.19753086419753055,39.50617283950611,0)" xlink:href="#H"/><use transform="matrix(0.19753086419753055,0,0,0.19753086419753055,59.25925925925917,0)" xlink:href="#G"/><use transform="matrix(0.19753086419753055,0,0,0.19753086419753055,98.76543209876527,0)" xlink:href="#K"/></g><g id="D"><use transform="matrix(0.19753086419753055,0,0,0.19753086419753055,0,0)" xlink:href="#G"/><use transform="matrix(0.19753086419753055,0,0,0.19753086419753055,39.50617283950611,0)" xlink:href="#H"/><use transform="matrix(0.19753086419753055,0,0,0.19753086419753055,59.25925925925917,0)" xlink:href="#R"/><use transform="matrix(0.19753086419753055,0,0,0.19753086419753055,98.76543209876527,0)" xlink:href="#J"/></g><g id="E"><use transform="matrix(0.19753086419753055,0,0,0.19753086419753055,0,0)" xlink:href="#L"/><use transform="matrix(0.19753086419753055,0,0,0.19753086419753055,23.506172839506135,0)" xlink:href="#N"/><use transform="matrix(0.19753086419753055,0,0,0.19753086419753055,63.01234567901224,0)" xlink:href="#H"/><use transform="matrix(0.19753086419753055,0,0,0.19753086419753055,82.7654320987653,0)" xlink:href="#N"/><use transform="matrix(0.19753086419753055,0,0,0.19753086419753055,122.27160493827141,0)" xlink:href="#M"/></g><g id="F"><use transform="matrix(0.19753086419753055,0,0,0.19753086419753055,0,0)" xlink:href="#N"/><use transform="matrix(0.19753086419753055,0,0,0.19753086419753055,39.50617283950611,0)" xlink:href="#H"/><use transform="matrix(0.19753086419753055,0,0,0.19753086419753055,59.25925925925917,0)" xlink:href="#P"/><use transform="matrix(0.19753086419753055,0,0,0.19753086419753055,98.76543209876527,0)" xlink:href="#J"/></g></defs></g></svg>