<svg xmlns="http://www.w3.org/2000/svg" xmlns:xlink="http://www.w3.org/1999/xlink" version="1.1" class="marks" width="600" height="300" viewBox="0 0 600 300"><rect width="600" height="300" fill="white"/><g fill="none" stroke-miterlimit="10" transform="translate(41,22)"><g class="mark-group role-frame root" role="graphics-object" aria-roledescription="group mark container"><g transform="translate(0,0)"><path class="background" aria-hidden="true" d="M0.5,0.5h438v241h-438Z" stroke="#ddd"/><g><g class="mark-group role-axis" aria-hidden="true"><g transform="translate(0.5,241.5)"><path class="background" aria-hidden="true" d="M0,0h0v0h0Z" pointer-events="none"/><g><g class="mark-rule role-axis-grid" pointer-events="none"><line transform="translate(28,-241)" x2="0" y2="241" stroke="#ddd" stroke-width="1" opacity="1"/><line transform="translate(271,-241)" x2="0" y2="241" stroke="#ddd" stroke-width="1" opacity="1"/><line transform="translate(77,-241)" x2="0" y2="241" stroke="#ddd" stroke-width="1" opacity="1"/><line transform="translate(125,-241)" x2="0" y2="241" stroke="#ddd" stroke-width="1" opacity="1"/><line transform="translate(174,-241)" x2="0" y2="241" stroke="#ddd" stroke-width="1" opacity="1"/><line transform="translate(222,-241)" x2="0" y2="241" stroke="#ddd" stroke-width="1" opacity="1"/><line transform="translate(320,-241)" x2="0" y2="241" stroke="#ddd" stroke-width="1" opacity="1"/><line transform="translate(368,-241)" x2="0" y2="241" stroke="#ddd" stroke-width="1" opacity="1"/><line transform="translate(417,-241)" x2="0" y2="241" stroke="#ddd" stroke-width="1" opacity="1"/></g></g><path class="foreground" aria-hidden="true" d="" pointer-events="none" display="none"/></g></g><g class="mark-group role-axis" aria-hidden="true"><g transform="translate(0.5,0.5)"><path class="background" aria-hidden="true" d="M0,0h0v0h0Z" pointer-events="none"/><g><g class="mark-rule role-axis-grid" pointer-events="none"><line transform="translate(0,220)" x2="438" y2="0" stroke="#ddd" stroke-width="1" opacity="1"/><line transform="translate(0,6)" x2="438" y2="0" stroke="#ddd" stroke-width="1" opacity="1"/><line transform="translate(0,113)" x2="438" y2="0" stroke="#ddd" stroke-width="1" opacity="1"/><line transform="translate(0,166)" x2="438" y2="0" stroke="#ddd" stroke-width="1" opacity="1"/><line transform="translate(0,59)" x2="438" y2="0" stroke="#ddd" stroke-width="1" opacity="1"/></g></g><path class="foreground" aria-hidden="true" d="" pointer-events="none" display="none"/></g></g><g class="mark-group role-axis" role="graphics-symbol" aria-roledescription="axis" aria-label="X-axis titled 'train loss' for a linear scale with values from 2.779 to 2.797"><g transform="translate(0.5,241.5)"><path class="background" aria-hidden="true" d="M0,0h0v0h0Z" pointer-events="none"/><g><g class="mark-rule role-axis-tick" pointer-events="none"><line transform="translate(28,0)" x2="0" y2="5" stroke="#888" stroke-width="1" opacity="1"/><line transform="translate(271,0)" x2="0" y2="5" stroke="#888" stroke-width="1" opacity="1"/><line transform="translate(77,0)" x2="0" y2="5" stroke="#888" stroke-width="1" opacity="1"/><line transform="translate(125,0)" x2="0" y2="5" stroke="#888" stroke-width="1" opacity="1"/><line transform="translate(174,0)" x2="0" y2="5" stroke="#888" stroke-width="1" opacity="1"/><line transform="translate(222,0)" x2="0" y2="5" stroke="#888" stroke-width="1" opacity="1"/><line transform="translate(320,0)" x2="0" y2="5" stroke="#888" stroke-width="1" opacity="1"/><line transform="translate(368,0)" x2="0" y2="5" stroke="#888" stroke-width="1" opacity="1"/><line transform="translate(417,0)" x2="0" y2="5" stroke="#888" stroke-width="1" opacity="1"/></g><g class="mark-text role-axis-label" pointer-events="none"><text text-anchor="middle" transform="translate(28.239503477501692,15)" font-family="sans-serif" font-size="10px" fill="#000" opacity="1">2.780</text><text text-anchor="middle" transform="translate(270.9592541263187,15)" font-family="sans-serif" font-size="10px" fill="#000" opacity="1">2.790</text><text text-anchor="middle" transform="translate(76.78345360726941,15)" font-family="sans-serif" font-size="10px" fill="#000" opacity="1">2.782</text><text text-anchor="middle" transform="translate(125.32740373702633,15)" font-family="sans-serif" font-size="10px" fill="#000" opacity="1">2.784</text><text text-anchor="middle" transform="translate(173.87135386679404,15)" font-family="sans-serif" font-size="10px" fill="#000" opacity="1">2.786</text><text text-anchor="middle" transform="translate(222.415303996551,15)" font-family="sans-serif" font-size="10px" fill="#000" opacity="1">2.788</text><text text-anchor="middle" transform="translate(319.5032042560756,15)" font-family="sans-serif" font-size="10px" fill="#000" opacity="1">2.792</text><text text-anchor="middle" transform="translate(368.0471543858433,15)" font-family="sans-serif" font-size="10px" fill="#000" opacity="1">2.794</text><text text-anchor="middle" transform="translate(416.59110451560025,15)" font-family="sans-serif" font-size="10px" fill="#000" opacity="1">2.796</text></g><g class="mark-rule role-axis-domain" pointer-events="none"><line transform="translate(0,0)" x2="438" y2="0" stroke="#888" stroke-width="1" opacity="1"/></g><g class="mark-text role-axis-title" pointer-events="none"><text text-anchor="middle" transform="translate(219,30)" font-family="sans-serif" font-size="11px" font-weight="bold" fill="#000" opacity="1">train loss</text></g></g><path class="foreground" aria-hidden="true" d="" pointer-events="none" display="none"/></g></g><g class="mark-group role-axis" role="graphics-symbol" aria-roledescription="axis" aria-label="Y-axis titled 'val loss' for a linear scale with values from 3.338 to 3.361"><g transform="translate(0.5,0.5)"><path class="background" aria-hidden="true" d="M0,0h0v0h0Z" pointer-events="none"/><g><g class="mark-rule role-axis-tick" pointer-events="none"><line transform="translate(0,220)" x2="-5" y2="0" stroke="#888" stroke-width="1" opacity="1"/><line transform="translate(0,6)" x2="-5" y2="0" stroke="#888" stroke-width="1" opacity="1"/><line transform="translate(0,113)" x2="-5" y2="0" stroke="#888" stroke-width="1" opacity="1"/><line transform="translate(0,166)" x2="-5" y2="0" stroke="#888" stroke-width="1" opacity="1"/><line transform="translate(0,59)" x2="-5" y2="0" stroke="#888" stroke-width="1" opacity="1"/></g><g class="mark-text role-axis-label" pointer-events="none"><text text-anchor="end" transform="translate(-7,222.70592816179476)" font-family="sans-serif" font-size="10px" fill="#000" opacity="1">3.340</text><text text-anchor="end" transform="translate(-7,9.023882841765058)" font-family="sans-serif" font-size="10px" fill="#000" opacity="1">3.360</text><text text-anchor="end" transform="translate(-7,115.86490550177753)" font-family="sans-serif" font-size="10px" fill="#000" opacity="1">3.350</text><text text-anchor="end" transform="translate(-7,169.28541683178375)" font-family="sans-serif" font-size="10px" fill="#000" opacity="1">3.345</text><text text-anchor="end" transform="translate(-7,62.44439417177131)" font-family="sans-serif" font-size="10px" fill="#000" opacity="1">3.355</text></g><g class="mark-rule role-axis-domain" pointer-events="none"><line transform="translate(0,241)" x2="0" y2="-241" stroke="#888" stroke-width="1" opacity="1"/></g><g class="mark-text role-axis-title" pointer-events="none"><text text-anchor="middle" transform="translate(-36.0244140625,120.5) rotate(-90) translate(0,-2)" font-family="sans-serif" font-size="11px" font-weight="bold" fill="#000" opacity="1">val loss</text></g></g><path class="foreground" aria-hidden="true" d="" pointer-events="none" display="none"/></g></g><g class="mark-symbol role-mark layer_0_marks" clip-path="url(#clip1)" role="graphics-symbol" aria-roledescription="symbol mark container"/><g class="mark-symbol role-mark layer_1_marks" clip-path="url(#clip2)" role="graphics-object" aria-roledescription="symbol mark container"><path aria-label="est_train_loss: 2.77913999557; groupedY: 3.35719656944; adjustedGroupKeys: 26" role="graphics-symbol" aria-roledescription="circle" transform="translate(7.365497517033842,35.97602161106668)" d="M5,0A5,5,0,1,1,-5,0A5,5,0,1,1,5,0" fill="#9467bd" stroke-width="2" opacity="0.7"/><path aria-label="est_train_loss: 2.7836728096; groupedY: 3.34541869164; adjustedGroupKeys: 16" role="graphics-symbol" aria-roledescription="circle" transform="translate(117.38584652691014,161.81207258411794)" d="M5,0A5,5,0,1,1,-5,0A5,5,0,1,1,5,0" fill="#d62728" stroke-width="2" opacity="0.7"/><path aria-label="est_train_loss: 2.78220033646; groupedY: 3.34001922607; adjustedGroupKeys: 11" role="graphics-symbol" aria-roledescription="circle" transform="translate(81.64601507914051,219.50051481866637)" d="M5,0A5,5,0,1,1,-5,0A5,5,0,1,1,5,0" fill="#2ca02c" stroke-width="2" opacity="0.7"/><path aria-label="est_train_loss: 2.79659080505; groupedY: 3.35378289223; adjustedGroupKeys: 3" role="graphics-symbol" aria-roledescription="circle" transform="translate(430.93111004748226,72.44809808540165)" d="M5,0A5,5,0,1,1,-5,0A5,5,0,1,1,5,0" fill="#1f77b4" stroke-width="2" opacity="0.7"/><path aria-label="est_train_loss: 2.7920422554; groupedY: 3.34136152267; adjustedGroupKeys: 6" role="graphics-symbol" aria-roledescription="circle" transform="translate(320.5288263103468,205.1592806693085)" d="M5,0A5,5,0,1,1,-5,0A5,5,0,1,1,5,0" fill="#ff7f0e" stroke-width="2" opacity="0.7"/></g><g class="mark-group role-legend" role="graphics-symbol" aria-roledescription="legend" aria-label="Symbol legend for fill color with 0 values: "><g transform="translate(456,0)"><path class="background" aria-hidden="true" d="M0,0h0v11h0Z" pointer-events="none"/><g><g class="mark-group role-legend-entry"><g transform="translate(0,16)"><path class="background" aria-hidden="true" d="M0,0h0v0h0Z" pointer-events="none"/><g><g class="mark-group role-scope" role="graphics-object" aria-roledescription="group mark container"/></g><path class="foreground" aria-hidden="true" d="" pointer-events="none" display="none"/></g></g><g class="mark-text role-legend-title" pointer-events="none"><text text-anchor="start" transform="translate(0,9)" font-family="sans-serif" font-size="11px" font-weight="bold" fill="#000" opacity="1"/></g></g><path class="foreground" aria-hidden="true" d="" pointer-events="none" display="none"/></g></g><g class="mark-group role-legend" role="graphics-symbol" aria-roledescription="legend" aria-label="Symbol legend titled 'future context size' for fill color with 5 values: 3, 6, 11, 16, 26"><g transform="translate(456,19)"><path class="background" aria-hidden="true" d="M0,0h98v79h-98Z" pointer-events="none"/><g><g class="mark-group role-legend-entry"><g transform="translate(0,16)"><path class="background" aria-hidden="true" d="M0,0h0v0h0Z" pointer-events="none"/><g><g class="mark-group role-scope" role="graphics-object" aria-roledescription="group mark container"><g transform="translate(0,0)"><path class="background" aria-hidden="true" d="M0,0h27.123046875v11h-27.123046875Z" pointer-events="none" opacity="1"/><g><g class="mark-symbol role-legend-symbol" pointer-events="none"><path transform="translate(6,6)" d="M5,0A5,5,0,1,1,-5,0A5,5,0,1,1,5,0" fill="#1f77b4" stroke-width="1.5" opacity="0.7"/></g><g class="mark-text role-legend-label" pointer-events="none"><text text-anchor="start" transform="translate(16,9)" font-family="sans-serif" font-size="10px" fill="#000" opacity="1">3</text></g></g><path class="foreground" aria-hidden="true" d="" pointer-events="none" display="none"/></g><g transform="translate(0,13)"><path class="background" aria-hidden="true" d="M0,0h27.123046875v11h-27.123046875Z" pointer-events="none" opacity="1"/><g><g class="mark-symbol role-legend-symbol" pointer-events="none"><path transform="translate(6,6)" d="M5,0A5,5,0,1,1,-5,0A5,5,0,1,1,5,0" fill="#ff7f0e" stroke-width="1.5" opacity="0.7"/></g><g class="mark-text role-legend-label" pointer-events="none"><text text-anchor="start" transform="translate(16,9)" font-family="sans-serif" font-size="10px" fill="#000" opacity="1">6</text></g></g><path class="foreground" aria-hidden="true" d="" pointer-events="none" display="none"/></g><g transform="translate(0,26)"><path class="background" aria-hidden="true" d="M0,0h27.123046875v11h-27.123046875Z" pointer-events="none" opacity="1"/><g><g class="mark-symbol role-legend-symbol" pointer-events="none"><path transform="translate(6,6)" d="M5,0A5,5,0,1,1,-5,0A5,5,0,1,1,5,0" fill="#2ca02c" stroke-width="1.5" opacity="0.7"/></g><g class="mark-text role-legend-label" pointer-events="none"><text text-anchor="start" transform="translate(16,9)" font-family="sans-serif" font-size="10px" fill="#000" opacity="1">11</text></g></g><path class="foreground" aria-hidden="true" d="" pointer-events="none" display="none"/></g><g transform="translate(0,39)"><path class="background" aria-hidden="true" d="M0,0h27.123046875v11h-27.123046875Z" pointer-events="none" opacity="1"/><g><g class="mark-symbol role-legend-symbol" pointer-events="none"><path transform="translate(6,6)" d="M5,0A5,5,0,1,1,-5,0A5,5,0,1,1,5,0" fill="#d62728" stroke-width="1.5" opacity="0.7"/></g><g class="mark-text role-legend-label" pointer-events="none"><text text-anchor="start" transform="translate(16,9)" font-family="sans-serif" font-size="10px" fill="#000" opacity="1">16</text></g></g><path class="foreground" aria-hidden="true" d="" pointer-events="none" display="none"/></g><g transform="translate(0,52)"><path class="background" aria-hidden="true" d="M0,0h27.123046875v11h-27.123046875Z" pointer-events="none" opacity="1"/><g><g class="mark-symbol role-legend-symbol" pointer-events="none"><path transform="translate(6,6)" d="M5,0A5,5,0,1,1,-5,0A5,5,0,1,1,5,0" fill="#9467bd" stroke-width="1.5" opacity="0.7"/></g><g class="mark-text role-legend-label" pointer-events="none"><text text-anchor="start" transform="translate(16,9)" font-family="sans-serif" font-size="10px" fill="#000" opacity="1">26</text></g></g><path class="foreground" aria-hidden="true" d="" pointer-events="none" display="none"/></g></g></g><path class="foreground" aria-hidden="true" d="" pointer-events="none" display="none"/></g></g><g class="mark-text role-legend-title" pointer-events="none"><text text-anchor="start" transform="translate(0,9)" font-family="sans-serif" font-size="11px" font-weight="bold" fill="#000" opacity="1">future context size</text></g></g><path class="foreground" aria-hidden="true" d="" pointer-events="none" display="none"/></g></g><g class="mark-group role-title"><g transform="translate(219,-17)"><path class="background" aria-hidden="true" d="M0,0h0v0h0Z" pointer-events="none"/><g><g class="mark-text role-title-text" role="graphics-symbol" aria-roledescription="title" aria-label="Title text 'future context size comparison'" pointer-events="none"><text text-anchor="middle" transform="translate(0,10)" font-family="sans-serif" font-size="13px" font-weight="bold" fill="#000" opacity="1">future context size comparison</text></g></g><path class="foreground" aria-hidden="true" d="" pointer-events="none" display="none"/></g></g></g><path class="foreground" aria-hidden="true" d="" display="none"/></g></g></g><defs><clipPath id="clip1"><rect x="0" y="0" width="438" height="241"/></clipPath><clipPath id="clip2"><rect x="0" y="0" width="438" height="241"/></clipPath></defs></svg>