<svg xmlns="http://www.w3.org/2000/svg" xmlns:xlink="http://www.w3.org/1999/xlink" version="1.1" class="marks" width="600" height="300" viewBox="0 0 600 300"><rect width="600" height="300" fill="white"/><g fill="none" stroke-miterlimit="10" transform="translate(53,27)"><g class="mark-group role-frame root" role="graphics-object" aria-roledescription="group mark container"><g transform="translate(0,0)"><path class="background" aria-hidden="true" d="M0.5,0.5h426v236h-426Z" stroke="#ddd"/><g><g class="mark-group role-axis" aria-hidden="true"><g transform="translate(0.5,236.5)"><path class="background" aria-hidden="true" d="M0,0h0v0h0Z" pointer-events="none"/><g><g class="mark-rule role-axis-grid" pointer-events="none"><line transform="translate(28,-236)" x2="0" y2="236" stroke="#ddd" stroke-width="1" opacity="1"/><line transform="translate(74,-236)" x2="0" y2="236" stroke="#ddd" stroke-width="1" opacity="1"/><line transform="translate(120,-236)" x2="0" y2="236" stroke="#ddd" stroke-width="1" opacity="1"/><line transform="translate(167,-236)" x2="0" y2="236" stroke="#ddd" stroke-width="1" opacity="1"/><line transform="translate(213,-236)" x2="0" y2="236" stroke="#ddd" stroke-width="1" opacity="1"/><line transform="translate(259,-236)" x2="0" y2="236" stroke="#ddd" stroke-width="1" opacity="1"/><line transform="translate(306,-236)" x2="0" y2="236" stroke="#ddd" stroke-width="1" opacity="1"/><line transform="translate(352,-236)" x2="0" y2="236" stroke="#ddd" stroke-width="1" opacity="1"/><line transform="translate(398,-236)" x2="0" y2="236" stroke="#ddd" stroke-width="1" opacity="1"/></g></g><path class="foreground" aria-hidden="true" d="" pointer-events="none" display="none"/></g></g><g class="mark-group role-axis" aria-hidden="true"><g transform="translate(0.5,0.5)"><path class="background" aria-hidden="true" d="M0,0h0v0h0Z" pointer-events="none"/><g><g class="mark-rule role-axis-grid" pointer-events="none"><line transform="translate(0,230)" x2="426" y2="0" stroke="#ddd" stroke-width="1" opacity="1"/><line transform="translate(0,204)" x2="426" y2="0" stroke="#ddd" stroke-width="1" opacity="1"/><line transform="translate(0,179)" x2="426" y2="0" stroke="#ddd" stroke-width="1" opacity="1"/><line transform="translate(0,153)" x2="426" y2="0" stroke="#ddd" stroke-width="1" opacity="1"/><line transform="translate(0,128)" x2="426" y2="0" stroke="#ddd" stroke-width="1" opacity="1"/><line transform="translate(0,102)" x2="426" y2="0" stroke="#ddd" stroke-width="1" opacity="1"/><line transform="translate(0,77)" x2="426" y2="0" stroke="#ddd" stroke-width="1" opacity="1"/><line transform="translate(0,51)" x2="426" y2="0" stroke="#ddd" stroke-width="1" opacity="1"/><line transform="translate(0,26)" x2="426" y2="0" stroke="#ddd" stroke-width="1" opacity="1"/><line transform="translate(0,0)" x2="426" y2="0" stroke="#ddd" stroke-width="1" opacity="1"/></g></g><path class="foreground" aria-hidden="true" d="" pointer-events="none" display="none"/></g></g><g class="mark-group role-axis" role="graphics-symbol" aria-roledescription="axis" aria-label="X-axis titled 'train loss' for a linear scale with values from 2.779 to 2.797"><g transform="translate(0.5,236.5)"><path class="background" aria-hidden="true" d="M0,0h0v0h0Z" pointer-events="none"/><g><g class="mark-rule role-axis-tick" pointer-events="none"><line transform="translate(28,0)" x2="0" y2="5" stroke="#888" stroke-width="1" opacity="1"/><line transform="translate(74,0)" x2="0" y2="5" stroke="#888" stroke-width="1" opacity="1"/><line transform="translate(120,0)" x2="0" y2="5" stroke="#888" stroke-width="1" opacity="1"/><line transform="translate(167,0)" x2="0" y2="5" stroke="#888" stroke-width="1" opacity="1"/><line transform="translate(213,0)" x2="0" y2="5" stroke="#888" stroke-width="1" opacity="1"/><line transform="translate(259,0)" x2="0" y2="5" stroke="#888" stroke-width="1" opacity="1"/><line transform="translate(306,0)" x2="0" y2="5" stroke="#888" stroke-width="1" opacity="1"/><line transform="translate(352,0)" x2="0" y2="5" stroke="#888" stroke-width="1" opacity="1"/><line transform="translate(398,0)" x2="0" y2="5" stroke="#888" stroke-width="1" opacity="1"/></g><g class="mark-text role-axis-label" pointer-events="none"><text text-anchor="middle" transform="translate(27.782608695648822,15)" font-family="sans-serif" font-size="10px" fill="#000" opacity="1">2.780</text><text text-anchor="middle" transform="translate(74.08695652174048,15)" font-family="sans-serif" font-size="10px" fill="#000" opacity="1">2.782</text><text text-anchor="middle" transform="translate(120.39130434782184,15)" font-family="sans-serif" font-size="10px" fill="#000" opacity="1">2.784</text><text text-anchor="middle" transform="translate(166.6956521739135,15)" font-family="sans-serif" font-size="10px" fill="#000" opacity="1">2.786</text><text text-anchor="middle" transform="translate(212.99999999999486,15)" font-family="sans-serif" font-size="10px" fill="#000" opacity="1">2.788</text><text text-anchor="middle" transform="translate(259.3043478260865,15)" font-family="sans-serif" font-size="10px" fill="#000" opacity="1">2.790</text><text text-anchor="middle" transform="translate(305.6086956521679,15)" font-family="sans-serif" font-size="10px" fill="#000" opacity="1">2.792</text><text text-anchor="middle" transform="translate(351.91304347825957,15)" font-family="sans-serif" font-size="10px" fill="#000" opacity="1">2.794</text><text text-anchor="middle" transform="translate(398.2173913043409,15)" font-family="sans-serif" font-size="10px" fill="#000" opacity="1">2.796</text></g><g class="mark-rule role-axis-domain" pointer-events="none"><line transform="translate(0,0)" x2="426" y2="0" stroke="#888" stroke-width="1" opacity="1"/></g><g class="mark-text role-axis-title" pointer-events="none"><text text-anchor="middle" transform="translate(213,30)" font-family="sans-serif" font-size="11px" font-weight="bold" fill="#000" opacity="1">train loss</text></g></g><path class="foreground" aria-hidden="true" d="" pointer-events="none" display="none"/></g></g><g class="mark-group role-axis" role="graphics-symbol" aria-roledescription="axis" aria-label="Y-axis titled 'val loss' for a linear scale with values from 3.340 to 3.358"><g transform="translate(0.5,0.5)"><path class="background" aria-hidden="true" d="M0,0h0v0h0Z" pointer-events="none"/><g><g class="mark-rule role-axis-tick" pointer-events="none"><line transform="translate(0,230)" x2="-5" y2="0" stroke="#888" stroke-width="1" opacity="1"/><line transform="translate(0,204)" x2="-5" y2="0" stroke="#888" stroke-width="1" opacity="1"/><line transform="translate(0,179)" x2="-5" y2="0" stroke="#888" stroke-width="1" opacity="1"/><line transform="translate(0,153)" x2="-5" y2="0" stroke="#888" stroke-width="1" opacity="1"/><line transform="translate(0,128)" x2="-5" y2="0" stroke="#888" stroke-width="1" opacity="1"/><line transform="translate(0,102)" x2="-5" y2="0" stroke="#888" stroke-width="1" opacity="1"/><line transform="translate(0,77)" x2="-5" y2="0" stroke="#888" stroke-width="1" opacity="1"/><line transform="translate(0,51)" x2="-5" y2="0" stroke="#888" stroke-width="1" opacity="1"/><line transform="translate(0,26)" x2="-5" y2="0" stroke="#888" stroke-width="1" opacity="1"/><line transform="translate(0,0)" x2="-5" y2="0" stroke="#888" stroke-width="1" opacity="1"/></g><g class="mark-text role-axis-label" pointer-events="none"><text text-anchor="end" transform="translate(-7,232.62162162162514)" font-family="sans-serif" font-size="10px" fill="#000" opacity="1">3.340</text><text text-anchor="end" transform="translate(-7,207.10810810810872)" font-family="sans-serif" font-size="10px" fill="#000" opacity="1">3.342</text><text text-anchor="end" transform="translate(-7,181.59459459459796)" font-family="sans-serif" font-size="10px" fill="#000" opacity="1">3.344</text><text text-anchor="end" transform="translate(-7,156.08108108108152)" font-family="sans-serif" font-size="10px" fill="#000" opacity="1">3.346</text><text text-anchor="end" transform="translate(-7,130.5675675675708)" font-family="sans-serif" font-size="10px" fill="#000" opacity="1">3.348</text><text text-anchor="end" transform="translate(-7,105.05405405405435)" font-family="sans-serif" font-size="10px" fill="#000" opacity="1">3.350</text><text text-anchor="end" transform="translate(-7,79.54054054054362)" font-family="sans-serif" font-size="10px" fill="#000" opacity="1">3.352</text><text text-anchor="end" transform="translate(-7,54.02702702702719)" font-family="sans-serif" font-size="10px" fill="#000" opacity="1">3.354</text><text text-anchor="end" transform="translate(-7,28.513513513516422)" font-family="sans-serif" font-size="10px" fill="#000" opacity="1">3.356</text><text text-anchor="end" transform="translate(-7,3)" font-family="sans-serif" font-size="10px" fill="#000" opacity="1">3.358</text></g><g class="mark-rule role-axis-domain" pointer-events="none"><line transform="translate(0,236)" x2="0" y2="-236" stroke="#888" stroke-width="1" opacity="1"/></g><g class="mark-text role-axis-title" pointer-events="none"><text text-anchor="middle" transform="translate(-36.0244140625,118) rotate(-90) translate(0,-2)" font-family="sans-serif" font-size="11px" font-weight="bold" fill="#000" opacity="1">val loss</text></g></g><path class="foreground" aria-hidden="true" d="" pointer-events="none" display="none"/></g></g><g class="mark-symbol role-mark layer_0_marks" clip-path="url(#clip3)" role="graphics-symbol" aria-roledescription="symbol mark container"/><g class="mark-symbol role-mark layer_1_marks" clip-path="url(#clip4)" role="graphics-object" aria-roledescription="symbol mark container"><path aria-label="est_train_loss: 2.77913999557; groupedY: 3.35719656944; adjustedGroupKeys: 26" role="graphics-symbol" aria-roledescription="circle" transform="translate(7.871636680936121,10.249168189797478)" d="M5,0A5,5,0,1,1,-5,0A5,5,0,1,1,5,0" fill="#9467bd" stroke-width="2" opacity="0.7"/><path aria-label="est_train_loss: 2.7836728096; groupedY: 3.34541869164; adjustedGroupKeys: 16" role="graphics-symbol" aria-roledescription="circle" transform="translate(112.8161353235662,160.49669049237383)" d="M5,0A5,5,0,1,1,-5,0A5,5,0,1,1,5,0" fill="#d62728" stroke-width="2" opacity="0.7"/><path aria-label="est_train_loss: 2.78220033646; groupedY: 3.34001922607; adjustedGroupKeys: 11" role="graphics-symbol" aria-roledescription="circle" transform="translate(78.72518099909307,229.37635926942738)" d="M5,0A5,5,0,1,1,-5,0A5,5,0,1,1,5,0" fill="#2ca02c" stroke-width="2" opacity="0.7"/><path aria-label="est_train_loss: 2.79659080505; groupedY: 3.35378289223; adjustedGroupKeys: 3" role="graphics-symbol" aria-roledescription="circle" transform="translate(411.89581265656557,53.79661807498551)" d="M5,0A5,5,0,1,1,-5,0A5,5,0,1,1,5,0" fill="#1f77b4" stroke-width="2" opacity="0.7"/><path aria-label="est_train_loss: 2.7920422554; groupedY: 3.34136152267; adjustedGroupKeys: 6" role="graphics-symbol" aria-roledescription="circle" transform="translate(306.58700005904313,212.2530080434455)" d="M5,0A5,5,0,1,1,-5,0A5,5,0,1,1,5,0" fill="#ff7f0e" stroke-width="2" opacity="0.7"/></g><g class="mark-group role-legend" role="graphics-symbol" aria-roledescription="legend" aria-label="Symbol legend for fill color with 0 values: "><g transform="translate(444,0)"><path class="background" aria-hidden="true" d="M0,0h0v11h0Z" pointer-events="none"/><g><g class="mark-group role-legend-entry"><g transform="translate(0,16)"><path class="background" aria-hidden="true" d="M0,0h0v0h0Z" pointer-events="none"/><g><g class="mark-group role-scope" role="graphics-object" aria-roledescription="group mark container"/></g><path class="foreground" aria-hidden="true" d="" pointer-events="none" display="none"/></g></g><g class="mark-text role-legend-title" pointer-events="none"><text text-anchor="start" transform="translate(0,9)" font-family="sans-serif" font-size="11px" font-weight="bold" fill="#000" opacity="1"/></g></g><path class="foreground" aria-hidden="true" d="" pointer-events="none" display="none"/></g></g><g class="mark-group role-legend" role="graphics-symbol" aria-roledescription="legend" aria-label="Symbol legend titled 'future context size' for fill color with 5 values: 3, 6, 11, 16, 26"><g transform="translate(444,19)"><path class="background" aria-hidden="true" d="M0,0h98v79h-98Z" pointer-events="none"/><g><g class="mark-group role-legend-entry"><g transform="translate(0,16)"><path class="background" aria-hidden="true" d="M0,0h0v0h0Z" pointer-events="none"/><g><g class="mark-group role-scope" role="graphics-object" aria-roledescription="group mark container"><g transform="translate(0,0)"><path class="background" aria-hidden="true" d="M0,0h27.123046875v11h-27.123046875Z" pointer-events="none" opacity="1"/><g><g class="mark-symbol role-legend-symbol" pointer-events="none"><path transform="translate(6,6)" d="M5,0A5,5,0,1,1,-5,0A5,5,0,1,1,5,0" fill="#1f77b4" stroke-width="1.5" opacity="0.7"/></g><g class="mark-text role-legend-label" pointer-events="none"><text text-anchor="start" transform="translate(16,9)" font-family="sans-serif" font-size="10px" fill="#000" opacity="1">3</text></g></g><path class="foreground" aria-hidden="true" d="" pointer-events="none" display="none"/></g><g transform="translate(0,13)"><path class="background" aria-hidden="true" d="M0,0h27.123046875v11h-27.123046875Z" pointer-events="none" opacity="1"/><g><g class="mark-symbol role-legend-symbol" pointer-events="none"><path transform="translate(6,6)" d="M5,0A5,5,0,1,1,-5,0A5,5,0,1,1,5,0" fill="#ff7f0e" stroke-width="1.5" opacity="0.7"/></g><g class="mark-text role-legend-label" pointer-events="none"><text text-anchor="start" transform="translate(16,9)" font-family="sans-serif" font-size="10px" fill="#000" opacity="1">6</text></g></g><path class="foreground" aria-hidden="true" d="" pointer-events="none" display="none"/></g><g transform="translate(0,26)"><path class="background" aria-hidden="true" d="M0,0h27.123046875v11h-27.123046875Z" pointer-events="none" opacity="1"/><g><g class="mark-symbol role-legend-symbol" pointer-events="none"><path transform="translate(6,6)" d="M5,0A5,5,0,1,1,-5,0A5,5,0,1,1,5,0" fill="#2ca02c" stroke-width="1.5" opacity="0.7"/></g><g class="mark-text role-legend-label" pointer-events="none"><text text-anchor="start" transform="translate(16,9)" font-family="sans-serif" font-size="10px" fill="#000" opacity="1">11</text></g></g><path class="foreground" aria-hidden="true" d="" pointer-events="none" display="none"/></g><g transform="translate(0,39)"><path class="background" aria-hidden="true" d="M0,0h27.123046875v11h-27.123046875Z" pointer-events="none" opacity="1"/><g><g class="mark-symbol role-legend-symbol" pointer-events="none"><path transform="translate(6,6)" d="M5,0A5,5,0,1,1,-5,0A5,5,0,1,1,5,0" fill="#d62728" stroke-width="1.5" opacity="0.7"/></g><g class="mark-text role-legend-label" pointer-events="none"><text text-anchor="start" transform="translate(16,9)" font-family="sans-serif" font-size="10px" fill="#000" opacity="1">16</text></g></g><path class="foreground" aria-hidden="true" d="" pointer-events="none" display="none"/></g><g transform="translate(0,52)"><path class="background" aria-hidden="true" d="M0,0h27.123046875v11h-27.123046875Z" pointer-events="none" opacity="1"/><g><g class="mark-symbol role-legend-symbol" pointer-events="none"><path transform="translate(6,6)" d="M5,0A5,5,0,1,1,-5,0A5,5,0,1,1,5,0" fill="#9467bd" stroke-width="1.5" opacity="0.7"/></g><g class="mark-text role-legend-label" pointer-events="none"><text text-anchor="start" transform="translate(16,9)" font-family="sans-serif" font-size="10px" fill="#000" opacity="1">26</text></g></g><path class="foreground" aria-hidden="true" d="" pointer-events="none" display="none"/></g></g></g><path class="foreground" aria-hidden="true" d="" pointer-events="none" display="none"/></g></g><g class="mark-text role-legend-title" pointer-events="none"><text text-anchor="start" transform="translate(0,9)" font-family="sans-serif" font-size="11px" font-weight="bold" fill="#000" opacity="1">future context size</text></g></g><path class="foreground" aria-hidden="true" d="" pointer-events="none" display="none"/></g></g><g class="mark-group role-title"><g transform="translate(213,-22)"><path class="background" aria-hidden="true" d="M0,0h0v0h0Z" pointer-events="none"/><g><g class="mark-text role-title-text" role="graphics-symbol" aria-roledescription="title" aria-label="Title text 'future context size comparison'" pointer-events="none"><text text-anchor="middle" transform="translate(0,10)" font-family="sans-serif" font-size="13px" font-weight="bold" fill="#000" opacity="1">future context size comparison</text></g></g><path class="foreground" aria-hidden="true" d="" pointer-events="none" display="none"/></g></g></g><path class="foreground" aria-hidden="true" d="" display="none"/></g></g></g><defs><clipPath id="clip3"><rect x="0" y="0" width="426" height="236"/></clipPath><clipPath id="clip4"><rect x="0" y="0" width="426" height="236"/></clipPath></defs></svg>