<svg xmlns="http://www.w3.org/2000/svg" xmlns:xlink="http://www.w3.org/1999/xlink" xmlns:lucid="lucid" width="1108" height="1430"><g transform="translate(1887 -1956)" lucid:page-tab-id="0_0"><path d="M-1319 2286a6 6 0 0 1 6-6h308a6 6 0 0 1 6 6v788a6 6 0 0 1-6 6h-308a6 6 0 0 1-6-6zM-1700 2546a6 6 0 0 1 6-6h308a6 6 0 0 1 6 6v528a6 6 0 0 1-6 6h-308a6 6 0 0 1-6-6z" stroke="#282c33" stroke-width="2" fill="#f2f3f5"/><path d="M-1620 2906a6 6 0 0 1 6-6h148a6 6 0 0 1 6 6v68a6 6 0 0 1-6 6h-148a6 6 0 0 1-6-6z" stroke="#282c33" stroke-width="2" fill="#ffdda6"/><use xlink:href="#a" transform="matrix(1,0,0,1,-1608,2912) translate(11.395061728395056 21.27777777777778)"/><use xlink:href="#b" transform="matrix(1,0,0,1,-1608,2912) translate(19.45061728395062 47.94444444444444)"/><path d="M-1620 3006a6 6 0 0 1 6-6h148a6 6 0 0 1 6 6v28a6 6 0 0 1-6 6h-148a6 6 0 0 1-6-6z" stroke="#282c33" stroke-width="2" fill="#fcfcca"/><use xlink:href="#c" transform="matrix(1,0,0,1,-1608,3012) translate(39.04938271604939 17.77777777777778)"/><path d="M-1620 2846a6 6 0 0 1 6-6h148a6 6 0 0 1 6 6v28a6 6 0 0 1-6 6h-148a6 6 0 0 1-6-6z" stroke="#282c33" stroke-width="2" fill="#fcfcca"/><use xlink:href="#d" transform="matrix(1,0,0,1,-1608,2852) translate(46.48765432098766 17.77777777777778)"/><path d="M-1620 2645a6 6 0 0 1 6-6h148a6 6 0 0 1 6 6v68a6 6 0 0 1-6 6h-148a6 6 0 0 1-6-6z" stroke="#282c33" stroke-width="2" fill="#cfe4ff"/><use xlink:href="#e" transform="matrix(1,0,0,1,-1608,2651.0000499999996) translate(42.135802469135804 21.27777777777778)"/><use xlink:href="#f" transform="matrix(1,0,0,1,-1608,2651.0000499999996) translate(24.26543209876543 47.94444444444444)"/><path d="M-1620 2744a6 6 0 0 1 6-6h148a6 6 0 0 1 6 6v28a6 6 0 0 1-6 6h-148a6 6 0 0 1-6-6z" stroke="#282c33" stroke-width="2" fill="#fcfcca"/><use xlink:href="#c" transform="matrix(1,0,0,1,-1608,2750.0000999999993) translate(39.04938271604939 17.77777777777778)"/><path d="M-1620 2586a6 6 0 0 1 6-6h148a6 6 0 0 1 6 6v28a6 6 0 0 1-6 6h-148a6 6 0 0 1-6-6z" stroke="#282c33" stroke-width="2" fill="#fcfcca"/><use xlink:href="#d" transform="matrix(1,0,0,1,-1608,2592) translate(46.48765432098766 17.77777777777778)"/><path d="M-1540 2997v-14" stroke="#3a414a" stroke-width="4" fill="none"/><path d="M-1538.03 2999h-3.94v-2.05h3.94zM-1538.03 2983.05h-3.94V2981h3.94z" stroke="#3a414a" stroke-width=".05" fill="#3a414a"/><path d="M-1540 2897v-14" stroke="#3a414a" stroke-width="4" fill="none"/><path d="M-1538.03 2899h-3.94v-2.05h3.94zM-1538.03 2883.05h-3.94V2881h3.94z" stroke="#3a414a" stroke-width=".05" fill="#3a414a"/><path d="M-1540 2837v-35.26" stroke="#3a414a" stroke-width="4" fill="none"/><path d="M-1538.03 2839h-3.94v-2.05h3.94z" stroke="#3a414a" stroke-width=".05" fill="#3a414a"/><path d="M-1540 2785.47l4.63 14.27h-9.27z" stroke="#3a414a" stroke-width="4" fill="#3a414a"/><path d="M-1540 2735v-13" stroke="#3a414a" stroke-width="4" fill="none"/><path d="M-1538.03 2737h-3.94v-2.05h3.94zM-1538.03 2722.05h-3.94V2720h3.94z" stroke="#3a414a" stroke-width=".05" fill="#3a414a"/><path d="M-1540 2636v-13" stroke="#3a414a" stroke-width="4" fill="none"/><path d="M-1538.03 2638h-3.94v-2.05h3.94zM-1538.03 2623.05h-3.94V2621h3.94z" stroke="#3a414a" stroke-width=".05" fill="#3a414a"/><path d="M-1542 2812.02h-113a6 6 0 0 1-6-6V2606a6 6 0 0 1 6-6h20.77M-1542.05 2812.02h2.05" stroke="#3a414a" stroke-width="4" fill="none"/><path d="M-1624.93 2600l-12.9 7.64v-15.28z" stroke="#3a414a" stroke-width="4" fill="#3a414a"/><path d="M-1620 3185.5a6 6 0 0 1 6-6h148a6 6 0 0 1 6 6v68a6 6 0 0 1-6 6h-148a6 6 0 0 1-6-6z" stroke="#282c33" stroke-width="2" fill="#ffd9d9"/><use xlink:href="#g" transform="matrix(1,0,0,1,-1608,3191.4996881460884) translate(40.96296296296296 21.27777777777778)"/><use xlink:href="#h" transform="matrix(1,0,0,1,-1608,3191.4996881460884) translate(7.660493827160501 47.94444444444444)"/><path d="M-1540 3107.25v-53.02" stroke="#3a414a" stroke-width="4" fill="none"/><path d="M-1538.03 3109.5l-1.95-.25-1.5.05-.5.1v-2.2h3.95z" stroke="#3a414a" stroke-width=".05" fill="#3a414a"/><path d="M-1540 3044.93l7.64 12.9h-15.28z" stroke="#3a414a" stroke-width="4" fill="#3a414a"/><path d="M-1540 3176.5v-24.25" stroke="#3a414a" stroke-width="4" fill="none"/><path d="M-1538.03 3178.5h-3.94v-2.05h3.94zM-1540.02 3150.25l1.5-.05.5-.1v2.2h-3.95v-2.3z" stroke="#3a414a" stroke-width=".05" fill="#3a414a"/><path d="M-1836 3153.75c-13.26 0-24-10.74-24-24 0-10.6 6.5-19.55 16.58-22.83-.58-31.17 39.42-37.17 55.42-25.17 8-18 48-12 48 6 24-6 48 18 32 48 16 24 0 54-32 42-8 15.6-40 15.6-48 0-16 12-48 6-48-24z" stroke="#282c33" stroke-width="2" fill="#fff"/><use xlink:href="#i" transform="matrix(1,0,0,1,-1855,3074.749844073044) translate(27.042037037037034 45.27777777777778)"/><use xlink:href="#j" transform="matrix(1,0,0,1,-1855,3074.749844073044) translate(23.90006172839507 71.94444444444446)"/><path d="M-1520 3129.75c0 11.05-8.95 20-20 20s-20-8.95-20-20 8.95-20 20-20 20 8.95 20 20z" stroke="#282c33" fill="#fff"/><use xlink:href="#k" transform="matrix(1,0,0,1,-1555,3114.749844073044) translate(2.68518518518521 33.77777777777771)"/><path d="M-1703.35 3132.43h129.9" stroke="#3a414a" stroke-width="4" fill="none"/><path d="M-1703.3 3134.4h-2.95l1.62-3.57.13-.37h1.2z" stroke="#3a414a" stroke-width=".05" fill="#3a414a"/><path d="M-1564.14 3132.43l-12.9 7.64v-15.28z" stroke="#3a414a" stroke-width="4" fill="#3a414a"/><path d="M-1542 3068.93h-113a6 6 0 0 1-6-6V2866a6 6 0 0 1 6-6h20.77M-1542.05 3068.93h2.05" stroke="#3a414a" stroke-width="4" fill="none"/><path d="M-1624.93 2860l-12.9 7.64v-15.28z" stroke="#3a414a" stroke-width="4" fill="#3a414a"/><path d="M-1620 3306a6 6 0 0 1 6-6h148a6 6 0 0 1 6 6v28a6 6 0 0 1-6 6h-148a6 6 0 0 1-6-6z" stroke="#282c33" stroke-width="2" fill="#fff"/><use xlink:href="#l" transform="matrix(1,0,0,1,-1608,3312) translate(34.79012345679013 17.77777777777778)"/><path d="M-1540 3297v-23.27" stroke="#3a414a" stroke-width="4" fill="none"/><path d="M-1538.03 3299h-3.94v-2.05h3.94z" stroke="#3a414a" stroke-width=".05" fill="#3a414a"/><path d="M-1540 3264.43l7.64 12.9h-15.28z" stroke="#3a414a" stroke-width="4" fill="#3a414a"/><path d="M-1239 2895.68a6 6 0 0 1 6-6h148a6 6 0 0 1 6 6v92a6 6 0 0 1-6 6h-148a6 6 0 0 1-6-6z" stroke="#282c33" stroke-width="2" fill="#ffdda6"/><use xlink:href="#m" transform="matrix(1,0,0,1,-1227.0000499999937,2901.6793146001755) translate(27.320987654320987 20.27777777777778)"/><use xlink:href="#n" transform="matrix(1,0,0,1,-1227.0000499999937,2901.6793146001755) translate(11.395061728395056 46.94444444444444)"/><use xlink:href="#o" transform="matrix(1,0,0,1,-1227.0000499999937,2901.6793146001755) translate(19.45061728395062 73.61111111111111)"/><path d="M-1239 3007.68a6 6 0 0 1 6-6h148a6 6 0 0 1 6 6v28a6 6 0 0 1-6 6h-148a6 6 0 0 1-6-6z" stroke="#282c33" stroke-width="2" fill="#fcfcca"/><use xlink:href="#c" transform="matrix(1,0,0,1,-1227.0000499999937,3013.6793146001755) translate(39.04938271604939 17.77777777777778)"/><path d="M-1239 2847.68a6 6 0 0 1 6-6h148a6 6 0 0 1 6 6v28a6 6 0 0 1-6 6h-148a6 6 0 0 1-6-6z" stroke="#282c33" stroke-width="2" fill="#fcfcca"/><use xlink:href="#d" transform="matrix(1,0,0,1,-1227.0000499999937,2853.6793146001755) translate(46.48765432098766 17.77777777777778)"/><path d="M-1159 2998.68v-2" stroke="#3a414a" stroke-width="4" fill="none"/><path d="M-1157.03 3000.68h-3.94v-2.05h3.94zM-1157.03 2996.73h-3.94v-2.05h3.94z" stroke="#3a414a" stroke-width=".05" fill="#3a414a"/><path d="M-1159 2886.68v-2" stroke="#3a414a" stroke-width="4" fill="none"/><path d="M-1157.03 2888.68h-3.94v-2.05h3.94zM-1157.03 2884.73h-3.94v-2.05h3.94z" stroke="#3a414a" stroke-width=".05" fill="#3a414a"/><path d="M-1239 3187.18a6 6 0 0 1 6-6h148a6 6 0 0 1 6 6v68a6 6 0 0 1-6 6h-148a6 6 0 0 1-6-6z" stroke="#282c33" stroke-width="2" fill="#ffd9d9"/><use xlink:href="#p" transform="matrix(1,0,0,1,-1227.0000499999937,3193.179002746265) translate(31.73456790123457 21.27777777777778)"/><use xlink:href="#h" transform="matrix(1,0,0,1,-1227.0000499999937,3193.179002746265) translate(7.660493827160501 47.94444444444444)"/><path d="M-1159 3108.93v-53.02" stroke="#3a414a" stroke-width="4" fill="none"/><path d="M-1157.03 3111.17l-1.95-.24-1.5.05-.5.1v-2.2h3.95z" stroke="#3a414a" stroke-width=".05" fill="#3a414a"/><path d="M-1159 3046.6l7.64 12.92h-15.28z" stroke="#3a414a" stroke-width="4" fill="#3a414a"/><path d="M-1159 3178.18v-24.25" stroke="#3a414a" stroke-width="4" fill="none"/><path d="M-1157.03 3180.18h-3.94v-2.05h3.94zM-1159.02 3151.93l1.5-.05.5-.1v2.2h-3.95v-2.3z" stroke="#3a414a" stroke-width=".05" fill="#3a414a"/><path d="M-956 3153.75c-13.25 0-24-10.74-24-24 0-10.6 6.5-19.55 16.58-22.83-.58-31.17 39.42-37.17 55.42-25.17 8-18 48-12 48 6 24-6 48 18 32 48 16 24 0 54-32 42-8 15.6-40 15.6-48 0-16 12-48 6-48-24z" stroke="#282c33" stroke-width="2" fill="#fff"/><use xlink:href="#i" transform="matrix(1,0,0,1,-975,3074.749844073044) translate(27.042037037037034 45.27777777777778)"/><use xlink:href="#j" transform="matrix(1,0,0,1,-975,3074.749844073044) translate(23.90006172839507 71.94444444444446)"/><path d="M-1139 3131.43c0 11.05-8.95 20-20 20s-20-8.95-20-20 8.95-20 20-20 20 8.95 20 20z" stroke="#282c33" fill="#fff"/><use xlink:href="#k" transform="matrix(1,0,0,1,-1174.0000499999937,3116.4291586732206) translate(2.68518518518521 33.77777777777771)"/><path d="M-1239 3307.68a6 6 0 0 1 6-6h148a6 6 0 0 1 6 6v28a6 6 0 0 1-6 6h-148a6 6 0 0 1-6-6z" stroke="#282c33" stroke-width="2" fill="#fff"/><use xlink:href="#q" transform="matrix(1,0,0,1,-1227.0000499999937,3313.6793146001755) translate(25.561728395061728 17.77777777777778)"/><path d="M-1159 3298.68v-23.27" stroke="#3a414a" stroke-width="4" fill="none"/><path d="M-1157.03 3300.68h-3.94v-2.05h3.94z" stroke="#3a414a" stroke-width=".05" fill="#3a414a"/><path d="M-1159 3266.1l7.64 12.92h-15.28z" stroke="#3a414a" stroke-width="4" fill="#3a414a"/><path d="M-983 3129.75h-142.36" stroke="#3a414a" stroke-width="4" fill="none"/><path d="M-981 3129.72l.1 2h-2.15v-3.94h2.26z" stroke="#3a414a" stroke-width=".05" fill="#3a414a"/><path d="M-1134.66 3129.75l12.9-7.64v15.3z" stroke="#3a414a" stroke-width="4" fill="#3a414a"/><path d="M-1239 2745a6 6 0 0 1 6-6h148a6 6 0 0 1 6 6v28a6 6 0 0 1-6 6h-148a6 6 0 0 1-6-6z" stroke="#282c33" stroke-width="2" fill="#fcfcca"/><use xlink:href="#c" transform="matrix(1,0,0,1,-1227.0000499999937,2751.0000499999996) translate(39.04938271604939 17.77777777777778)"/><path d="M-1239 2585a6 6 0 0 1 6-6h148a6 6 0 0 1 6 6v28a6 6 0 0 1-6 6h-148a6 6 0 0 1-6-6z" stroke="#282c33" stroke-width="2" fill="#fcfcca"/><use xlink:href="#d" transform="matrix(1,0,0,1,-1227.0000499999937,2591.0000499999996) translate(46.48765432098766 17.77777777777778)"/><path d="M-1159 2736v-2" stroke="#3a414a" stroke-width="4" fill="none"/><path d="M-1157.03 2738h-3.94v-2.05h3.94zM-1157.03 2734.05h-3.94V2732h3.94z" stroke="#3a414a" stroke-width=".05" fill="#3a414a"/><path d="M-1159 2624v-2" stroke="#3a414a" stroke-width="4" fill="none"/><path d="M-1157.03 2626h-3.94v-2.05h3.94zM-1157.03 2622.05h-3.94V2620h3.94z" stroke="#3a414a" stroke-width=".05" fill="#3a414a"/><path d="M-1239 2633a6 6 0 0 1 6-6h148a6 6 0 0 1 6 6v92a6 6 0 0 1-6 6h-148a6 6 0 0 1-6-6z" stroke="#282c33" stroke-width="2" fill="#ffdda6"/><use xlink:href="#r" transform="matrix(1,0,0,1,-1227.0000499999937,2639.0000499999996) translate(36.580246913580254 20.27777777777778)"/><use xlink:href="#n" transform="matrix(1,0,0,1,-1227.0000499999937,2639.0000499999996) translate(11.395061728395056 46.94444444444444)"/><use xlink:href="#o" transform="matrix(1,0,0,1,-1227.0000499999937,2639.0000499999996) translate(19.45061728395062 73.61111111111111)"/><path d="M-1540 2577v-52a6 6 0 0 1 6-6h178a6 6 0 0 1 6 6v289a6 6 0 0 0 6 6h148.68a6 6 0 0 0 6-6v-20.77" stroke="#3a414a" stroke-width="4" fill="none"/><path d="M-1538.03 2579h-3.94v-2.05h3.94z" stroke="#3a414a" stroke-width=".05" fill="#3a414a"/><path d="M-1189.32 2783.93l7.64 12.9h-15.27z" stroke="#3a414a" stroke-width="4" fill="#3a414a"/><path d="M-1159 2838.68v-45.45" stroke="#3a414a" stroke-width="4" fill="none"/><path d="M-1157.03 2840.68h-3.94v-2.05h3.94z" stroke="#3a414a" stroke-width=".05" fill="#3a414a"/><path d="M-1159 2783.93l7.64 12.9h-15.28z" stroke="#3a414a" stroke-width="4" fill="#3a414a"/><path d="M-1157 2819.33h113a6 6 0 0 0 6-6V2605a6 6 0 0 0-6-6h-20.77M-1156.95 2819.33h-2.05" stroke="#3a414a" stroke-width="4" fill="none"/><path d="M-1074.07 2599l12.9-7.64v15.28z" stroke="#3a414a" stroke-width="4" fill="#3a414a"/><path d="M-1239 2385a6 6 0 0 1 6-6h148a6 6 0 0 1 6 6v68a6 6 0 0 1-6 6h-148a6 6 0 0 1-6-6z" stroke="#282c33" stroke-width="2" fill="#cfe4ff"/><use xlink:href="#e" transform="matrix(1,0,0,1,-1227.0000499999937,2391.0000499999996) translate(42.135802469135804 21.27777777777778)"/><use xlink:href="#f" transform="matrix(1,0,0,1,-1227.0000499999937,2391.0000499999996) translate(24.26543209876543 47.94444444444444)"/><path d="M-1239 2484a6 6 0 0 1 6-6h148a6 6 0 0 1 6 6v28a6 6 0 0 1-6 6h-148a6 6 0 0 1-6-6z" stroke="#282c33" stroke-width="2" fill="#fcfcca"/><use xlink:href="#c" transform="matrix(1,0,0,1,-1227.0000499999937,2490.0000999999993) translate(39.04938271604939 17.77777777777778)"/><path d="M-1239 2326a6 6 0 0 1 6-6h148a6 6 0 0 1 6 6v28a6 6 0 0 1-6 6h-148a6 6 0 0 1-6-6z" stroke="#282c33" stroke-width="2" fill="#fcfcca"/><use xlink:href="#d" transform="matrix(1,0,0,1,-1227.0000499999937,2332) translate(46.48765432098766 17.77777777777778)"/><path d="M-1159 2576v-43.77" stroke="#3a414a" stroke-width="4" fill="none"/><path d="M-1157.03 2578h-3.94v-2.05h3.94z" stroke="#3a414a" stroke-width=".05" fill="#3a414a"/><path d="M-1159 2522.93l7.64 12.9h-15.28z" stroke="#3a414a" stroke-width="4" fill="#3a414a"/><path d="M-1161 2555.44h-113a6 6 0 0 1-6-6V2346a6 6 0 0 1 6-6h20.77M-1161.05 2555.44h2.05" stroke="#3a414a" stroke-width="4" fill="none"/><path d="M-1243.93 2340l-12.9 7.64v-15.28z" stroke="#3a414a" stroke-width="4" fill="#3a414a"/><path d="M-1159 2475v-13" stroke="#3a414a" stroke-width="4" fill="none"/><path d="M-1157.03 2477h-3.94v-2.05h3.94zM-1157.03 2462.05h-3.94V2460h3.94z" stroke="#3a414a" stroke-width=".05" fill="#3a414a"/><path d="M-1159 2376v-13" stroke="#3a414a" stroke-width="4" fill="none"/><path d="M-1157.03 2378h-3.94v-2.05h3.94zM-1157.03 2363.05h-3.94V2361h3.94z" stroke="#3a414a" stroke-width=".05" fill="#3a414a"/><path d="M-1239 2206a6 6 0 0 1 6-6h148a6 6 0 0 1 6 6v28a6 6 0 0 1-6 6h-148a6 6 0 0 1-6-6z" stroke="#282c33" stroke-width="2" fill="#dedeff"/><use xlink:href="#s" transform="matrix(1,0,0,1,-1227.0000499999937,2212) translate(34.7283950617284 17.77777777777778)"/><path d="M-1159 2317v-62.77" stroke="#3a414a" stroke-width="4" fill="none"/><path d="M-1157.03 2319h-3.94v-2.05h3.94z" stroke="#3a414a" stroke-width=".05" fill="#3a414a"/><path d="M-1159 2244.93l7.64 12.9h-15.28z" stroke="#3a414a" stroke-width="4" fill="#3a414a"/><path d="M-1239 2126a6 6 0 0 1 6-6h148a6 6 0 0 1 6 6v28a6 6 0 0 1-6 6h-148a6 6 0 0 1-6-6z" stroke="#282c33" stroke-width="2" fill="#e3fae3"/><use xlink:href="#t" transform="matrix(1,0,0,1,-1227.0000499999937,2132) translate(24.26543209876543 17.77777777777778)"/><path d="M-1159 2197v-22.77" stroke="#3a414a" stroke-width="4" fill="none"/><path d="M-1157.03 2199h-3.94v-2.05h3.94z" stroke="#3a414a" stroke-width=".05" fill="#3a414a"/><path d="M-1159 2164.93l7.64 12.9h-15.28z" stroke="#3a414a" stroke-width="4" fill="#3a414a"/><path d="M-1239 2006a6 6 0 0 1 6-6h148a6 6 0 0 1 6 6v68a6 6 0 0 1-6 6h-148a6 6 0 0 1-6-6z" stroke="#282c33" stroke-width="2" fill="#fff"/><use xlink:href="#p" transform="matrix(1,0,0,1,-1227.0000499999937,2012) translate(31.73456790123457 21.27777777777778)"/><use xlink:href="#u" transform="matrix(1,0,0,1,-1227.0000499999937,2012) translate(2.1049382716049507 47.94444444444444)"/><path d="M-1159 2117v-22.77" stroke="#3a414a" stroke-width="4" fill="none"/><path d="M-1157.03 2119h-3.94v-2.05h3.94z" stroke="#3a414a" stroke-width=".05" fill="#3a414a"/><path d="M-1159 2084.93l7.64 12.9h-15.28z" stroke="#3a414a" stroke-width="4" fill="#3a414a"/><path d="M-1161 3069.56h-113a6 6 0 0 1-6-6v-195.88a6 6 0 0 1 6-6h20.77M-1161.05 3069.56h2.05" stroke="#3a414a" stroke-width="4" fill="none"/><path d="M-1243.93 2861.68l-12.9 7.64v-15.28z" stroke="#3a414a" stroke-width="4" fill="#3a414a"/><path d="M-1860 2787.68a6 6 0 0 1 6-6h228a6 6 0 0 1 6 6v48a6 6 0 0 1-6 6h-228a6 6 0 0 1-6-6z" stroke="#000" stroke-opacity="0" stroke-width="4" fill="#fff" fill-opacity="0"/><g><use xlink:href="#v" transform="matrix(1,0,0,1,-1855,2786.6793146001755) translate(93.75 32.91666666666666)"/></g><path d="M-1072.56 2606a6 6 0 0 1 6-6h228a6 6 0 0 1 6 6v48a6 6 0 0 1-6 6h-228a6 6 0 0 1-6-6z" stroke="#000" stroke-opacity="0" stroke-width="4" fill="#fff" fill-opacity="0"/><g><use xlink:href="#v" transform="matrix(1,0,0,1,-1067.5626097841293,2605) translate(93.75 32.91666666666666)"/></g><defs><path d="M230 0l2-204L168 0h-37L68-204 70 0H24v-248h70l56 185 57-185h69V0h-46" id="w"/><path d="M85 4C-2 5 27-109 22-190h50c7 57-23 150 33 157 60-5 35-97 40-157h50l1 190h-47c-2-12 1-28-3-38-12 25-28 42-61 42" id="x"/><path d="M25 0v-261h50V0H25" id="y"/><path d="M115-3C79 11 28 4 28-45v-112H4v-33h27l15-45h31v45h36v33H77v99c-1 23 16 31 38 25v30" id="z"/><path d="M25-224v-37h50v37H25zM25 0v-190h50V0H25" id="A"/><path d="M14-72v-43h91v43H14" id="B"/><path d="M186 0v-106H76V0H24v-248h52v99h110v-99h50V0h-50" id="C"/><path d="M185-48c-13 30-37 53-82 52C43 2 14-33 14-96s30-98 90-98c62 0 83 45 84 108H66c0 31 8 55 39 56 18 0 30-7 34-22zm-45-69c5-46-57-63-70-21-2 6-4 13-4 21h74" id="D"/><path d="M133-34C117-15 103 5 69 4 32 3 11-16 11-54c-1-60 55-63 116-61 1-26-3-47-28-47-18 1-26 9-28 27l-52-2c7-38 36-58 82-57s74 22 75 68l1 82c-1 14 12 18 25 15v27c-30 8-71 5-69-32zm-48 3c29 0 43-24 42-57-32 0-66-3-65 30 0 17 8 27 23 27" id="E"/><path d="M88-194c31-1 46 15 58 34l-1-101h50l1 261h-48c-2-10 0-23-3-31C134-8 116 4 84 4 32 4 16-41 15-95c0-56 19-97 73-99zm17 164c33 0 40-30 41-66 1-37-9-64-41-64s-38 30-39 65c0 43 13 65 39 65" id="F"/><g id="a"><use transform="matrix(0.06172839506172839,0,0,0.06172839506172839,0,0)" xlink:href="#w"/><use transform="matrix(0.06172839506172839,0,0,0.06172839506172839,18.456790123456788,0)" xlink:href="#x"/><use transform="matrix(0.06172839506172839,0,0,0.06172839506172839,31.9753086419753,0)" xlink:href="#y"/><use transform="matrix(0.06172839506172839,0,0,0.06172839506172839,38.148148148148145,0)" xlink:href="#z"/><use transform="matrix(0.06172839506172839,0,0,0.06172839506172839,45.49382716049382,0)" xlink:href="#A"/><use transform="matrix(0.06172839506172839,0,0,0.06172839506172839,51.666666666666664,0)" xlink:href="#B"/><use transform="matrix(0.06172839506172839,0,0,0.06172839506172839,59.01234567901234,0)" xlink:href="#C"/><use transform="matrix(0.06172839506172839,0,0,0.06172839506172839,75,0)" xlink:href="#D"/><use transform="matrix(0.06172839506172839,0,0,0.06172839506172839,87.34567901234568,0)" xlink:href="#E"/><use transform="matrix(0.06172839506172839,0,0,0.06172839506172839,99.69135802469137,0)" xlink:href="#F"/></g><path d="M199 0l-22-63H83L61 0H9l90-248h61L250 0h-51zm-33-102l-36-108c-10 38-24 72-36 108h72" id="G"/><path d="M135-194c87-1 58 113 63 194h-50c-7-57 23-157-34-157-59 0-34 97-39 157H25l-1-190h47c2 12-1 28 3 38 12-26 28-41 61-42" id="H"/><path d="M110-194c64 0 96 36 96 99 0 64-35 99-97 99-61 0-95-36-95-99 0-62 34-99 96-99zm-1 164c35 0 45-28 45-65 0-40-10-65-43-65-34 0-45 26-45 65 0 36 10 65 43 65" id="I"/><g id="b"><use transform="matrix(0.06172839506172839,0,0,0.06172839506172839,0,0)" xlink:href="#G"/><use transform="matrix(0.06172839506172839,0,0,0.06172839506172839,15.987654320987653,0)" xlink:href="#z"/><use transform="matrix(0.06172839506172839,0,0,0.06172839506172839,23.333333333333332,0)" xlink:href="#z"/><use transform="matrix(0.06172839506172839,0,0,0.06172839506172839,30.679012345679013,0)" xlink:href="#D"/><use transform="matrix(0.06172839506172839,0,0,0.06172839506172839,43.02469135802469,0)" xlink:href="#H"/><use transform="matrix(0.06172839506172839,0,0,0.06172839506172839,56.54320987654321,0)" xlink:href="#z"/><use transform="matrix(0.06172839506172839,0,0,0.06172839506172839,63.888888888888886,0)" xlink:href="#A"/><use transform="matrix(0.06172839506172839,0,0,0.06172839506172839,70.06172839506172,0)" xlink:href="#I"/><use transform="matrix(0.06172839506172839,0,0,0.06172839506172839,83.58024691358024,0)" xlink:href="#H"/></g><path d="M175 0L67-191c6 58 2 128 3 191H24v-248h59L193-55c-6-58-2-129-3-193h46V0h-61" id="J"/><path d="M135-150c-39-12-60 13-60 57V0H25l-1-190h47c2 13-1 29 3 40 6-28 27-53 61-41v41" id="K"/><path d="M220-157c-53 9-28 100-34 157h-49v-107c1-27-5-49-29-50C55-147 81-57 75 0H25l-1-190h47c2 12-1 28 3 38 10-53 101-56 108 0 13-22 24-43 59-42 82 1 51 116 57 194h-49v-107c-1-25-5-48-29-50" id="L"/><g id="c"><use transform="matrix(0.06172839506172839,0,0,0.06172839506172839,0,0)" xlink:href="#J"/><use transform="matrix(0.06172839506172839,0,0,0.06172839506172839,15.987654320987653,0)" xlink:href="#I"/><use transform="matrix(0.06172839506172839,0,0,0.06172839506172839,29.50617283950617,0)" xlink:href="#K"/><use transform="matrix(0.06172839506172839,0,0,0.06172839506172839,38.148148148148145,0)" xlink:href="#L"/></g><g id="d"><use transform="matrix(0.06172839506172839,0,0,0.06172839506172839,0,0)" xlink:href="#G"/><use transform="matrix(0.06172839506172839,0,0,0.06172839506172839,15.987654320987653,0)" xlink:href="#F"/><use transform="matrix(0.06172839506172839,0,0,0.06172839506172839,29.50617283950617,0)" xlink:href="#F"/></g><path d="M76-208v77h127v40H76V0H24v-248h183v40H76" id="M"/><g id="e"><use transform="matrix(0.06172839506172839,0,0,0.06172839506172839,0,0)" xlink:href="#M"/><use transform="matrix(0.06172839506172839,0,0,0.06172839506172839,13.518518518518517,0)" xlink:href="#D"/><use transform="matrix(0.06172839506172839,0,0,0.06172839506172839,25.864197530864196,0)" xlink:href="#D"/><use transform="matrix(0.06172839506172839,0,0,0.06172839506172839,38.20987654320987,0)" xlink:href="#F"/></g><path d="M231 0h-52l-39-155L100 0H48L-1-190h46L77-45c9-52 24-97 36-145h53l37 145 32-145h46" id="N"/><g id="f"><use transform="matrix(0.06172839506172839,0,0,0.06172839506172839,0,0)" xlink:href="#M"/><use transform="matrix(0.06172839506172839,0,0,0.06172839506172839,13.518518518518517,0)" xlink:href="#I"/><use transform="matrix(0.06172839506172839,0,0,0.06172839506172839,27.037037037037035,0)" xlink:href="#K"/><use transform="matrix(0.06172839506172839,0,0,0.06172839506172839,35.67901234567901,0)" xlink:href="#N"/><use transform="matrix(0.06172839506172839,0,0,0.06172839506172839,52.96296296296296,0)" xlink:href="#E"/><use transform="matrix(0.06172839506172839,0,0,0.06172839506172839,65.30864197530865,0)" xlink:href="#K"/><use transform="matrix(0.06172839506172839,0,0,0.06172839506172839,73.95061728395062,0)" xlink:href="#F"/></g><path d="M24 0v-248h52V0H24" id="O"/><path d="M135-194c53 0 70 44 70 98 0 56-19 98-73 100-31 1-45-17-59-34 3 33 2 69 2 105H25l-1-265h48c2 10 0 23 3 31 11-24 29-35 60-35zM114-30c33 0 39-31 40-66 0-38-9-64-40-64-56 0-55 130 0 130" id="P"/><g id="g"><use transform="matrix(0.06172839506172839,0,0,0.06172839506172839,0,0)" xlink:href="#O"/><use transform="matrix(0.06172839506172839,0,0,0.06172839506172839,6.172839506172839,0)" xlink:href="#H"/><use transform="matrix(0.06172839506172839,0,0,0.06172839506172839,19.691358024691358,0)" xlink:href="#P"/><use transform="matrix(0.06172839506172839,0,0,0.06172839506172839,33.20987654320987,0)" xlink:href="#x"/><use transform="matrix(0.06172839506172839,0,0,0.06172839506172839,46.72839506172839,0)" xlink:href="#z"/></g><path d="M24 0v-248h195v40H76v63h132v40H76v65h150V0H24" id="Q"/><path d="M135-194c52 0 70 43 70 98 0 56-19 99-73 100-30 1-46-15-58-35L72 0H24l1-261h50v104c11-23 29-37 60-37zM114-30c31 0 40-27 40-66 0-37-7-63-39-63s-41 28-41 65c0 36 8 64 40 64" id="R"/><path d="M195-6C206 82 75 100 31 46c-4-6-6-13-8-21l49-6c3 16 16 24 34 25 40 0 42-37 40-79-11 22-30 35-61 35-53 0-70-43-70-97 0-56 18-96 73-97 30 0 46 14 59 34l2-30h47zm-90-29c32 0 41-27 41-63 0-35-9-62-40-62-32 0-39 29-40 63 0 36 9 62 39 62" id="S"/><g id="h"><use transform="matrix(0.06172839506172839,0,0,0.06172839506172839,0,0)" xlink:href="#Q"/><use transform="matrix(0.06172839506172839,0,0,0.06172839506172839,14.814814814814813,0)" xlink:href="#L"/><use transform="matrix(0.06172839506172839,0,0,0.06172839506172839,34.5679012345679,0)" xlink:href="#R"/><use transform="matrix(0.06172839506172839,0,0,0.06172839506172839,48.08641975308642,0)" xlink:href="#D"/><use transform="matrix(0.06172839506172839,0,0,0.06172839506172839,60.432098765432094,0)" xlink:href="#F"/><use transform="matrix(0.06172839506172839,0,0,0.06172839506172839,73.9506172839506,0)" xlink:href="#F"/><use transform="matrix(0.06172839506172839,0,0,0.06172839506172839,87.46913580246913,0)" xlink:href="#A"/><use transform="matrix(0.06172839506172839,0,0,0.06172839506172839,93.64197530864196,0)" xlink:href="#H"/><use transform="matrix(0.06172839506172839,0,0,0.06172839506172839,107.16049382716048,0)" xlink:href="#S"/></g><path d="M24-248c93 1 206-16 204 79-1 75-69 88-152 82V0H24v-248zm52 121c47 0 100 7 100-41 0-47-54-39-100-39v80" id="T"/><path d="M137-138c1-29-70-34-71-4 15 46 118 7 119 86 1 83-164 76-172 9l43-7c4 19 20 25 44 25 33 8 57-30 24-41C81-84 22-81 20-136c-2-80 154-74 161-7" id="U"/><g id="i"><use transform="matrix(0.06172839506172839,0,0,0.06172839506172839,0,0)" xlink:href="#T"/><use transform="matrix(0.06172839506172839,0,0,0.06172839506172839,14.814814814814813,0)" xlink:href="#I"/><use transform="matrix(0.06172839506172839,0,0,0.06172839506172839,28.33333333333333,0)" xlink:href="#U"/><use transform="matrix(0.06172839506172839,0,0,0.06172839506172839,40.679012345679006,0)" xlink:href="#A"/><use transform="matrix(0.06172839506172839,0,0,0.06172839506172839,46.85185185185185,0)" xlink:href="#z"/><use transform="matrix(0.06172839506172839,0,0,0.06172839506172839,54.197530864197525,0)" xlink:href="#A"/><use transform="matrix(0.06172839506172839,0,0,0.06172839506172839,60.37037037037037,0)" xlink:href="#I"/><use transform="matrix(0.06172839506172839,0,0,0.06172839506172839,73.88888888888889,0)" xlink:href="#H"/><use transform="matrix(0.06172839506172839,0,0,0.06172839506172839,87.4074074074074,0)" xlink:href="#E"/><use transform="matrix(0.06172839506172839,0,0,0.06172839506172839,99.75308641975309,0)" xlink:href="#y"/></g><g id="j"><use transform="matrix(0.06172839506172839,0,0,0.06172839506172839,0,0)" xlink:href="#D"/><use transform="matrix(0.06172839506172839,0,0,0.06172839506172839,12.345679012345679,0)" xlink:href="#L"/><use transform="matrix(0.06172839506172839,0,0,0.06172839506172839,32.098765432098766,0)" xlink:href="#R"/><use transform="matrix(0.06172839506172839,0,0,0.06172839506172839,45.617283950617285,0)" xlink:href="#D"/><use transform="matrix(0.06172839506172839,0,0,0.06172839506172839,57.96296296296296,0)" xlink:href="#F"/><use transform="matrix(0.06172839506172839,0,0,0.06172839506172839,71.48148148148148,0)" xlink:href="#F"/><use transform="matrix(0.06172839506172839,0,0,0.06172839506172839,85,0)" xlink:href="#A"/><use transform="matrix(0.06172839506172839,0,0,0.06172839506172839,91.17283950617283,0)" xlink:href="#H"/><use transform="matrix(0.06172839506172839,0,0,0.06172839506172839,104.69135802469135,0)" xlink:href="#S"/></g><path d="M125-100v72H85v-72H15v-39h70v-72h40v72h71v39h-71" id="V"/><use transform="matrix(0.11728395061728371,0,0,0.11728395061728371,0,0)" xlink:href="#V" id="k"/><g id="l"><use transform="matrix(0.06172839506172839,0,0,0.06172839506172839,0,0)" xlink:href="#O"/><use transform="matrix(0.06172839506172839,0,0,0.06172839506172839,6.172839506172839,0)" xlink:href="#H"/><use transform="matrix(0.06172839506172839,0,0,0.06172839506172839,19.691358024691358,0)" xlink:href="#P"/><use transform="matrix(0.06172839506172839,0,0,0.06172839506172839,33.20987654320987,0)" xlink:href="#x"/><use transform="matrix(0.06172839506172839,0,0,0.06172839506172839,46.72839506172839,0)" xlink:href="#z"/><use transform="matrix(0.06172839506172839,0,0,0.06172839506172839,54.07407407407407,0)" xlink:href="#U"/></g><path d="M147 0L96-86 75-71V0H25v-261h50v150l67-79h53l-66 74L201 0h-54" id="W"/><g id="m"><use transform="matrix(0.06172839506172839,0,0,0.06172839506172839,0,0)" xlink:href="#w"/><use transform="matrix(0.06172839506172839,0,0,0.06172839506172839,18.456790123456788,0)" xlink:href="#E"/><use transform="matrix(0.06172839506172839,0,0,0.06172839506172839,30.80246913580247,0)" xlink:href="#U"/><use transform="matrix(0.06172839506172839,0,0,0.06172839506172839,43.148148148148145,0)" xlink:href="#W"/><use transform="matrix(0.06172839506172839,0,0,0.06172839506172839,55.49382716049382,0)" xlink:href="#D"/><use transform="matrix(0.06172839506172839,0,0,0.06172839506172839,67.8395061728395,0)" xlink:href="#F"/></g><g id="n"><use transform="matrix(0.06172839506172839,0,0,0.06172839506172839,0,0)" xlink:href="#w"/><use transform="matrix(0.06172839506172839,0,0,0.06172839506172839,18.456790123456788,0)" xlink:href="#x"/><use transform="matrix(0.06172839506172839,0,0,0.06172839506172839,31.9753086419753,0)" xlink:href="#y"/><use transform="matrix(0.06172839506172839,0,0,0.06172839506172839,38.148148148148145,0)" xlink:href="#z"/><use transform="matrix(0.06172839506172839,0,0,0.06172839506172839,45.49382716049382,0)" xlink:href="#A"/><use transform="matrix(0.06172839506172839,0,0,0.06172839506172839,51.666666666666664,0)" xlink:href="#B"/><use transform="matrix(0.06172839506172839,0,0,0.06172839506172839,59.01234567901234,0)" xlink:href="#C"/><use transform="matrix(0.06172839506172839,0,0,0.06172839506172839,75,0)" xlink:href="#D"/><use transform="matrix(0.06172839506172839,0,0,0.06172839506172839,87.34567901234568,0)" xlink:href="#E"/><use transform="matrix(0.06172839506172839,0,0,0.06172839506172839,99.69135802469137,0)" xlink:href="#F"/></g><g id="o"><use transform="matrix(0.06172839506172839,0,0,0.06172839506172839,0,0)" xlink:href="#G"/><use transform="matrix(0.06172839506172839,0,0,0.06172839506172839,15.987654320987653,0)" xlink:href="#z"/><use transform="matrix(0.06172839506172839,0,0,0.06172839506172839,23.333333333333332,0)" xlink:href="#z"/><use transform="matrix(0.06172839506172839,0,0,0.06172839506172839,30.679012345679013,0)" xlink:href="#D"/><use transform="matrix(0.06172839506172839,0,0,0.06172839506172839,43.02469135802469,0)" xlink:href="#H"/><use transform="matrix(0.06172839506172839,0,0,0.06172839506172839,56.54320987654321,0)" xlink:href="#z"/><use transform="matrix(0.06172839506172839,0,0,0.06172839506172839,63.888888888888886,0)" xlink:href="#A"/><use transform="matrix(0.06172839506172839,0,0,0.06172839506172839,70.06172839506172,0)" xlink:href="#I"/><use transform="matrix(0.06172839506172839,0,0,0.06172839506172839,83.58024691358024,0)" xlink:href="#H"/></g><path d="M140-251c80 0 125 45 125 126S219 4 139 4C58 4 15-44 15-125s44-126 125-126zm-1 214c52 0 73-35 73-88 0-50-21-86-72-86-52 0-73 35-73 86s22 88 72 88" id="X"/><g id="p"><use transform="matrix(0.06172839506172839,0,0,0.06172839506172839,0,0)" xlink:href="#X"/><use transform="matrix(0.06172839506172839,0,0,0.06172839506172839,17.28395061728395,0)" xlink:href="#x"/><use transform="matrix(0.06172839506172839,0,0,0.06172839506172839,30.80246913580247,0)" xlink:href="#z"/><use transform="matrix(0.06172839506172839,0,0,0.06172839506172839,38.148148148148145,0)" xlink:href="#P"/><use transform="matrix(0.06172839506172839,0,0,0.06172839506172839,51.666666666666664,0)" xlink:href="#x"/><use transform="matrix(0.06172839506172839,0,0,0.06172839506172839,65.18518518518518,0)" xlink:href="#z"/></g><g id="q"><use transform="matrix(0.06172839506172839,0,0,0.06172839506172839,0,0)" xlink:href="#X"/><use transform="matrix(0.06172839506172839,0,0,0.06172839506172839,17.28395061728395,0)" xlink:href="#x"/><use transform="matrix(0.06172839506172839,0,0,0.06172839506172839,30.80246913580247,0)" xlink:href="#z"/><use transform="matrix(0.06172839506172839,0,0,0.06172839506172839,38.148148148148145,0)" xlink:href="#P"/><use transform="matrix(0.06172839506172839,0,0,0.06172839506172839,51.666666666666664,0)" xlink:href="#x"/><use transform="matrix(0.06172839506172839,0,0,0.06172839506172839,65.18518518518518,0)" xlink:href="#z"/><use transform="matrix(0.06172839506172839,0,0,0.06172839506172839,72.53086419753086,0)" xlink:href="#U"/></g><path d="M67-125c0 53 21 87 73 88 37 1 54-22 65-47l45 17C233-25 199 4 140 4 58 4 20-42 15-125 8-235 124-281 211-232c18 10 29 29 36 50l-46 12c-8-25-30-41-62-41-52 0-71 34-72 86" id="Y"/><g id="r"><use transform="matrix(0.06172839506172839,0,0,0.06172839506172839,0,0)" xlink:href="#Y"/><use transform="matrix(0.06172839506172839,0,0,0.06172839506172839,15.987654320987653,0)" xlink:href="#K"/><use transform="matrix(0.06172839506172839,0,0,0.06172839506172839,24.629629629629626,0)" xlink:href="#I"/><use transform="matrix(0.06172839506172839,0,0,0.06172839506172839,38.148148148148145,0)" xlink:href="#U"/><use transform="matrix(0.06172839506172839,0,0,0.06172839506172839,50.49382716049382,0)" xlink:href="#U"/></g><path d="M24 0v-248h52v208h133V0H24" id="Z"/><g id="s"><use transform="matrix(0.06172839506172839,0,0,0.06172839506172839,0,0)" xlink:href="#Z"/><use transform="matrix(0.06172839506172839,0,0,0.06172839506172839,13.518518518518517,0)" xlink:href="#A"/><use transform="matrix(0.06172839506172839,0,0,0.06172839506172839,19.691358024691358,0)" xlink:href="#H"/><use transform="matrix(0.06172839506172839,0,0,0.06172839506172839,33.20987654320987,0)" xlink:href="#D"/><use transform="matrix(0.06172839506172839,0,0,0.06172839506172839,45.55555555555555,0)" xlink:href="#E"/><use transform="matrix(0.06172839506172839,0,0,0.06172839506172839,57.90123456790123,0)" xlink:href="#K"/></g><path d="M169-182c-1-43-94-46-97-3 18 66 151 10 154 114 3 95-165 93-204 36-6-8-10-19-12-30l50-8c3 46 112 56 116 5-17-69-150-10-154-114-4-87 153-88 188-35 5 8 8 18 10 28" id="aa"/><path d="M121-226c-27-7-43 5-38 36h38v33H83V0H34v-157H6v-33h28c-9-59 32-81 87-68v32" id="ab"/><path d="M144 0l-44-69L55 0H2l70-98-66-92h53l41 62 40-62h54l-67 91 71 99h-54" id="ac"/><g id="t"><use transform="matrix(0.06172839506172839,0,0,0.06172839506172839,0,0)" xlink:href="#aa"/><use transform="matrix(0.06172839506172839,0,0,0.06172839506172839,14.814814814814813,0)" xlink:href="#I"/><use transform="matrix(0.06172839506172839,0,0,0.06172839506172839,28.33333333333333,0)" xlink:href="#ab"/><use transform="matrix(0.06172839506172839,0,0,0.06172839506172839,35.679012345679006,0)" xlink:href="#z"/><use transform="matrix(0.06172839506172839,0,0,0.06172839506172839,43.02469135802468,0)" xlink:href="#L"/><use transform="matrix(0.06172839506172839,0,0,0.06172839506172839,62.77777777777777,0)" xlink:href="#E"/><use transform="matrix(0.06172839506172839,0,0,0.06172839506172839,75.12345679012346,0)" xlink:href="#ac"/></g><g id="u"><use transform="matrix(0.06172839506172839,0,0,0.06172839506172839,0,0)" xlink:href="#P"/><use transform="matrix(0.06172839506172839,0,0,0.06172839506172839,13.518518518518517,0)" xlink:href="#K"/><use transform="matrix(0.06172839506172839,0,0,0.06172839506172839,22.160493827160494,0)" xlink:href="#I"/><use transform="matrix(0.06172839506172839,0,0,0.06172839506172839,35.67901234567901,0)" xlink:href="#R"/><use transform="matrix(0.06172839506172839,0,0,0.06172839506172839,49.19753086419753,0)" xlink:href="#E"/><use transform="matrix(0.06172839506172839,0,0,0.06172839506172839,61.54320987654321,0)" xlink:href="#R"/><use transform="matrix(0.06172839506172839,0,0,0.06172839506172839,75.06172839506172,0)" xlink:href="#A"/><use transform="matrix(0.06172839506172839,0,0,0.06172839506172839,81.23456790123456,0)" xlink:href="#y"/><use transform="matrix(0.06172839506172839,0,0,0.06172839506172839,87.40740740740739,0)" xlink:href="#A"/><use transform="matrix(0.06172839506172839,0,0,0.06172839506172839,93.58024691358023,0)" xlink:href="#z"/><use transform="matrix(0.06172839506172839,0,0,0.06172839506172839,100.92592592592591,0)" xlink:href="#A"/><use transform="matrix(0.06172839506172839,0,0,0.06172839506172839,107.09876543209874,0)" xlink:href="#D"/><use transform="matrix(0.06172839506172839,0,0,0.06172839506172839,119.44444444444443,0)" xlink:href="#U"/></g><g id="v"><use transform="matrix(0.09259259259259256,0,0,0.09259259259259256,0,0)" xlink:href="#J"/><use transform="matrix(0.09259259259259256,0,0,0.09259259259259256,23.981481481481474,0)" xlink:href="#ac"/></g></defs></g></svg>