<svg xmlns="http://www.w3.org/2000/svg" xmlns:xlink="http://www.w3.org/1999/xlink" xmlns:lucid="lucid" width="845" height="2167"><g transform="translate(532 -4386)" lucid:page-tab-id="0_0"><path d="M-272.6 4783.6a6 6 0 0 1 6-6h308a6 6 0 0 1 6 6v788a6 6 0 0 1-6 6h-308a6 6 0 0 1-6-6zM-272.6 5725.1a6 6 0 0 1 6-6h308a6 6 0 0 1 6 6v528a6 6 0 0 1-6 6h-308a6 6 0 0 1-6-6z" stroke="#282c33" stroke-width="2" fill="#f2f3f5"/><path d="M-192.6 6073.1a6 6 0 0 1 6-6h148a6 6 0 0 1 6 6v92a6 6 0 0 1-6 6h-148a6 6 0 0 1-6-6z" stroke="#282c33" stroke-width="2" fill="#ffdda6"/><use xlink:href="#a" transform="matrix(1,0,0,1,-180.60942156212923,6079.0989809499515) translate(27.320987654320987 20.27777777777778)"/><use xlink:href="#b" transform="matrix(1,0,0,1,-180.60942156212923,6079.0989809499515) translate(11.395061728395056 46.94444444444444)"/><use xlink:href="#c" transform="matrix(1,0,0,1,-180.60942156212923,6079.0989809499515) translate(19.45061728395062 73.61111111111111)"/><path d="M-192.6 6185.1a6 6 0 0 1 6-6h148a6 6 0 0 1 6 6v28a6 6 0 0 1-6 6h-148a6 6 0 0 1-6-6z" stroke="#282c33" stroke-width="2" fill="#fcfcca"/><use xlink:href="#d" transform="matrix(1,0,0,1,-180.60942156212923,6191.0989809499515) translate(39.04938271604939 17.77777777777778)"/><path d="M-192.6 6025.1a6 6 0 0 1 6-6h148a6 6 0 0 1 6 6v28a6 6 0 0 1-6 6h-148a6 6 0 0 1-6-6z" stroke="#282c33" stroke-width="2" fill="#fcfcca"/><use xlink:href="#e" transform="matrix(1,0,0,1,-180.60942156212923,6031.0989809499515) translate(46.48765432098766 17.77777777777778)"/><path d="M-192.6 5824.1a6 6 0 0 1 6-6h148a6 6 0 0 1 6 6v68a6 6 0 0 1-6 6h-148a6 6 0 0 1-6-6z" stroke="#282c33" stroke-width="2" fill="#cfe4ff"/><use xlink:href="#f" transform="matrix(1,0,0,1,-180.60942156212923,5830.099030949952) translate(42.135802469135804 21.27777777777778)"/><use xlink:href="#g" transform="matrix(1,0,0,1,-180.60942156212923,5830.099030949952) translate(24.26543209876543 47.94444444444444)"/><path d="M-192.6 5923.1a6 6 0 0 1 6-6h148a6 6 0 0 1 6 6v28a6 6 0 0 1-6 6h-148a6 6 0 0 1-6-6z" stroke="#282c33" stroke-width="2" fill="#fcfcca"/><use xlink:href="#d" transform="matrix(1,0,0,1,-180.60942156212923,5929.099080949952) translate(39.04938271604939 17.77777777777778)"/><path d="M-192.6 5765.1a6 6 0 0 1 6-6h148a6 6 0 0 1 6 6v28a6 6 0 0 1-6 6h-148a6 6 0 0 1-6-6z" stroke="#282c33" stroke-width="2" fill="#fcfcca"/><use xlink:href="#e" transform="matrix(1,0,0,1,-180.60942156212923,5771.0989809499515) translate(46.48765432098766 17.77777777777778)"/><path d="M-112.6 6176.1v-2" stroke="#3a414a" stroke-width="4" fill="none"/><path d="M-110.63 6178.1h-3.95v-2.05h3.95zM-110.63 6174.15h-3.95v-2.05h3.95z" stroke="#3a414a" stroke-width=".05" fill="#3a414a"/><path d="M-112.6 6064.1v-2" stroke="#3a414a" stroke-width="4" fill="none"/><path d="M-110.63 6066.1h-3.95v-2.05h3.95zM-110.63 6062.15h-3.95v-2.05h3.95z" stroke="#3a414a" stroke-width=".05" fill="#3a414a"/><path d="M-112.6 6016.1v-35.26" stroke="#3a414a" stroke-width="4" fill="none"/><path d="M-110.63 6018.1h-3.95v-2.05h3.95z" stroke="#3a414a" stroke-width=".05" fill="#3a414a"/><path d="M-112.6 5964.57l4.63 14.27h-9.28z" stroke="#3a414a" stroke-width="4" fill="#3a414a"/><path d="M-112.6 5914.1v-13" stroke="#3a414a" stroke-width="4" fill="none"/><path d="M-110.63 5916.1h-3.95v-2.05h3.95zM-110.63 5901.15h-3.95v-2.05h3.95z" stroke="#3a414a" stroke-width=".05" fill="#3a414a"/><path d="M-112.6 5815.1v-13" stroke="#3a414a" stroke-width="4" fill="none"/><path d="M-110.63 5817.1h-3.95v-2.05h3.95zM-110.63 5802.15h-3.95v-2.05h3.95z" stroke="#3a414a" stroke-width=".05" fill="#3a414a"/><path d="M-114.6 5991.12h-113a6 6 0 0 1-6-6V5785.1a6 6 0 0 1 6-6h20.76M-114.66 5991.12h2.05" stroke="#3a414a" stroke-width="4" fill="none"/><path d="M-197.54 5779.1l-12.9 7.63v-15.27z" stroke="#3a414a" stroke-width="4" fill="#3a414a"/><path d="M-192.6 6364.6a6 6 0 0 1 6-6h148a6 6 0 0 1 6 6v68a6 6 0 0 1-6 6h-148a6 6 0 0 1-6-6z" stroke="#282c33" stroke-width="2" fill="#ffd9d9"/><use xlink:href="#h" transform="matrix(1,0,0,1,-180.60942156212923,6370.598669096041) translate(40.96296296296296 21.27777777777778)"/><use xlink:href="#i" transform="matrix(1,0,0,1,-180.60942156212923,6370.598669096041) translate(7.660493827160501 47.94444444444444)"/><path d="M-112.6 6355.6v-24.25" stroke="#3a414a" stroke-width="4" fill="none"/><path d="M-110.63 6357.6h-3.95v-2.05h3.95zM-112.63 6329.35l1.5-.05.5-.1v2.2h-3.95v-2.3z" stroke="#3a414a" stroke-width=".05" fill="#3a414a"/><path d="M-112.6 6286.35v-53.02" stroke="#3a414a" stroke-width="4" fill="none"/><path d="M-110.63 6288.6l-1.96-.25-1.5.05-.48.1v-2.2h3.95z" stroke="#3a414a" stroke-width=".05" fill="#3a414a"/><path d="M-112.6 6224.03l7.63 12.9h-15.28z" stroke="#3a414a" stroke-width="4" fill="#3a414a"/><path d="M64 6332.85c-13.26 0-24-10.75-24-24 0-10.6 6.5-19.55 16.58-22.83-.58-31.17 39.42-37.17 55.42-25.17 8-18 48-12 48 6 24-6 48 18 32 48 16 24 0 54-32 42-8 15.6-40 15.6-48 0-16 12-48 6-48-24z" stroke="#282c33" stroke-width="2" fill="#fff"/><use xlink:href="#j" transform="matrix(1,0,0,1,45,6253.848825022997) translate(27.042037037037034 45.27777777777778)"/><use xlink:href="#k" transform="matrix(1,0,0,1,45,6253.848825022997) translate(23.90006172839507 71.94444444444446)"/><path d="M-92.6 6308.85c0 11.05-8.96 20-20 20-11.06 0-20-8.95-20-20s8.94-20 20-20c11.04 0 20 8.95 20 20z" stroke="#282c33" fill="#fff"/><use xlink:href="#l" transform="matrix(1,0,0,1,-127.60942156212923,6293.848825022997) translate(2.68518518518521 33.77777777777771)"/><path d="M-114.6 6248.03h-113a6 6 0 0 1-6-6V6045.1a6 6 0 0 1 6-6h20.76M-114.66 6248.03h2.05" stroke="#3a414a" stroke-width="4" fill="none"/><path d="M-197.54 6039.1l-12.9 7.63v-15.27z" stroke="#3a414a" stroke-width="4" fill="#3a414a"/><path d="M-192.6 6485.1a6 6 0 0 1 6-6h148a6 6 0 0 1 6 6v28a6 6 0 0 1-6 6h-148a6 6 0 0 1-6-6z" stroke="#282c33" stroke-width="2" fill="#fff"/><use xlink:href="#m" transform="matrix(1,0,0,1,-180.60942156212923,6491.0989809499515) translate(34.79012345679013 17.77777777777778)"/><path d="M-112.6 6476.1v-23.27" stroke="#3a414a" stroke-width="4" fill="none"/><path d="M-110.63 6478.1h-3.95v-2.05h3.95z" stroke="#3a414a" stroke-width=".05" fill="#3a414a"/><path d="M-112.6 6443.53l7.63 12.9h-15.28z" stroke="#3a414a" stroke-width="4" fill="#3a414a"/><path d="M-192.6 5393.28a6 6 0 0 1 6-6h148a6 6 0 0 1 6 6v92a6 6 0 0 1-6 6h-148a6 6 0 0 1-6-6z" stroke="#282c33" stroke-width="2" fill="#ffdda6"/><use xlink:href="#a" transform="matrix(1,0,0,1,-180.60942156212923,5399.278053823693) translate(27.320987654320987 20.27777777777778)"/><use xlink:href="#b" transform="matrix(1,0,0,1,-180.60942156212923,5399.278053823693) translate(11.395061728395056 46.94444444444444)"/><use xlink:href="#c" transform="matrix(1,0,0,1,-180.60942156212923,5399.278053823693) translate(19.45061728395062 73.61111111111111)"/><path d="M-192.6 5505.28a6 6 0 0 1 6-6h148a6 6 0 0 1 6 6v28a6 6 0 0 1-6 6h-148a6 6 0 0 1-6-6z" stroke="#282c33" stroke-width="2" fill="#fcfcca"/><use xlink:href="#d" transform="matrix(1,0,0,1,-180.60942156212923,5511.278053823693) translate(39.04938271604939 17.77777777777778)"/><path d="M-192.6 5345.28a6 6 0 0 1 6-6h148a6 6 0 0 1 6 6v28a6 6 0 0 1-6 6h-148a6 6 0 0 1-6-6z" stroke="#282c33" stroke-width="2" fill="#fcfcca"/><use xlink:href="#e" transform="matrix(1,0,0,1,-180.60942156212923,5351.278053823693) translate(46.48765432098766 17.77777777777778)"/><path d="M-112.6 5496.28v-2" stroke="#3a414a" stroke-width="4" fill="none"/><path d="M-110.63 5498.28h-3.95v-2.05h3.95zM-110.63 5494.33h-3.95v-2.05h3.95z" stroke="#3a414a" stroke-width=".05" fill="#3a414a"/><path d="M-112.6 5384.28v-2" stroke="#3a414a" stroke-width="4" fill="none"/><path d="M-110.63 5386.28h-3.95v-2.05h3.95zM-110.63 5382.33h-3.95v-2.05h3.95z" stroke="#3a414a" stroke-width=".05" fill="#3a414a"/><path d="M-192.6 5242.6a6 6 0 0 1 6-6h148a6 6 0 0 1 6 6v28a6 6 0 0 1-6 6h-148a6 6 0 0 1-6-6z" stroke="#282c33" stroke-width="2" fill="#fcfcca"/><use xlink:href="#d" transform="matrix(1,0,0,1,-180.60942156212923,5248.598789223517) translate(39.04938271604939 17.77777777777778)"/><path d="M-192.6 5082.6a6 6 0 0 1 6-6h148a6 6 0 0 1 6 6v28a6 6 0 0 1-6 6h-148a6 6 0 0 1-6-6z" stroke="#282c33" stroke-width="2" fill="#fcfcca"/><use xlink:href="#e" transform="matrix(1,0,0,1,-180.60942156212923,5088.598789223517) translate(46.48765432098766 17.77777777777778)"/><path d="M-112.6 5233.6v-2" stroke="#3a414a" stroke-width="4" fill="none"/><path d="M-110.63 5235.6h-3.95v-2.05h3.95zM-110.63 5231.65h-3.95v-2.05h3.95z" stroke="#3a414a" stroke-width=".05" fill="#3a414a"/><path d="M-112.6 5121.6v-2" stroke="#3a414a" stroke-width="4" fill="none"/><path d="M-110.63 5123.6h-3.95v-2.05h3.95zM-110.63 5119.65h-3.95v-2.05h3.95z" stroke="#3a414a" stroke-width=".05" fill="#3a414a"/><path d="M-192.6 5130.6a6 6 0 0 1 6-6h148a6 6 0 0 1 6 6v92a6 6 0 0 1-6 6h-148a6 6 0 0 1-6-6z" stroke="#282c33" stroke-width="2" fill="#ffdda6"/><use xlink:href="#n" transform="matrix(1,0,0,1,-180.60942156212923,5136.598789223517) translate(36.580246913580254 20.27777777777778)"/><use xlink:href="#b" transform="matrix(1,0,0,1,-180.60942156212923,5136.598789223517) translate(11.395061728395056 46.94444444444444)"/><use xlink:href="#c" transform="matrix(1,0,0,1,-180.60942156212923,5136.598789223517) translate(19.45061728395062 73.61111111111111)"/><path d="M-112.6 5336.28v-45.45" stroke="#3a414a" stroke-width="4" fill="none"/><path d="M-110.63 5338.28h-3.95v-2.05h3.95z" stroke="#3a414a" stroke-width=".05" fill="#3a414a"/><path d="M-112.6 5281.53l7.63 12.9h-15.28z" stroke="#3a414a" stroke-width="4" fill="#3a414a"/><path d="M-110.6 5316.93h113a6 6 0 0 0 6-6V5102.6a6 6 0 0 0-6-6H-18.4M-110.56 5316.93h-2.05" stroke="#3a414a" stroke-width="4" fill="none"/><path d="M-27.68 5096.6l12.9-7.64v15.27z" stroke="#3a414a" stroke-width="4" fill="#3a414a"/><path d="M-192.6 4882.6a6 6 0 0 1 6-6h148a6 6 0 0 1 6 6v68a6 6 0 0 1-6 6h-148a6 6 0 0 1-6-6z" stroke="#282c33" stroke-width="2" fill="#cfe4ff"/><use xlink:href="#f" transform="matrix(1,0,0,1,-180.60942156212923,4888.598789223517) translate(42.135802469135804 21.27777777777778)"/><use xlink:href="#g" transform="matrix(1,0,0,1,-180.60942156212923,4888.598789223517) translate(24.26543209876543 47.94444444444444)"/><path d="M-192.6 4981.6a6 6 0 0 1 6-6h148a6 6 0 0 1 6 6v28a6 6 0 0 1-6 6h-148a6 6 0 0 1-6-6z" stroke="#282c33" stroke-width="2" fill="#fcfcca"/><use xlink:href="#d" transform="matrix(1,0,0,1,-180.60942156212923,4987.598839223517) translate(39.04938271604939 17.77777777777778)"/><path d="M-192.6 4823.6a6 6 0 0 1 6-6h148a6 6 0 0 1 6 6v28a6 6 0 0 1-6 6h-148a6 6 0 0 1-6-6z" stroke="#282c33" stroke-width="2" fill="#fcfcca"/><use xlink:href="#e" transform="matrix(1,0,0,1,-180.60942156212923,4829.598739223517) translate(46.48765432098766 17.77777777777778)"/><path d="M-112.6 5073.6v-43.77" stroke="#3a414a" stroke-width="4" fill="none"/><path d="M-110.63 5075.6h-3.95v-2.05h3.95z" stroke="#3a414a" stroke-width=".05" fill="#3a414a"/><path d="M-112.6 5020.53l7.63 12.9h-15.28z" stroke="#3a414a" stroke-width="4" fill="#3a414a"/><path d="M-114.6 5053.03h-113a6 6 0 0 1-6-6V4843.6a6 6 0 0 1 6-6h20.76M-114.66 5053.03h2.05" stroke="#3a414a" stroke-width="4" fill="none"/><path d="M-197.54 4837.6l-12.9 7.63v-15.27z" stroke="#3a414a" stroke-width="4" fill="#3a414a"/><path d="M-112.6 4972.6v-13" stroke="#3a414a" stroke-width="4" fill="none"/><path d="M-110.63 4974.6h-3.95v-2.05h3.95zM-110.63 4959.65h-3.95v-2.05h3.95z" stroke="#3a414a" stroke-width=".05" fill="#3a414a"/><path d="M-112.6 4873.6v-13" stroke="#3a414a" stroke-width="4" fill="none"/><path d="M-110.63 4875.6h-3.95v-2.05h3.95zM-110.63 4860.65h-3.95v-2.05h3.95z" stroke="#3a414a" stroke-width=".05" fill="#3a414a"/><path d="M-192.6 4626a6 6 0 0 1 6-6h148a6 6 0 0 1 6 6v28a6 6 0 0 1-6 6h-148a6 6 0 0 1-6-6z" stroke="#282c33" stroke-width="2" fill="#dedeff"/><use xlink:href="#o" transform="matrix(1,0,0,1,-180.60942156212923,4632) translate(34.7283950617284 17.77777777777778)"/><path d="M-112.6 4700.93v-26.7" stroke="#3a414a" stroke-width="4" fill="none"/><path d="M-110.63 4702.93h-3.95v-2.06h3.95z" stroke="#3a414a" stroke-width=".05" fill="#3a414a"/><path d="M-112.6 4664.93l7.63 12.9h-15.28z" stroke="#3a414a" stroke-width="4" fill="#3a414a"/><path d="M-112.6 4814.6v-56.45" stroke="#3a414a" stroke-width="4" fill="none"/><path d="M-110.63 4816.6h-3.95v-2.05h3.95z" stroke="#3a414a" stroke-width=".05" fill="#3a414a"/><path d="M-112.6 4748.85l7.63 12.9-15.28.02z" stroke="#3a414a" stroke-width="4" fill="#3a414a"/><path d="M-192.6 4546a6 6 0 0 1 6-6h148a6 6 0 0 1 6 6v28a6 6 0 0 1-6 6h-148a6 6 0 0 1-6-6z" stroke="#282c33" stroke-width="2" fill="#e3fae3"/><use xlink:href="#p" transform="matrix(1,0,0,1,-180.60942156212923,4552) translate(24.26543209876543 17.77777777777778)"/><path d="M-112.6 4617v-22.77" stroke="#3a414a" stroke-width="4" fill="none"/><path d="M-110.63 4619h-3.95v-2.05h3.95z" stroke="#3a414a" stroke-width=".05" fill="#3a414a"/><path d="M-112.6 4584.93l7.63 12.9h-15.28z" stroke="#3a414a" stroke-width="4" fill="#3a414a"/><path d="M-192.6 4426a6 6 0 0 1 6-6h148a6 6 0 0 1 6 6v68a6 6 0 0 1-6 6h-148a6 6 0 0 1-6-6z" stroke="#282c33" stroke-width="2" fill="#fff"/><use xlink:href="#q" transform="matrix(1,0,0,1,-180.60942156212923,4432) translate(31.73456790123457 21.27777777777778)"/><use xlink:href="#r" transform="matrix(1,0,0,1,-180.60942156212923,4432) translate(2.1049382716049507 47.94444444444444)"/><path d="M-112.6 4537v-22.77" stroke="#3a414a" stroke-width="4" fill="none"/><path d="M-110.63 4539h-3.95v-2.05h3.95z" stroke="#3a414a" stroke-width=".05" fill="#3a414a"/><path d="M-112.6 4504.93l7.63 12.9h-15.28z" stroke="#3a414a" stroke-width="4" fill="#3a414a"/><path d="M-40 5965.1a6 6 0 0 1 6-6h228a6 6 0 0 1 6 6v48a6 6 0 0 1-6 6H-34a6 6 0 0 1-6-6z" stroke="#000" stroke-opacity="0" stroke-width="4" fill="#fff" fill-opacity="0"/><use xlink:href="#s" transform="matrix(1,0,0,1,-35,5964.0989809499515) translate(93.75 32.91666666666666)"/><path d="M-40 5153.6a6 6 0 0 1 6-6h228a6 6 0 0 1 6 6v48a6 6 0 0 1-6 6H-34a6 6 0 0 1-6-6z" stroke="#000" stroke-opacity="0" stroke-width="4" fill="#fff" fill-opacity="0"/><use xlink:href="#s" transform="matrix(1,0,0,1,-35,5152.598739223517) translate(93.75 32.91666666666666)"/><path d="M-192.6 5617.77a6 6 0 0 1 6-6h148a6 6 0 0 1 6 6v28a6 6 0 0 1-6 6h-148a6 6 0 0 1-6-6z" stroke="#282c33" stroke-width="2" fill="#dedeff"/><use xlink:href="#o" transform="matrix(1,0,0,1,-180.60942156212923,5623.772925095972) translate(34.7283950617284 17.77777777777778)"/><path d="M-112.6 5756.1V5666" stroke="#3a414a" stroke-width="4" fill="none"/><path d="M-110.63 5758.1h-3.95v-2.05h3.95z" stroke="#3a414a" stroke-width=".05" fill="#3a414a"/><path d="M-112.6 5656.7l7.63 12.9h-15.28z" stroke="#3a414a" stroke-width="4" fill="#3a414a"/><path d="M-112.6 5608.77v-55.27" stroke="#3a414a" stroke-width="4" fill="none"/><path d="M-110.63 5610.77h-3.95v-2.05h3.95z" stroke="#3a414a" stroke-width=".05" fill="#3a414a"/><path d="M-112.6 5544.2l7.63 12.92h-15.28z" stroke="#3a414a" stroke-width="4" fill="#3a414a"/><path d="M-114.6 5690.86H-304a6 6 0 0 1-6-6v-361.93a6 6 0 0 1 6-6h144.8a6 6 0 0 0 6-6v-20.1M-114.66 5690.86h2.05" stroke="#3a414a" stroke-width="4" fill="none"/><path d="M-153.2 5281.53l7.64 12.9h-15.28z" stroke="#3a414a" stroke-width="4" fill="#3a414a"/><path d="M37 6308.85H-78.88" stroke="#3a414a" stroke-width="4" fill="none"/><path d="M39 6308.82l.1 2h-2.15v-3.95h2.26z" stroke="#3a414a" stroke-width=".05" fill="#3a414a"/><path d="M-88.18 6308.85l12.9-7.64v15.28z" stroke="#3a414a" stroke-width="4" fill="#3a414a"/><path d="M-114.6 5567.3h-113a6 6 0 0 1-6-6v-196.02a6 6 0 0 1 6-6h20.76M-114.66 5567.3h2.05" stroke="#3a414a" stroke-width="4" fill="none"/><path d="M-197.54 5359.28l-12.9 7.63v-15.26z" stroke="#3a414a" stroke-width="4" fill="#3a414a"/><path d="M120 4819.94a6 6 0 0 1 6-6h68a6 6 0 0 1 6 6v715.32a6 6 0 0 1-6 6h-68a6 6 0 0 1-6-6z" fill="none"/><path d="M120 5541.26c5.52 0 10-4.48 10-10V5187.6c0-5.52 4.48-10 10-10-5.52 0-10-4.48-10-10v-343.66c0-5.53-4.48-10-10-10" stroke="#282c33" stroke-width="4" fill="none"/><g><use xlink:href="#t" transform="matrix(1,0,0,1,155,4818.935701053723) translate(0 365.66666666666663)"/></g><path d="M120 5773.4a6 6 0 0 1 6-6h68a6 6 0 0 1 6 6v431.4a6 6 0 0 1-6 6h-68a6 6 0 0 1-6-6z" fill="none"/><path d="M120 6210.8c5.52 0 10-4.47 10-10v-201.7c0-5.52 4.48-10 10-10-5.52 0-10-4.48-10-10v-201.7c0-5.53-4.48-10-10-10" stroke="#282c33" stroke-width="4" fill="none"/><g><use xlink:href="#u" transform="matrix(1,0,0,1,155,5772.392539828532) translate(0 223.66666666666666)"/></g><path d="M-192.6 4709.93a6 6 0 0 1 6-6h148a6 6 0 0 1 6 6v28a6 6 0 0 1-6 6h-148a6 6 0 0 1-6-6z" stroke="#282c33" stroke-width="2" fill="#fcfcca"/><g><use xlink:href="#d" transform="matrix(1,0,0,1,-180.60942156212923,4715.924865563105) translate(39.04938271604939 17.77777777777778)"/></g><defs><path d="M230 0l2-204L168 0h-37L68-204 70 0H24v-248h70l56 185 57-185h69V0h-46" id="v"/><path d="M133-34C117-15 103 5 69 4 32 3 11-16 11-54c-1-60 55-63 116-61 1-26-3-47-28-47-18 1-26 9-28 27l-52-2c7-38 36-58 82-57s74 22 75 68l1 82c-1 14 12 18 25 15v27c-30 8-71 5-69-32zm-48 3c29 0 43-24 42-57-32 0-66-3-65 30 0 17 8 27 23 27" id="w"/><path d="M137-138c1-29-70-34-71-4 15 46 118 7 119 86 1 83-164 76-172 9l43-7c4 19 20 25 44 25 33 8 57-30 24-41C81-84 22-81 20-136c-2-80 154-74 161-7" id="x"/><path d="M147 0L96-86 75-71V0H25v-261h50v150l67-79h53l-66 74L201 0h-54" id="y"/><path d="M185-48c-13 30-37 53-82 52C43 2 14-33 14-96s30-98 90-98c62 0 83 45 84 108H66c0 31 8 55 39 56 18 0 30-7 34-22zm-45-69c5-46-57-63-70-21-2 6-4 13-4 21h74" id="z"/><path d="M88-194c31-1 46 15 58 34l-1-101h50l1 261h-48c-2-10 0-23-3-31C134-8 116 4 84 4 32 4 16-41 15-95c0-56 19-97 73-99zm17 164c33 0 40-30 41-66 1-37-9-64-41-64s-38 30-39 65c0 43 13 65 39 65" id="A"/><g id="a"><use transform="matrix(0.06172839506172839,0,0,0.06172839506172839,0,0)" xlink:href="#v"/><use transform="matrix(0.06172839506172839,0,0,0.06172839506172839,18.456790123456788,0)" xlink:href="#w"/><use transform="matrix(0.06172839506172839,0,0,0.06172839506172839,30.80246913580247,0)" xlink:href="#x"/><use transform="matrix(0.06172839506172839,0,0,0.06172839506172839,43.148148148148145,0)" xlink:href="#y"/><use transform="matrix(0.06172839506172839,0,0,0.06172839506172839,55.49382716049382,0)" xlink:href="#z"/><use transform="matrix(0.06172839506172839,0,0,0.06172839506172839,67.8395061728395,0)" xlink:href="#A"/></g><path d="M85 4C-2 5 27-109 22-190h50c7 57-23 150 33 157 60-5 35-97 40-157h50l1 190h-47c-2-12 1-28-3-38-12 25-28 42-61 42" id="B"/><path d="M25 0v-261h50V0H25" id="C"/><path d="M115-3C79 11 28 4 28-45v-112H4v-33h27l15-45h31v45h36v33H77v99c-1 23 16 31 38 25v30" id="D"/><path d="M25-224v-37h50v37H25zM25 0v-190h50V0H25" id="E"/><path d="M14-72v-43h91v43H14" id="F"/><path d="M186 0v-106H76V0H24v-248h52v99h110v-99h50V0h-50" id="G"/><g id="b"><use transform="matrix(0.06172839506172839,0,0,0.06172839506172839,0,0)" xlink:href="#v"/><use transform="matrix(0.06172839506172839,0,0,0.06172839506172839,18.456790123456788,0)" xlink:href="#B"/><use transform="matrix(0.06172839506172839,0,0,0.06172839506172839,31.9753086419753,0)" xlink:href="#C"/><use transform="matrix(0.06172839506172839,0,0,0.06172839506172839,38.148148148148145,0)" xlink:href="#D"/><use transform="matrix(0.06172839506172839,0,0,0.06172839506172839,45.49382716049382,0)" xlink:href="#E"/><use transform="matrix(0.06172839506172839,0,0,0.06172839506172839,51.666666666666664,0)" xlink:href="#F"/><use transform="matrix(0.06172839506172839,0,0,0.06172839506172839,59.01234567901234,0)" xlink:href="#G"/><use transform="matrix(0.06172839506172839,0,0,0.06172839506172839,75,0)" xlink:href="#z"/><use transform="matrix(0.06172839506172839,0,0,0.06172839506172839,87.34567901234568,0)" xlink:href="#w"/><use transform="matrix(0.06172839506172839,0,0,0.06172839506172839,99.69135802469137,0)" xlink:href="#A"/></g><path d="M199 0l-22-63H83L61 0H9l90-248h61L250 0h-51zm-33-102l-36-108c-10 38-24 72-36 108h72" id="H"/><path d="M135-194c87-1 58 113 63 194h-50c-7-57 23-157-34-157-59 0-34 97-39 157H25l-1-190h47c2 12-1 28 3 38 12-26 28-41 61-42" id="I"/><path d="M110-194c64 0 96 36 96 99 0 64-35 99-97 99-61 0-95-36-95-99 0-62 34-99 96-99zm-1 164c35 0 45-28 45-65 0-40-10-65-43-65-34 0-45 26-45 65 0 36 10 65 43 65" id="J"/><g id="c"><use transform="matrix(0.06172839506172839,0,0,0.06172839506172839,0,0)" xlink:href="#H"/><use transform="matrix(0.06172839506172839,0,0,0.06172839506172839,15.987654320987653,0)" xlink:href="#D"/><use transform="matrix(0.06172839506172839,0,0,0.06172839506172839,23.333333333333332,0)" xlink:href="#D"/><use transform="matrix(0.06172839506172839,0,0,0.06172839506172839,30.679012345679013,0)" xlink:href="#z"/><use transform="matrix(0.06172839506172839,0,0,0.06172839506172839,43.02469135802469,0)" xlink:href="#I"/><use transform="matrix(0.06172839506172839,0,0,0.06172839506172839,56.54320987654321,0)" xlink:href="#D"/><use transform="matrix(0.06172839506172839,0,0,0.06172839506172839,63.888888888888886,0)" xlink:href="#E"/><use transform="matrix(0.06172839506172839,0,0,0.06172839506172839,70.06172839506172,0)" xlink:href="#J"/><use transform="matrix(0.06172839506172839,0,0,0.06172839506172839,83.58024691358024,0)" xlink:href="#I"/></g><path d="M175 0L67-191c6 58 2 128 3 191H24v-248h59L193-55c-6-58-2-129-3-193h46V0h-61" id="K"/><path d="M135-150c-39-12-60 13-60 57V0H25l-1-190h47c2 13-1 29 3 40 6-28 27-53 61-41v41" id="L"/><path d="M220-157c-53 9-28 100-34 157h-49v-107c1-27-5-49-29-50C55-147 81-57 75 0H25l-1-190h47c2 12-1 28 3 38 10-53 101-56 108 0 13-22 24-43 59-42 82 1 51 116 57 194h-49v-107c-1-25-5-48-29-50" id="M"/><g id="d"><use transform="matrix(0.06172839506172839,0,0,0.06172839506172839,0,0)" xlink:href="#K"/><use transform="matrix(0.06172839506172839,0,0,0.06172839506172839,15.987654320987653,0)" xlink:href="#J"/><use transform="matrix(0.06172839506172839,0,0,0.06172839506172839,29.50617283950617,0)" xlink:href="#L"/><use transform="matrix(0.06172839506172839,0,0,0.06172839506172839,38.148148148148145,0)" xlink:href="#M"/></g><g id="e"><use transform="matrix(0.06172839506172839,0,0,0.06172839506172839,0,0)" xlink:href="#H"/><use transform="matrix(0.06172839506172839,0,0,0.06172839506172839,15.987654320987653,0)" xlink:href="#A"/><use transform="matrix(0.06172839506172839,0,0,0.06172839506172839,29.50617283950617,0)" xlink:href="#A"/></g><path d="M76-208v77h127v40H76V0H24v-248h183v40H76" id="N"/><g id="f"><use transform="matrix(0.06172839506172839,0,0,0.06172839506172839,0,0)" xlink:href="#N"/><use transform="matrix(0.06172839506172839,0,0,0.06172839506172839,13.518518518518517,0)" xlink:href="#z"/><use transform="matrix(0.06172839506172839,0,0,0.06172839506172839,25.864197530864196,0)" xlink:href="#z"/><use transform="matrix(0.06172839506172839,0,0,0.06172839506172839,38.20987654320987,0)" xlink:href="#A"/></g><path d="M231 0h-52l-39-155L100 0H48L-1-190h46L77-45c9-52 24-97 36-145h53l37 145 32-145h46" id="O"/><g id="g"><use transform="matrix(0.06172839506172839,0,0,0.06172839506172839,0,0)" xlink:href="#N"/><use transform="matrix(0.06172839506172839,0,0,0.06172839506172839,13.518518518518517,0)" xlink:href="#J"/><use transform="matrix(0.06172839506172839,0,0,0.06172839506172839,27.037037037037035,0)" xlink:href="#L"/><use transform="matrix(0.06172839506172839,0,0,0.06172839506172839,35.67901234567901,0)" xlink:href="#O"/><use transform="matrix(0.06172839506172839,0,0,0.06172839506172839,52.96296296296296,0)" xlink:href="#w"/><use transform="matrix(0.06172839506172839,0,0,0.06172839506172839,65.30864197530865,0)" xlink:href="#L"/><use transform="matrix(0.06172839506172839,0,0,0.06172839506172839,73.95061728395062,0)" xlink:href="#A"/></g><path d="M24 0v-248h52V0H24" id="P"/><path d="M135-194c53 0 70 44 70 98 0 56-19 98-73 100-31 1-45-17-59-34 3 33 2 69 2 105H25l-1-265h48c2 10 0 23 3 31 11-24 29-35 60-35zM114-30c33 0 39-31 40-66 0-38-9-64-40-64-56 0-55 130 0 130" id="Q"/><g id="h"><use transform="matrix(0.06172839506172839,0,0,0.06172839506172839,0,0)" xlink:href="#P"/><use transform="matrix(0.06172839506172839,0,0,0.06172839506172839,6.172839506172839,0)" xlink:href="#I"/><use transform="matrix(0.06172839506172839,0,0,0.06172839506172839,19.691358024691358,0)" xlink:href="#Q"/><use transform="matrix(0.06172839506172839,0,0,0.06172839506172839,33.20987654320987,0)" xlink:href="#B"/><use transform="matrix(0.06172839506172839,0,0,0.06172839506172839,46.72839506172839,0)" xlink:href="#D"/></g><path d="M24 0v-248h195v40H76v63h132v40H76v65h150V0H24" id="R"/><path d="M135-194c52 0 70 43 70 98 0 56-19 99-73 100-30 1-46-15-58-35L72 0H24l1-261h50v104c11-23 29-37 60-37zM114-30c31 0 40-27 40-66 0-37-7-63-39-63s-41 28-41 65c0 36 8 64 40 64" id="S"/><path d="M195-6C206 82 75 100 31 46c-4-6-6-13-8-21l49-6c3 16 16 24 34 25 40 0 42-37 40-79-11 22-30 35-61 35-53 0-70-43-70-97 0-56 18-96 73-97 30 0 46 14 59 34l2-30h47zm-90-29c32 0 41-27 41-63 0-35-9-62-40-62-32 0-39 29-40 63 0 36 9 62 39 62" id="T"/><g id="i"><use transform="matrix(0.06172839506172839,0,0,0.06172839506172839,0,0)" xlink:href="#R"/><use transform="matrix(0.06172839506172839,0,0,0.06172839506172839,14.814814814814813,0)" xlink:href="#M"/><use transform="matrix(0.06172839506172839,0,0,0.06172839506172839,34.5679012345679,0)" xlink:href="#S"/><use transform="matrix(0.06172839506172839,0,0,0.06172839506172839,48.08641975308642,0)" xlink:href="#z"/><use transform="matrix(0.06172839506172839,0,0,0.06172839506172839,60.432098765432094,0)" xlink:href="#A"/><use transform="matrix(0.06172839506172839,0,0,0.06172839506172839,73.9506172839506,0)" xlink:href="#A"/><use transform="matrix(0.06172839506172839,0,0,0.06172839506172839,87.46913580246913,0)" xlink:href="#E"/><use transform="matrix(0.06172839506172839,0,0,0.06172839506172839,93.64197530864196,0)" xlink:href="#I"/><use transform="matrix(0.06172839506172839,0,0,0.06172839506172839,107.16049382716048,0)" xlink:href="#T"/></g><path d="M24-248c93 1 206-16 204 79-1 75-69 88-152 82V0H24v-248zm52 121c47 0 100 7 100-41 0-47-54-39-100-39v80" id="U"/><g id="j"><use transform="matrix(0.06172839506172839,0,0,0.06172839506172839,0,0)" xlink:href="#U"/><use transform="matrix(0.06172839506172839,0,0,0.06172839506172839,14.814814814814813,0)" xlink:href="#J"/><use transform="matrix(0.06172839506172839,0,0,0.06172839506172839,28.33333333333333,0)" xlink:href="#x"/><use transform="matrix(0.06172839506172839,0,0,0.06172839506172839,40.679012345679006,0)" xlink:href="#E"/><use transform="matrix(0.06172839506172839,0,0,0.06172839506172839,46.85185185185185,0)" xlink:href="#D"/><use transform="matrix(0.06172839506172839,0,0,0.06172839506172839,54.197530864197525,0)" xlink:href="#E"/><use transform="matrix(0.06172839506172839,0,0,0.06172839506172839,60.37037037037037,0)" xlink:href="#J"/><use transform="matrix(0.06172839506172839,0,0,0.06172839506172839,73.88888888888889,0)" xlink:href="#I"/><use transform="matrix(0.06172839506172839,0,0,0.06172839506172839,87.4074074074074,0)" xlink:href="#w"/><use transform="matrix(0.06172839506172839,0,0,0.06172839506172839,99.75308641975309,0)" xlink:href="#C"/></g><g id="k"><use transform="matrix(0.06172839506172839,0,0,0.06172839506172839,0,0)" xlink:href="#z"/><use transform="matrix(0.06172839506172839,0,0,0.06172839506172839,12.345679012345679,0)" xlink:href="#M"/><use transform="matrix(0.06172839506172839,0,0,0.06172839506172839,32.098765432098766,0)" xlink:href="#S"/><use transform="matrix(0.06172839506172839,0,0,0.06172839506172839,45.617283950617285,0)" xlink:href="#z"/><use transform="matrix(0.06172839506172839,0,0,0.06172839506172839,57.96296296296296,0)" xlink:href="#A"/><use transform="matrix(0.06172839506172839,0,0,0.06172839506172839,71.48148148148148,0)" xlink:href="#A"/><use transform="matrix(0.06172839506172839,0,0,0.06172839506172839,85,0)" xlink:href="#E"/><use transform="matrix(0.06172839506172839,0,0,0.06172839506172839,91.17283950617283,0)" xlink:href="#I"/><use transform="matrix(0.06172839506172839,0,0,0.06172839506172839,104.69135802469135,0)" xlink:href="#T"/></g><path d="M125-100v72H85v-72H15v-39h70v-72h40v72h71v39h-71" id="V"/><use transform="matrix(0.11728395061728371,0,0,0.11728395061728371,0,0)" xlink:href="#V" id="l"/><g id="m"><use transform="matrix(0.06172839506172839,0,0,0.06172839506172839,0,0)" xlink:href="#P"/><use transform="matrix(0.06172839506172839,0,0,0.06172839506172839,6.172839506172839,0)" xlink:href="#I"/><use transform="matrix(0.06172839506172839,0,0,0.06172839506172839,19.691358024691358,0)" xlink:href="#Q"/><use transform="matrix(0.06172839506172839,0,0,0.06172839506172839,33.20987654320987,0)" xlink:href="#B"/><use transform="matrix(0.06172839506172839,0,0,0.06172839506172839,46.72839506172839,0)" xlink:href="#D"/><use transform="matrix(0.06172839506172839,0,0,0.06172839506172839,54.07407407407407,0)" xlink:href="#x"/></g><path d="M67-125c0 53 21 87 73 88 37 1 54-22 65-47l45 17C233-25 199 4 140 4 58 4 20-42 15-125 8-235 124-281 211-232c18 10 29 29 36 50l-46 12c-8-25-30-41-62-41-52 0-71 34-72 86" id="W"/><g id="n"><use transform="matrix(0.06172839506172839,0,0,0.06172839506172839,0,0)" xlink:href="#W"/><use transform="matrix(0.06172839506172839,0,0,0.06172839506172839,15.987654320987653,0)" xlink:href="#L"/><use transform="matrix(0.06172839506172839,0,0,0.06172839506172839,24.629629629629626,0)" xlink:href="#J"/><use transform="matrix(0.06172839506172839,0,0,0.06172839506172839,38.148148148148145,0)" xlink:href="#x"/><use transform="matrix(0.06172839506172839,0,0,0.06172839506172839,50.49382716049382,0)" xlink:href="#x"/></g><path d="M24 0v-248h52v208h133V0H24" id="X"/><g id="o"><use transform="matrix(0.06172839506172839,0,0,0.06172839506172839,0,0)" xlink:href="#X"/><use transform="matrix(0.06172839506172839,0,0,0.06172839506172839,13.518518518518517,0)" xlink:href="#E"/><use transform="matrix(0.06172839506172839,0,0,0.06172839506172839,19.691358024691358,0)" xlink:href="#I"/><use transform="matrix(0.06172839506172839,0,0,0.06172839506172839,33.20987654320987,0)" xlink:href="#z"/><use transform="matrix(0.06172839506172839,0,0,0.06172839506172839,45.55555555555555,0)" xlink:href="#w"/><use transform="matrix(0.06172839506172839,0,0,0.06172839506172839,57.90123456790123,0)" xlink:href="#L"/></g><path d="M169-182c-1-43-94-46-97-3 18 66 151 10 154 114 3 95-165 93-204 36-6-8-10-19-12-30l50-8c3 46 112 56 116 5-17-69-150-10-154-114-4-87 153-88 188-35 5 8 8 18 10 28" id="Y"/><path d="M121-226c-27-7-43 5-38 36h38v33H83V0H34v-157H6v-33h28c-9-59 32-81 87-68v32" id="Z"/><path d="M144 0l-44-69L55 0H2l70-98-66-92h53l41 62 40-62h54l-67 91 71 99h-54" id="aa"/><g id="p"><use transform="matrix(0.06172839506172839,0,0,0.06172839506172839,0,0)" xlink:href="#Y"/><use transform="matrix(0.06172839506172839,0,0,0.06172839506172839,14.814814814814813,0)" xlink:href="#J"/><use transform="matrix(0.06172839506172839,0,0,0.06172839506172839,28.33333333333333,0)" xlink:href="#Z"/><use transform="matrix(0.06172839506172839,0,0,0.06172839506172839,35.679012345679006,0)" xlink:href="#D"/><use transform="matrix(0.06172839506172839,0,0,0.06172839506172839,43.02469135802468,0)" xlink:href="#M"/><use transform="matrix(0.06172839506172839,0,0,0.06172839506172839,62.77777777777777,0)" xlink:href="#w"/><use transform="matrix(0.06172839506172839,0,0,0.06172839506172839,75.12345679012346,0)" xlink:href="#aa"/></g><path d="M140-251c80 0 125 45 125 126S219 4 139 4C58 4 15-44 15-125s44-126 125-126zm-1 214c52 0 73-35 73-88 0-50-21-86-72-86-52 0-73 35-73 86s22 88 72 88" id="ab"/><g id="q"><use transform="matrix(0.06172839506172839,0,0,0.06172839506172839,0,0)" xlink:href="#ab"/><use transform="matrix(0.06172839506172839,0,0,0.06172839506172839,17.28395061728395,0)" xlink:href="#B"/><use transform="matrix(0.06172839506172839,0,0,0.06172839506172839,30.80246913580247,0)" xlink:href="#D"/><use transform="matrix(0.06172839506172839,0,0,0.06172839506172839,38.148148148148145,0)" xlink:href="#Q"/><use transform="matrix(0.06172839506172839,0,0,0.06172839506172839,51.666666666666664,0)" xlink:href="#B"/><use transform="matrix(0.06172839506172839,0,0,0.06172839506172839,65.18518518518518,0)" xlink:href="#D"/></g><g id="r"><use transform="matrix(0.06172839506172839,0,0,0.06172839506172839,0,0)" xlink:href="#Q"/><use transform="matrix(0.06172839506172839,0,0,0.06172839506172839,13.518518518518517,0)" xlink:href="#L"/><use transform="matrix(0.06172839506172839,0,0,0.06172839506172839,22.160493827160494,0)" xlink:href="#J"/><use transform="matrix(0.06172839506172839,0,0,0.06172839506172839,35.67901234567901,0)" xlink:href="#S"/><use transform="matrix(0.06172839506172839,0,0,0.06172839506172839,49.19753086419753,0)" xlink:href="#w"/><use transform="matrix(0.06172839506172839,0,0,0.06172839506172839,61.54320987654321,0)" xlink:href="#S"/><use transform="matrix(0.06172839506172839,0,0,0.06172839506172839,75.06172839506172,0)" xlink:href="#E"/><use transform="matrix(0.06172839506172839,0,0,0.06172839506172839,81.23456790123456,0)" xlink:href="#C"/><use transform="matrix(0.06172839506172839,0,0,0.06172839506172839,87.40740740740739,0)" xlink:href="#E"/><use transform="matrix(0.06172839506172839,0,0,0.06172839506172839,93.58024691358023,0)" xlink:href="#D"/><use transform="matrix(0.06172839506172839,0,0,0.06172839506172839,100.92592592592591,0)" xlink:href="#E"/><use transform="matrix(0.06172839506172839,0,0,0.06172839506172839,107.09876543209874,0)" xlink:href="#z"/><use transform="matrix(0.06172839506172839,0,0,0.06172839506172839,119.44444444444443,0)" xlink:href="#x"/></g><g id="s"><use transform="matrix(0.09259259259259256,0,0,0.09259259259259256,0,0)" xlink:href="#K"/><use transform="matrix(0.09259259259259256,0,0,0.09259259259259256,23.981481481481474,0)" xlink:href="#aa"/></g><path d="M24-248c120-7 223 5 221 122C244-46 201 0 124 0H24v-248zM76-40c74 7 117-18 117-86 0-67-45-88-117-82v168" id="ac"/><path d="M190-63c-7 42-38 67-86 67-59 0-84-38-90-98-12-110 154-137 174-36l-49 2c-2-19-15-32-35-32-30 0-35 28-38 64-6 74 65 87 74 30" id="ad"/><g id="t"><use transform="matrix(0.09259259259259256,0,0,0.09259259259259256,0,0)" xlink:href="#ac"/><use transform="matrix(0.09259259259259256,0,0,0.09259259259259256,23.981481481481474,0)" xlink:href="#z"/><use transform="matrix(0.09259259259259256,0,0,0.09259259259259256,42.499999999999986,0)" xlink:href="#ad"/><use transform="matrix(0.09259259259259256,0,0,0.09259259259259256,61.0185185185185,0)" xlink:href="#J"/><use transform="matrix(0.09259259259259256,0,0,0.09259259259259256,81.29629629629628,0)" xlink:href="#A"/><use transform="matrix(0.09259259259259256,0,0,0.09259259259259256,101.57407407407403,0)" xlink:href="#z"/><use transform="matrix(0.09259259259259256,0,0,0.09259259259259256,120.09259259259255,0)" xlink:href="#L"/></g><g id="u"><use transform="matrix(0.09259259259259256,0,0,0.09259259259259256,0,0)" xlink:href="#R"/><use transform="matrix(0.09259259259259256,0,0,0.09259259259259256,22.222222222222214,0)" xlink:href="#I"/><use transform="matrix(0.09259259259259256,0,0,0.09259259259259256,42.499999999999986,0)" xlink:href="#ad"/><use transform="matrix(0.09259259259259256,0,0,0.09259259259259256,61.0185185185185,0)" xlink:href="#J"/><use transform="matrix(0.09259259259259256,0,0,0.09259259259259256,81.29629629629628,0)" xlink:href="#A"/><use transform="matrix(0.09259259259259256,0,0,0.09259259259259256,101.57407407407403,0)" xlink:href="#z"/><use transform="matrix(0.09259259259259256,0,0,0.09259259259259256,120.09259259259255,0)" xlink:href="#L"/></g></defs></g></svg>