<svg xmlns="http://www.w3.org/2000/svg" xmlns:xlink="http://www.w3.org/1999/xlink" xmlns:lucid="lucid" width="2990" height="2787"><g transform="translate(-9232 -1345)" lucid:page-tab-id="0_0"><path d="M10080 3587.5a6 6 0 0 1 6-6h1308a6 6 0 0 1 6 6v218.24a6 6 0 0 1-6 6h-1308a6 6 0 0 1-6-6z" stroke="#000" stroke-opacity="0" stroke-width="2" fill="#fff" fill-opacity="0"/><use xlink:href="#a" transform="matrix(1,0,0,1,10085,3586.495785395035) translate(16.31481481481478 129.91666666666669)"/><use xlink:href="#b" transform="matrix(1,0,0,1,10085,3586.495785395035) translate(189.24074074074073 129.91666666666669)"/><use xlink:href="#c" transform="matrix(1,0,0,1,10085,3586.495785395035) translate(738.0925925925927 129.91666666666669)"/><use xlink:href="#d" transform="matrix(1,0,0,1,10085,3586.495785395035) translate(1146.6851851851852 129.91666666666669)"/><path d="M11520 1974.45a6 6 0 0 1 6-6h388a6 6 0 0 1 6 6v1503.3a6 6 0 0 1-6 6h-388a6 6 0 0 1-6-6z" stroke="#000" stroke-opacity="0" stroke-width="2" fill="#fff" fill-opacity="0"/><use xlink:href="#a" transform="matrix(6.123233995736766e-17,1,-1,6.123233995736766e-17,11915.000000000002,1973.4487520502007) translate(114.31481481481478 214.82291666666669)"/><use xlink:href="#b" transform="matrix(6.123233995736766e-17,1,-1,6.123233995736766e-17,11915.000000000002,1973.4487520502007) translate(287.24074074074076 214.82291666666669)"/><use xlink:href="#c" transform="matrix(6.123233995736766e-17,1,-1,6.123233995736766e-17,11915.000000000002,1973.4487520502007) translate(836.0925925925927 214.82291666666669)"/><use xlink:href="#d" transform="matrix(6.123233995736766e-17,1,-1,6.123233995736766e-17,11915.000000000002,1973.4487520502007) translate(1244.6851851851852 214.82291666666669)"/><path d="M9820 1909.65h360v333.9h-360z" fill="#fff"/><path d="M10180 1909.65h360v333.9h-360zM10540 1909.65h360v333.9h-360zM10900 1909.65h360v333.9h-360zM11260 1909.65h360v333.9h-360z" fill="#fe7070"/><path d="M9820 2243.54h360v333.9h-360zM10180 2243.54h360v333.9h-360z" fill="#fff"/><path d="M10540 2243.54h360v333.9h-360zM10900 2243.54h360v333.9h-360zM11260 2243.54h360v333.9h-360z" fill="#fe7070"/><path d="M9820 2577.43h360v333.9h-360zM10180 2577.43h360v333.9h-360zM10540 2577.43h360v333.9h-360z" fill="#fff"/><path d="M10900 2577.43h360v333.9h-360zM11260 2577.43h360v333.9h-360z" fill="#fe7070"/><path d="M9820 2911.32h360v333.9h-360zM10180 2911.32h360v333.9h-360zM10540 2911.32h360v333.9h-360zM10900 2911.32h360v333.9h-360z" fill="#fff"/><path d="M11260 2911.32h360v333.9h-360z" fill="#fe7070"/><path d="M9820 3245.2h360v333.9h-360zM10180 3245.2h360v333.9h-360zM10540 3245.2h360v333.9h-360zM10900 3245.2h360v333.9h-360zM11260 3245.2h360v333.9h-360z" fill="#fff"/><path d="M9820 1909.65v333.9M9820 1909.65h360M10180 1909.65v333.9M10180 1909.65h360M10540 1909.65v333.9M10540 1909.65h360M10900 1909.65v333.9M10900 1909.65h360M11260 1909.65v333.9M11620 1909.65v333.9M11260 1909.65h360M9820 2243.54v333.9M9820 2243.54h360M10180 2243.54v333.9M10180 2243.54h360M10540 2243.54v333.9M10540 2243.54h360M10900 2243.54v333.9M10900 2243.54h360M11260 2243.54v333.9M11620 2243.54v333.9M11260 2243.54h360M9820 2577.43v333.9M9820 2577.43h360M10180 2577.43v333.9M10180 2577.43h360M10540 2577.43v333.9M10540 2577.43h360M10900 2577.43v333.9M10900 2577.43h360M11260 2577.43v333.9M11620 2577.43v333.9M11260 2577.43h360M9820 2911.32v333.9M9820 2911.32h360M10180 2911.32v333.9M10180 2911.32h360M10540 2911.32v333.9M10540 2911.32h360M10900 2911.32v333.9M10900 2911.32h360M11260 2911.32v333.9M11620 2911.32v333.9M11260 2911.32h360M9820 3245.2v333.9M9820 3245.2h360M9820 3579.1h360M10180 3245.2v333.9M10180 3245.2h360M10180 3579.1h360M10540 3245.2v333.9M10540 3245.2h360M10540 3579.1h360M10900 3245.2v333.9M10900 3245.2h360M10900 3579.1h360M11260 3245.2v333.9M11620 3245.2v333.9M11260 3245.2h360M11260 3579.1h360" stroke="#282c33" stroke-width="9" fill="none"/><use xlink:href="#e" transform="matrix(1,0,0,1,9825,1914.6470450780816) translate(105.86419753086432 176.2222222222222)"/><use xlink:href="#f" transform="matrix(1,0,0,1,10185,1914.6470450780816) translate(119.98765432098774 176.2222222222222)"/><use xlink:href="#f" transform="matrix(1,0,0,1,10545,1914.6470450780816) translate(119.98765432098774 176.2222222222222)"/><use xlink:href="#f" transform="matrix(1,0,0,1,10905,1914.6470450780816) translate(119.98765432098774 176.2222222222222)"/><use xlink:href="#f" transform="matrix(1,0,0,1,11265,1914.6470450780816) translate(119.98765432098774 176.2222222222222)"/><use xlink:href="#g" transform="matrix(1,0,0,1,9825,2248.5372824278875) translate(105.86419753086432 176.2222222222222)"/><use xlink:href="#h" transform="matrix(1,0,0,1,10185,2248.5372824278875) translate(113.86419753086429 176.2222222222222)"/><use xlink:href="#f" transform="matrix(1,0,0,1,10545,2248.5372824278875) translate(119.98765432098774 176.2222222222222)"/><use xlink:href="#f" transform="matrix(1,0,0,1,10905,2248.5372824278875) translate(119.98765432098774 176.2222222222222)"/><use xlink:href="#f" transform="matrix(1,0,0,1,11265,2248.5372824278875) translate(119.98765432098774 176.2222222222222)"/><use xlink:href="#i" transform="matrix(1,0,0,1,9825,2582.4275197776938) translate(94.11111111111124 176.2222222222222)"/><use xlink:href="#j" transform="matrix(1,0,0,1,10185,2582.4275197776938) translate(105.86419753086432 176.2222222222222)"/><use xlink:href="#k" transform="matrix(1,0,0,1,10545,2582.4275197776938) translate(105.86419753086432 176.2222222222222)"/><use xlink:href="#f" transform="matrix(1,0,0,1,10905,2582.4275197776938) translate(119.98765432098774 176.2222222222222)"/><use xlink:href="#f" transform="matrix(1,0,0,1,11265,2582.4275197776938) translate(119.98765432098774 176.2222222222222)"/><use xlink:href="#l" transform="matrix(1,0,0,1,9825,2916.3177571275) translate(105.86419753086432 176.2222222222222)"/><use xlink:href="#m" transform="matrix(1,0,0,1,10185,2916.3177571275) translate(105.86419753086432 176.2222222222222)"/><use xlink:href="#n" transform="matrix(1,0,0,1,10545,2916.3177571275) translate(94.11111111111124 176.2222222222222)"/><use xlink:href="#o" transform="matrix(1,0,0,1,10905,2916.3177571275) translate(105.86419753086432 176.2222222222222)"/><use xlink:href="#f" transform="matrix(1,0,0,1,11265,2916.3177571275) translate(119.98765432098774 176.2222222222222)"/><use xlink:href="#p" transform="matrix(1,0,0,1,9825,3250.207994477306) translate(105.86419753086432 176.2222222222222)"/><use xlink:href="#q" transform="matrix(1,0,0,1,10185,3250.207994477306) translate(105.86419753086432 176.2222222222222)"/><use xlink:href="#r" transform="matrix(1,0,0,1,10545,3250.207994477306) translate(105.86419753086432 176.2222222222222)"/><use xlink:href="#s" transform="matrix(1,0,0,1,10905,3250.207994477306) translate(94.11111111111124 176.2222222222222)"/><use xlink:href="#t" transform="matrix(1,0,0,1,11265,3250.207994477306) translate(105.86419753086432 176.2222222222222)"/><path d="M9820 1340h1800v340H9820z" fill="#fff"/><path d="M9820 1340v340M11620 1340v340M9820 1340h1800M9820 1680h1800" fill="none"/><use xlink:href="#u" transform="matrix(1,0,0,1,9825,1345) translate(783.6481481481484 183.66666666666663)"/><path d="M9220 1909.65h363V3581.5h-363z" fill="#fff"/><path d="M9220 1909.65V3581.5M9583 1909.65V3581.5M9220 1909.65h363M9220 3581.5h363" fill="none"/><use xlink:href="#v" transform="matrix(-1.8369701987210297e-16,-1,1,-1.8369701987210297e-16,9225,3576.4957853950345) translate(657.4259259259263 195.16666666666663)"/><path d="M9820 1560h380.96v340H9820zM10200.96 1560h354.76v340h-354.76zM10555.72 1560h354.76v340h-354.76zM10910.48 1560h354.76v340h-354.76zM11265.24 1560H11620v340h-354.76z" fill="#fff"/><path d="M9820 1560v340M9820 1560h380.96M9820 1900h380.96M10200.96 1560h354.76M10200.96 1900h354.76M10555.72 1560h354.76M10555.72 1900h354.76M10910.48 1560h354.76M10910.48 1900h354.76M11620 1560v340M11265.24 1560H11620M11265.24 1900H11620" fill="none"/><use xlink:href="#w" transform="matrix(1,0,0,1,9825,1565) translate(144.11728395061735 179.2222222222222)"/><use xlink:href="#x" transform="matrix(1,0,0,1,10205.963045912655,1565) translate(131.11728395061735 179.2222222222222)"/><use xlink:href="#y" transform="matrix(1,0,0,1,10560.72228443449,1565) translate(131.11728395061735 179.2222222222222)"/><use xlink:href="#z" transform="matrix(1,0,0,1,10915.481522956326,1565) translate(131.11728395061735 179.2222222222222)"/><use xlink:href="#A" transform="matrix(1,0,0,1,11270.240761478164,1565) translate(131.11728395061735 179.2222222222222)"/><path d="M9440 1909.65h363v341.5h-363zM9440 2251.15h363v344h-363zM9440 2595.15h363v331.46h-363z" fill="#fff"/><path d="M9440 2926.6h363v341.5h-363zM9440 3268.1h363v313.4h-363z" fill="#fff"/><path d="M9440 1909.65v341.5M9803 1909.65v341.5M9440 1909.65h363M9440 2251.15v344M9803 2251.15v344M9440 2595.15v331.46M9803 2595.15v331.46M9440 2926.6v341.5M9803 2926.6v341.5M9440 3268.1v313.4M9803 3268.1v313.4M9440 3581.5h363" fill="none"/><g><use xlink:href="#w" transform="matrix(1,0,0,1,9445,1914.6470450780816) translate(135.11728395061735 180.2222222222222)"/></g><g><use xlink:href="#x" transform="matrix(1,0,0,1,9445,2256.151259683047) translate(135.11728395061735 181.2222222222222)"/></g><g><use xlink:href="#y" transform="matrix(1,0,0,1,9445,2600.151259683047) translate(135.11728395061735 175.2222222222222)"/></g><g><use xlink:href="#z" transform="matrix(1,0,0,1,9445,2931.611232681984) translate(135.11728395061735 180.2222222222222)"/></g><g><use xlink:href="#A" transform="matrix(1,0,0,1,9445,3273.115447286949) translate(135.11728395061735 166.2222222222222)"/></g><defs><path d="M15-91v-56l181-69v40L49-119l147 57v40" id="B"/><path d="M14-72v-43h91v43H14" id="C"/><g id="a"><use transform="matrix(0.2592592592592593,0,0,0.2592592592592593,0,0)" xlink:href="#B"/><use transform="matrix(0.2592592592592593,0,0,0.2592592592592593,54.44444444444445,0)" xlink:href="#C"/><use transform="matrix(0.2592592592592593,0,0,0.2592592592592593,85.2962962962963,0)" xlink:href="#C"/><use transform="matrix(0.2592592592592593,0,0,0.2592592592592593,116.14814814814817,0)" xlink:href="#C"/></g><path d="M169-182c-1-43-94-46-97-3 18 66 151 10 154 114 3 95-165 93-204 36-6-8-10-19-12-30l50-8c3 46 112 56 116 5-17-69-150-10-154-114-4-87 153-88 188-35 5 8 8 18 10 28" id="D"/><path d="M24 0v-248h195v40H76v63h132v40H76v65h150V0H24" id="E"/><path d="M140-251c80 0 125 45 125 126 0 70-33 111-92 124 6 28 34 38 68 31l-1 36C177 83 129 55 120 2 51-6 15-50 15-125c0-81 44-126 125-126zm-1 214c52 0 73-35 73-88 0-50-21-86-72-86-52 0-73 35-73 86s22 88 72 88" id="F"/><path d="M238-95c0 69-44 99-111 99C63 4 22-25 22-93v-155h51v151c-1 38 19 59 55 60 90 1 49-130 58-211h52v153" id="G"/><path d="M175 0L67-191c6 58 2 128 3 191H24v-248h59L193-55c-6-58-2-129-3-193h46V0h-61" id="H"/><path d="M67-125c0 53 21 87 73 88 37 1 54-22 65-47l45 17C233-25 199 4 140 4 58 4 20-42 15-125 8-235 124-281 211-232c18 10 29 29 36 50l-46 12c-8-25-30-41-62-41-52 0-71 34-72 86" id="I"/><g id="b"><use transform="matrix(0.2592592592592593,0,0,0.2592592592592593,0,0)" xlink:href="#D"/><use transform="matrix(0.2592592592592593,0,0,0.2592592592592593,62.22222222222223,0)" xlink:href="#E"/><use transform="matrix(0.2592592592592593,0,0,0.2592592592592593,124.44444444444446,0)" xlink:href="#F"/><use transform="matrix(0.2592592592592593,0,0,0.2592592592592593,197.03703703703707,0)" xlink:href="#G"/><use transform="matrix(0.2592592592592593,0,0,0.2592592592592593,264.1851851851852,0)" xlink:href="#E"/><use transform="matrix(0.2592592592592593,0,0,0.2592592592592593,326.40740740740745,0)" xlink:href="#H"/><use transform="matrix(0.2592592592592593,0,0,0.2592592592592593,393.5555555555556,0)" xlink:href="#I"/><use transform="matrix(0.2592592592592593,0,0,0.2592592592592593,460.70370370370375,0)" xlink:href="#E"/></g><path d="M24 0v-248h52v208h133V0H24" id="J"/><path d="M67-125c0 54 23 88 75 88 28 0 53-7 68-21v-34h-60v-39h108v91C232-14 192 4 140 4 58 4 20-42 15-125 8-236 126-280 215-234c19 10 29 26 37 47l-47 15c-11-23-29-39-63-39-53 1-75 33-75 86" id="K"/><path d="M186 0v-106H76V0H24v-248h52v99h110v-99h50V0h-50" id="L"/><path d="M136-208V0H84v-208H4v-40h212v40h-80" id="M"/><g id="c"><use transform="matrix(0.2592592592592593,0,0,0.2592592592592593,0,0)" xlink:href="#J"/><use transform="matrix(0.2592592592592593,0,0,0.2592592592592593,56.777777777777786,0)" xlink:href="#E"/><use transform="matrix(0.2592592592592593,0,0,0.2592592592592593,119.00000000000001,0)" xlink:href="#H"/><use transform="matrix(0.2592592592592593,0,0,0.2592592592592593,186.14814814814815,0)" xlink:href="#K"/><use transform="matrix(0.2592592592592593,0,0,0.2592592592592593,258.74074074074076,0)" xlink:href="#L"/><use transform="matrix(0.2592592592592593,0,0,0.2592592592592593,325.8888888888889,0)" xlink:href="#M"/></g><path d="M15-22v-40l146-57-146-57v-40l181 69v56" id="N"/><g id="d"><use transform="matrix(0.2592592592592593,0,0,0.2592592592592593,0,0)" xlink:href="#C"/><use transform="matrix(0.2592592592592593,0,0,0.2592592592592593,30.85185185185186,0)" xlink:href="#C"/><use transform="matrix(0.2592592592592593,0,0,0.2592592592592593,61.70370370370372,0)" xlink:href="#C"/><use transform="matrix(0.2592592592592593,0,0,0.2592592592592593,92.55555555555557,0)" xlink:href="#N"/></g><path d="M101-251c68 0 84 54 84 127C185-50 166 4 99 4S15-52 14-124c-1-75 17-127 87-127zm-1 216c37-5 36-46 36-89s4-89-36-89c-39 0-36 45-36 89 0 43-3 85 36 89" id="O"/><path d="M24 0v-54h51V0H24" id="P"/><path d="M182-182c0 78-84 86-111 141h115V0H12c-6-101 99-100 120-180 1-22-12-31-33-32-23 0-32 14-35 34l-49-3c5-45 32-70 84-70 51 0 83 22 83 69" id="Q"/><path d="M139-81c0-46-55-55-73-27H18l9-140h149v37H72l-4 63c44-38 133-4 122 66C201 21 21 35 11-62l49-4c5 18 15 30 39 30 26 0 40-18 40-45" id="R"/><g id="e"><use transform="matrix(0.19753086419753055,0,0,0.19753086419753055,0,0)" xlink:href="#O"/><use transform="matrix(0.19753086419753055,0,0,0.19753086419753055,39.50617283950611,0)" xlink:href="#P"/><use transform="matrix(0.19753086419753055,0,0,0.19753086419753055,59.25925925925917,0)" xlink:href="#Q"/><use transform="matrix(0.19753086419753055,0,0,0.19753086419753055,98.76543209876527,0)" xlink:href="#R"/></g><path d="M25-224v-37h50v37H25zM25 0v-190h50V0H25" id="S"/><path d="M135-194c87-1 58 113 63 194h-50c-7-57 23-157-34-157-59 0-34 97-39 157H25l-1-190h47c2 12-1 28 3 38 12-26 28-41 61-42" id="T"/><path d="M121-226c-27-7-43 5-38 36h38v33H83V0H34v-157H6v-33h28c-9-59 32-81 87-68v32" id="U"/><g id="f"><use transform="matrix(0.19753086419753055,0,0,0.19753086419753055,0,0)" xlink:href="#C"/><use transform="matrix(0.19753086419753055,0,0,0.19753086419753055,23.506172839506135,0)" xlink:href="#S"/><use transform="matrix(0.19753086419753055,0,0,0.19753086419753055,43.25925925925919,0)" xlink:href="#T"/><use transform="matrix(0.19753086419753055,0,0,0.19753086419753055,86.51851851851838,0)" xlink:href="#U"/></g><path d="M52 0c1-96 47-148 87-207H15v-41h169v40c-36 62-79 113-81 208H52" id="V"/><g id="g"><use transform="matrix(0.19753086419753055,0,0,0.19753086419753055,0,0)" xlink:href="#O"/><use transform="matrix(0.19753086419753055,0,0,0.19753086419753055,39.50617283950611,0)" xlink:href="#P"/><use transform="matrix(0.19753086419753055,0,0,0.19753086419753055,59.25925925925917,0)" xlink:href="#Q"/><use transform="matrix(0.19753086419753055,0,0,0.19753086419753055,98.76543209876527,0)" xlink:href="#V"/></g><path d="M138-131c27 9 52 24 51 61 0 53-36 74-89 74S11-19 11-69c0-35 22-54 51-61-78-25-46-121 38-121 51 0 83 19 83 66 0 30-18 49-45 54zm-38-16c24 0 32-13 32-36 1-23-11-34-32-34-22 0-33 12-32 34 0 22 9 36 32 36zm1 116c27 0 37-17 37-43 0-25-13-39-39-39-24 0-37 15-37 40 0 27 11 42 39 42" id="W"/><g id="h"><use transform="matrix(0.19753086419753055,0,0,0.19753086419753055,0,0)" xlink:href="#C"/><use transform="matrix(0.19753086419753055,0,0,0.19753086419753055,23.506172839506135,0)" xlink:href="#O"/><use transform="matrix(0.19753086419753055,0,0,0.19753086419753055,63.01234567901224,0)" xlink:href="#P"/><use transform="matrix(0.19753086419753055,0,0,0.19753086419753055,82.7654320987653,0)" xlink:href="#W"/></g><path d="M23 0v-37h61v-169l-59 37v-38l62-41h46v211h57V0H23" id="X"/><g id="i"><use transform="matrix(0.19753086419753055,0,0,0.19753086419753055,0,0)" xlink:href="#C"/><use transform="matrix(0.19753086419753055,0,0,0.19753086419753055,23.506172839506135,0)" xlink:href="#X"/><use transform="matrix(0.19753086419753055,0,0,0.19753086419753055,63.01234567901224,0)" xlink:href="#P"/><use transform="matrix(0.19753086419753055,0,0,0.19753086419753055,82.7654320987653,0)" xlink:href="#O"/><use transform="matrix(0.19753086419753055,0,0,0.19753086419753055,122.27160493827141,0)" xlink:href="#W"/></g><path d="M165-50V0h-47v-50H5v-38l105-160h55v161h33v37h-33zm-47-37l2-116L46-87h72" id="Y"/><path d="M115-159c48 0 72 30 72 78 0 54-30 85-83 85-64 0-91-50-91-122 0-98 58-163 141-120 15 8 21 24 27 44l-47 6c-5-31-48-31-61-4-7 14-11 33-11 60 9-17 28-27 53-27zM102-35c24 0 36-20 36-45s-11-43-37-43c-23 0-36 14-36 38 0 27 11 50 37 50" id="Z"/><g id="j"><use transform="matrix(0.19753086419753055,0,0,0.19753086419753055,0,0)" xlink:href="#O"/><use transform="matrix(0.19753086419753055,0,0,0.19753086419753055,39.50617283950611,0)" xlink:href="#P"/><use transform="matrix(0.19753086419753055,0,0,0.19753086419753055,59.25925925925917,0)" xlink:href="#Y"/><use transform="matrix(0.19753086419753055,0,0,0.19753086419753055,98.76543209876527,0)" xlink:href="#Z"/></g><g id="k"><use transform="matrix(0.19753086419753055,0,0,0.19753086419753055,0,0)" xlink:href="#X"/><use transform="matrix(0.19753086419753055,0,0,0.19753086419753055,39.50617283950611,0)" xlink:href="#P"/><use transform="matrix(0.19753086419753055,0,0,0.19753086419753055,59.25925925925917,0)" xlink:href="#Q"/><use transform="matrix(0.19753086419753055,0,0,0.19753086419753055,98.76543209876527,0)" xlink:href="#Q"/></g><path d="M128-127c34 4 56 21 59 58 7 91-148 94-172 28-4-9-6-17-7-26l51-5c1 24 16 35 40 36 23 0 39-12 38-36-1-31-31-36-65-34v-40c32 2 59-3 59-33 0-20-13-33-34-33s-33 13-35 32l-50-3c6-44 37-68 86-68 50 0 83 20 83 66 0 35-22 52-53 58" id="aa"/><g id="l"><use transform="matrix(0.19753086419753055,0,0,0.19753086419753055,0,0)" xlink:href="#X"/><use transform="matrix(0.19753086419753055,0,0,0.19753086419753055,39.50617283950611,0)" xlink:href="#P"/><use transform="matrix(0.19753086419753055,0,0,0.19753086419753055,59.25925925925917,0)" xlink:href="#aa"/><use transform="matrix(0.19753086419753055,0,0,0.19753086419753055,98.76543209876527,0)" xlink:href="#X"/></g><g id="m"><use transform="matrix(0.19753086419753055,0,0,0.19753086419753055,0,0)" xlink:href="#X"/><use transform="matrix(0.19753086419753055,0,0,0.19753086419753055,39.50617283950611,0)" xlink:href="#P"/><use transform="matrix(0.19753086419753055,0,0,0.19753086419753055,59.25925925925917,0)" xlink:href="#O"/><use transform="matrix(0.19753086419753055,0,0,0.19753086419753055,98.76543209876527,0)" xlink:href="#Y"/></g><g id="n"><use transform="matrix(0.19753086419753055,0,0,0.19753086419753055,0,0)" xlink:href="#C"/><use transform="matrix(0.19753086419753055,0,0,0.19753086419753055,23.506172839506135,0)" xlink:href="#O"/><use transform="matrix(0.19753086419753055,0,0,0.19753086419753055,63.01234567901224,0)" xlink:href="#P"/><use transform="matrix(0.19753086419753055,0,0,0.19753086419753055,82.7654320987653,0)" xlink:href="#R"/><use transform="matrix(0.19753086419753055,0,0,0.19753086419753055,122.27160493827141,0)" xlink:href="#X"/></g><g id="o"><use transform="matrix(0.19753086419753055,0,0,0.19753086419753055,0,0)" xlink:href="#O"/><use transform="matrix(0.19753086419753055,0,0,0.19753086419753055,39.50617283950611,0)" xlink:href="#P"/><use transform="matrix(0.19753086419753055,0,0,0.19753086419753055,59.25925925925917,0)" xlink:href="#O"/><use transform="matrix(0.19753086419753055,0,0,0.19753086419753055,98.76543209876527,0)" xlink:href="#V"/></g><g id="p"><use transform="matrix(0.19753086419753055,0,0,0.19753086419753055,0,0)" xlink:href="#X"/><use transform="matrix(0.19753086419753055,0,0,0.19753086419753055,39.50617283950611,0)" xlink:href="#P"/><use transform="matrix(0.19753086419753055,0,0,0.19753086419753055,59.25925925925917,0)" xlink:href="#X"/><use transform="matrix(0.19753086419753055,0,0,0.19753086419753055,98.76543209876527,0)" xlink:href="#aa"/></g><g id="q"><use transform="matrix(0.19753086419753055,0,0,0.19753086419753055,0,0)" xlink:href="#O"/><use transform="matrix(0.19753086419753055,0,0,0.19753086419753055,39.50617283950611,0)" xlink:href="#P"/><use transform="matrix(0.19753086419753055,0,0,0.19753086419753055,59.25925925925917,0)" xlink:href="#Z"/><use transform="matrix(0.19753086419753055,0,0,0.19753086419753055,98.76543209876527,0)" xlink:href="#X"/></g><g id="r"><use transform="matrix(0.19753086419753055,0,0,0.19753086419753055,0,0)" xlink:href="#X"/><use transform="matrix(0.19753086419753055,0,0,0.19753086419753055,39.50617283950611,0)" xlink:href="#P"/><use transform="matrix(0.19753086419753055,0,0,0.19753086419753055,59.25925925925917,0)" xlink:href="#V"/><use transform="matrix(0.19753086419753055,0,0,0.19753086419753055,98.76543209876527,0)" xlink:href="#aa"/></g><path d="M99-251c69 0 84 53 88 123 5 99-61 162-144 118-15-8-21-25-26-45l46-6c4 31 50 33 63 7 7-15 12-36 12-60-9 18-29 28-54 28-48 0-72-32-72-82 0-55 31-83 87-83zm-1 128c24 0 37-16 37-39 0-27-10-51-37-51-25 0-35 19-35 45 0 25 10 45 35 45" id="ab"/><g id="s"><use transform="matrix(0.19753086419753055,0,0,0.19753086419753055,0,0)" xlink:href="#C"/><use transform="matrix(0.19753086419753055,0,0,0.19753086419753055,23.506172839506135,0)" xlink:href="#X"/><use transform="matrix(0.19753086419753055,0,0,0.19753086419753055,63.01234567901224,0)" xlink:href="#P"/><use transform="matrix(0.19753086419753055,0,0,0.19753086419753055,82.7654320987653,0)" xlink:href="#ab"/><use transform="matrix(0.19753086419753055,0,0,0.19753086419753055,122.27160493827141,0)" xlink:href="#aa"/></g><g id="t"><use transform="matrix(0.19753086419753055,0,0,0.19753086419753055,0,0)" xlink:href="#X"/><use transform="matrix(0.19753086419753055,0,0,0.19753086419753055,39.50617283950611,0)" xlink:href="#P"/><use transform="matrix(0.19753086419753055,0,0,0.19753086419753055,59.25925925925917,0)" xlink:href="#Q"/><use transform="matrix(0.19753086419753055,0,0,0.19753086419753055,98.76543209876527,0)" xlink:href="#ab"/></g><path d="M195 0l-88-114-31 24V0H24v-248h52v113l112-113h60L142-143 257 0h-62" id="ac"/><path d="M185-48c-13 30-37 53-82 52C43 2 14-33 14-96s30-98 90-98c62 0 83 45 84 108H66c0 31 8 55 39 56 18 0 30-7 34-22zm-45-69c5-46-57-63-70-21-2 6-4 13-4 21h74" id="ad"/><path d="M123 10C108 53 80 86 19 72V37c35 8 53-11 59-39L3-190h52l48 148c12-52 28-100 44-148h51" id="ae"/><path d="M137-138c1-29-70-34-71-4 15 46 118 7 119 86 1 83-164 76-172 9l43-7c4 19 20 25 44 25 33 8 57-30 24-41C81-84 22-81 20-136c-2-80 154-74 161-7" id="af"/><g id="u"><use transform="matrix(0.25925925925925875,0,0,0.25925925925925875,0,0)" xlink:href="#ac"/><use transform="matrix(0.25925925925925875,0,0,0.25925925925925875,67.14814814814801,0)" xlink:href="#ad"/><use transform="matrix(0.25925925925925875,0,0,0.25925925925925875,118.99999999999976,0)" xlink:href="#ae"/><use transform="matrix(0.25925925925925875,0,0,0.25925925925925875,170.8518518518515,0)" xlink:href="#af"/></g><path d="M85 4C-2 5 27-109 22-190h50c7 57-23 150 33 157 60-5 35-97 40-157h50l1 190h-47c-2-12 1-28-3-38-12 25-28 42-61 42" id="ag"/><path d="M135-150c-39-12-60 13-60 57V0H25l-1-190h47c2 13-1 29 3 40 6-28 27-53 61-41v41" id="ah"/><g id="v"><use transform="matrix(0.25925925925925875,0,0,0.25925925925925875,0,0)" xlink:href="#F"/><use transform="matrix(0.25925925925925875,0,0,0.25925925925925875,72.59259259259245,0)" xlink:href="#ag"/><use transform="matrix(0.25925925925925875,0,0,0.25925925925925875,129.37037037037013,0)" xlink:href="#ad"/><use transform="matrix(0.25925925925925875,0,0,0.25925925925925875,181.2222222222219,0)" xlink:href="#ah"/><use transform="matrix(0.25925925925925875,0,0,0.25925925925925875,217.5185185185181,0)" xlink:href="#S"/><use transform="matrix(0.25925925925925875,0,0,0.25925925925925875,243.44444444444397,0)" xlink:href="#ad"/><use transform="matrix(0.25925925925925875,0,0,0.25925925925925875,295.29629629629574,0)" xlink:href="#af"/></g><g id="w"><use transform="matrix(0.19753086419753055,0,0,0.19753086419753055,0,0)" xlink:href="#M"/><use transform="matrix(0.19753086419753055,0,0,0.19753086419753055,43.25925925925919,0)" xlink:href="#X"/></g><g id="x"><use transform="matrix(0.19753086419753055,0,0,0.19753086419753055,0,0)" xlink:href="#M"/><use transform="matrix(0.19753086419753055,0,0,0.19753086419753055,43.25925925925919,0)" xlink:href="#Q"/></g><g id="y"><use transform="matrix(0.19753086419753055,0,0,0.19753086419753055,0,0)" xlink:href="#M"/><use transform="matrix(0.19753086419753055,0,0,0.19753086419753055,43.25925925925919,0)" xlink:href="#aa"/></g><g id="z"><use transform="matrix(0.19753086419753055,0,0,0.19753086419753055,0,0)" xlink:href="#M"/><use transform="matrix(0.19753086419753055,0,0,0.19753086419753055,43.25925925925919,0)" xlink:href="#Y"/></g><g id="A"><use transform="matrix(0.19753086419753055,0,0,0.19753086419753055,0,0)" xlink:href="#M"/><use transform="matrix(0.19753086419753055,0,0,0.19753086419753055,43.25925925925919,0)" xlink:href="#R"/></g></defs></g></svg>